<svg xmlns="http://www.w3.org/2000/svg" xmlns:xlink="http://www.w3.org/1999/xlink" width="222" height="242" fill="none"><g clip-path="url(#a)"><path stroke="#E3E8EF" d="M146 0v100M111.234 0v100M75 0v100"/><g filter="url(#b)"><path stroke="url(#c)" stroke-linecap="round" d="M111.5 136v-35" shape-rendering="crispEdges"/></g><g filter="url(#d)"><path stroke="url(#e)" stroke-linecap="round" d="M74.5 115V80" shape-rendering="crispEdges"/></g><g filter="url(#f)"><path stroke="url(#g)" stroke-linecap="round" d="M146.5 128V93" shape-rendering="crispEdges"/></g></g><g filter="url(#h)"><g filter="url(#i)"><path fill="#fff" d="M145.313 74H76.687a12 12 0 0 0-8.486 3.515L57.515 88.2A12 12 0 0 0 54 96.688v68.626c0 3.183 1.264 6.235 3.515 8.486L68.2 184.485A11.998 11.998 0 0 0 76.688 188h68.626a12 12 0 0 0 8.486-3.515l10.686-10.686a12 12 0 0 0 3.515-8.486V96.687c0-3.183-1.264-6.235-3.515-8.486l-10.686-10.686A12.002 12.002 0 0 0 145.313 74Z"/></g><path stroke="#D0D5DD" d="M76.687 74.5h68.626c3.05 0 5.975 1.212 8.132 3.368l10.687 10.687a11.502 11.502 0 0 1 3.368 8.132v68.626c0 3.05-1.212 5.975-3.368 8.132l-10.687 10.687a11.504 11.504 0 0 1-8.132 3.368H76.687c-3.05 0-5.975-1.212-8.132-3.368l-10.687-10.687a11.501 11.501 0 0 1-3.368-8.132V96.687a11.5 11.5 0 0 1 3.368-8.132l10.687-10.687a11.5 11.5 0 0 1 8.132-3.368Z"/><g filter="url(#j)"><path fill="#fff" d="M139.118 82.506h-56.22a12 12 0 0 0-8.486 3.515l-7.89 7.89a12 12 0 0 0-3.514 8.485v56.221a12 12 0 0 0 3.514 8.485l7.89 7.89a12.001 12.001 0 0 0 8.485 3.514h56.221c3.183 0 6.235-1.264 8.486-3.514l7.889-7.89a11.998 11.998 0 0 0 3.515-8.485v-56.221c0-3.183-1.264-6.235-3.515-8.486l-7.889-7.889a12.002 12.002 0 0 0-8.486-3.515Z"/><path fill="url(#k)" fill-opacity=".1" d="M139.118 82.506h-56.22a12 12 0 0 0-8.486 3.515l-7.89 7.89a12 12 0 0 0-3.514 8.485v56.221a12 12 0 0 0 3.514 8.485l7.89 7.89a12.001 12.001 0 0 0 8.485 3.514h56.221c3.183 0 6.235-1.264 8.486-3.514l7.889-7.89a11.998 11.998 0 0 0 3.515-8.485v-56.221c0-3.183-1.264-6.235-3.515-8.486l-7.889-7.889a12.002 12.002 0 0 0-8.486-3.515Z"/><path fill="url(#l)" fill-opacity=".06" d="M139.118 82.506h-56.22a12 12 0 0 0-8.486 3.515l-7.89 7.89a12 12 0 0 0-3.514 8.485v56.221a12 12 0 0 0 3.514 8.485l7.89 7.89a12.001 12.001 0 0 0 8.485 3.514h56.221c3.183 0 6.235-1.264 8.486-3.514l7.889-7.89a11.998 11.998 0 0 0 3.515-8.485v-56.221c0-3.183-1.264-6.235-3.515-8.486l-7.889-7.889a12.002 12.002 0 0 0-8.486-3.515Z"/><path fill="url(#m)" fill-opacity=".06" d="M139.118 82.506h-56.22a12 12 0 0 0-8.486 3.515l-7.89 7.89a12 12 0 0 0-3.514 8.485v56.221a12 12 0 0 0 3.514 8.485l7.89 7.89a12.001 12.001 0 0 0 8.485 3.514h56.221c3.183 0 6.235-1.264 8.486-3.514l7.889-7.89a11.998 11.998 0 0 0 3.515-8.485v-56.221c0-3.183-1.264-6.235-3.515-8.486l-7.889-7.889a12.002 12.002 0 0 0-8.486-3.515Z"/><path fill="url(#n)" fill-opacity=".08" d="M139.118 82.506h-56.22a12 12 0 0 0-8.486 3.515l-7.89 7.89a12 12 0 0 0-3.514 8.485v56.221a12 12 0 0 0 3.514 8.485l7.89 7.89a12.001 12.001 0 0 0 8.485 3.514h56.221c3.183 0 6.235-1.264 8.486-3.514l7.889-7.89a11.998 11.998 0 0 0 3.515-8.485v-56.221c0-3.183-1.264-6.235-3.515-8.486l-7.889-7.889a12.002 12.002 0 0 0-8.486-3.515Z"/><path stroke="#F2F4F7" stroke-opacity=".48" d="M82.897 83.006h56.221c3.05 0 5.975 1.212 8.132 3.369l7.89 7.89a11.503 11.503 0 0 1 3.368 8.131v56.221c0 3.05-1.212 5.975-3.368 8.132l-7.89 7.889a11.5 11.5 0 0 1-8.132 3.368h-56.22c-3.05 0-5.976-1.211-8.132-3.368l-7.89-7.889a11.501 11.501 0 0 1-3.368-8.132v-56.221a11.5 11.5 0 0 1 3.368-8.132l7.89-7.89a11.5 11.5 0 0 1 8.131-3.368Z"/><g filter="url(#o)"><path fill="#CDD5DF" fill-rule="evenodd" d="M109.999 117.754a2.987 2.987 0 0 1 2.909 0l9.734 5.433a2.986 2.986 0 0 1 1.53 2.607v11.048a2.986 2.986 0 0 1-1.484 2.581l-9.734 5.659a2.987 2.987 0 0 1-3.001 0l-9.734-5.659a2.987 2.987 0 0 1-1.485-2.581v-11.048c0-1.082.586-2.079 1.531-2.607l9.734-5.433Zm-9.145 16.942v2.146c0 .308.164.593.431.748l9.1 5.291v-7.234a2.853 2.853 0 0 1-.367.091c-.871.161-1.695-.044-2.531-.635-.781-.551-1.604-1.458-2.576-2.754-.507-.677-1.062-1.169-1.572-1.454-.516-.288-.903-.323-1.156-.256a.806.806 0 0 0-.247.111c-.044.03-.087.063-.13.101-.144.13-.296.332-.441.645-.291.633-.511 1.656-.511 3.2Zm3.771-5.502c.728.459 1.405 1.114 1.982 1.883.942 1.257 1.603 1.942 2.103 2.294.444.314.697.324.925.283.199-.037.348-.139.478-.36.146-.251.258-.65.273-1.19.004-.17.024-.339.059-.503a2.688 2.688 0 0 1 1.326-1.821l3.992-2.228a6.356 6.356 0 0 1-.819-.897c-.543-.723-1.23-1.246-1.879-1.494-.643-.245-1.158-.196-1.53.041l-.02.013-6.89 3.979Zm13.141-2.76 3.172-1.77-9.063-5.058a.86.86 0 0 0-.843 0l-9.734 5.432a.866.866 0 0 0-.444.756v3.131l.016-.01.014-.009 9.533-5.505c1.084-.679 2.329-.63 3.404-.22 1.077.411 2.073 1.209 2.818 2.202.329.438.729.783 1.127 1.051Zm4.286.035-9.248 5.162a.564.564 0 0 0-.28.386l-.004.02a.71.71 0 0 0-.015.114v10.74l9.117-5.301a.864.864 0 0 0 .43-.748v-10.373Z" clip-rule="evenodd"/></g></g></g><defs><filter id="b" width="5" height="40" x="109" y="97.5" color-interpolation-filters="sRGB" filterUnits="userSpaceOnUse"><feFlood flood-opacity="0" result="BackgroundImageFix"/><feColorMatrix in="SourceAlpha" result="hardAlpha" values="0 0 0 0 0 0 0 0 0 0 0 0 0 0 0 0 0 0 127 0"/><feOffset dy="-1"/><feGaussianBlur stdDeviation="1"/><feComposite in2="hardAlpha" operator="out"/><feColorMatrix values="0 0 0 0 0.180392 0 0 0 0 0.564706 0 0 0 0 0.980392 0 0 0 0.48 0"/><feBlend in2="BackgroundImageFix" result="effect1_dropShadow_14220_8458"/><feBlend in="SourceGraphic" in2="effect1_dropShadow_14220_8458" result="shape"/></filter><filter id="d" width="5" height="40" x="72" y="76.5" color-interpolation-filters="sRGB" filterUnits="userSpaceOnUse"><feFlood flood-opacity="0" result="BackgroundImageFix"/><feColorMatrix in="SourceAlpha" result="hardAlpha" values="0 0 0 0 0 0 0 0 0 0 0 0 0 0 0 0 0 0 127 0"/><feOffset dy="-1"/><feGaussianBlur stdDeviation="1"/><feComposite in2="hardAlpha" operator="out"/><feColorMatrix values="0 0 0 0 0.180392 0 0 0 0 0.564706 0 0 0 0 0.980392 0 0 0 0.48 0"/><feBlend in2="BackgroundImageFix" result="effect1_dropShadow_14220_8458"/><feBlend in="SourceGraphic" in2="effect1_dropShadow_14220_8458" result="shape"/></filter><filter id="f" width="5" height="40" x="144" y="89.5" color-interpolation-filters="sRGB" filterUnits="userSpaceOnUse"><feFlood flood-opacity="0" result="BackgroundImageFix"/><feColorMatrix in="SourceAlpha" result="hardAlpha" values="0 0 0 0 0 0 0 0 0 0 0 0 0 0 0 0 0 0 127 0"/><feOffset dy="-1"/><feGaussianBlur stdDeviation="1"/><feComposite in2="hardAlpha" operator="out"/><feColorMatrix values="0 0 0 0 0.180392 0 0 0 0 0.564706 0 0 0 0 0.980392 0 0 0 0.48 0"/><feBlend in2="BackgroundImageFix" result="effect1_dropShadow_14220_8458"/><feBlend in="SourceGraphic" in2="effect1_dropShadow_14220_8458" result="shape"/></filter><filter id="h" width="171" height="169" x="50" y="70" color-interpolation-filters="sRGB" filterUnits="userSpaceOnUse"><feFlood flood-opacity="0" result="BackgroundImageFix"/><feColorMatrix in="SourceAlpha" result="hardAlpha" values="0 0 0 0 0 0 0 0 0 0 0 0 0 0 0 0 0 0 127 0"/><feOffset dx="2" dy="2"/><feGaussianBlur stdDeviation="3"/><feColorMatrix values="0 0 0 0 0 0 0 0 0 0.192157 0 0 0 0 0.4 0 0 0 0.06 0"/><feBlend in2="BackgroundImageFix" result="effect1_dropShadow_14220_8458"/><feColorMatrix in="SourceAlpha" result="hardAlpha" values="0 0 0 0 0 0 0 0 0 0 0 0 0 0 0 0 0 0 127 0"/><feOffset dx="9" dy="8"/><feGaussianBlur stdDeviation="6"/><feColorMatrix values="0 0 0 0 0 0 0 0 0 0.192157 0 0 0 0 0.4 0 0 0 0.05 0"/><feBlend in2="effect1_dropShadow_14220_8458" result="effect2_dropShadow_14220_8458"/><feColorMatrix in="SourceAlpha" result="hardAlpha" values="0 0 0 0 0 0 0 0 0 0 0 0 0 0 0 0 0 0 127 0"/><feOffset dx="19" dy="18"/><feGaussianBlur stdDeviation="8"/><feColorMatrix values="0 0 0 0 0 0 0 0 0 0.192157 0 0 0 0 0.4 0 0 0 0.03 0"/><feBlend in2="effect2_dropShadow_14220_8458" result="effect3_dropShadow_14220_8458"/><feColorMatrix in="SourceAlpha" result="hardAlpha" values="0 0 0 0 0 0 0 0 0 0 0 0 0 0 0 0 0 0 127 0"/><feOffset dx="34" dy="32"/><feGaussianBlur stdDeviation="9.5"/><feColorMatrix values="0 0 0 0 0 0 0 0 0 0.192157 0 0 0 0 0.4 0 0 0 0.01 0"/><feBlend in2="effect3_dropShadow_14220_8458" result="effect4_dropShadow_14220_8458"/><feBlend in="SourceGraphic" in2="effect4_dropShadow_14220_8458" result="shape"/></filter><filter id="i" width="120.661" height="119.551" x="50.67" y="70.67" color-interpolation-filters="sRGB" filterUnits="userSpaceOnUse"><feFlood flood-opacity="0" result="BackgroundImageFix"/><feBlend in="SourceGraphic" in2="BackgroundImageFix" result="shape"/><feColorMatrix in="SourceAlpha" result="hardAlpha" values="0 0 0 0 0 0 0 0 0 0 0 0 0 0 0 0 0 0 127 0"/><feOffset dx="-3.33" dy="-3.33"/><feGaussianBlur stdDeviation="5.551"/><feComposite in2="hardAlpha" k2="-1" k3="1" operator="arithmetic"/><feColorMatrix values="0 0 0 0 1 0 0 0 0 1 0 0 0 0 1 0 0 0 0.6 0"/><feBlend in2="shape" result="effect1_innerShadow_14220_8458"/><feColorMatrix in="SourceAlpha" result="hardAlpha" values="0 0 0 0 0 0 0 0 0 0 0 0 0 0 0 0 0 0 127 0"/><feOffset dx="2.22" dy="2.22"/><feGaussianBlur stdDeviation="5.551"/><feComposite in2="hardAlpha" k2="-1" k3="1" operator="arithmetic"/><feColorMatrix values="0 0 0 0 0 0 0 0 0 0 0 0 0 0 0 0 0 0 0.08 0"/><feBlend in2="effect1_innerShadow_14220_8458" result="effect2_innerShadow_14220_8458"/><feColorMatrix in="SourceAlpha" result="hardAlpha" values="0 0 0 0 0 0 0 0 0 0 0 0 0 0 0 0 0 0 127 0"/><feOffset dx="-2.22" dy="-2.22"/><feGaussianBlur stdDeviation="5.551"/><feComposite in2="hardAlpha" k2="-1" k3="1" operator="arithmetic"/><feColorMatrix values="0 0 0 0 0 0 0 0 0 0 0 0 0 0 0 0 0 0 0.08 0"/><feBlend in2="effect2_innerShadow_14220_8458" result="effect3_innerShadow_14220_8458"/><feColorMatrix in="SourceAlpha" result="hardAlpha" values="0 0 0 0 0 0 0 0 0 0 0 0 0 0 0 0 0 0 127 0"/><feOffset dx="3.33" dy="-1.665"/><feGaussianBlur stdDeviation="3.885"/><feComposite in2="hardAlpha" k2="-1" k3="1" operator="arithmetic"/><feColorMatrix values="0 0 0 0 0 0 0 0 0 0 0 0 0 0 0 0 0 0 0.08 0"/><feBlend in2="effect3_innerShadow_14220_8458" result="effect4_innerShadow_14220_8458"/></filter><filter id="j" width="118.21" height="118.696" x="57.449" y="82.506" color-interpolation-filters="sRGB" filterUnits="userSpaceOnUse"><feFlood flood-opacity="0" result="BackgroundImageFix"/><feColorMatrix in="SourceAlpha" result="hardAlpha" values="0 0 0 0 0 0 0 0 0 0 0 0 0 0 0 0 0 0 127 0"/><feMorphology in="SourceAlpha" radius="2.22" result="effect1_dropShadow_14220_8458"/><feOffset dx="5.551" dy="4.441"/><feGaussianBlur stdDeviation="2.22"/><feComposite in2="hardAlpha" operator="out"/><feColorMatrix values="0 0 0 0 0.0627451 0 0 0 0 0.0941176 0 0 0 0 0.156863 0 0 0 0.03 0"/><feBlend in2="BackgroundImageFix" result="effect1_dropShadow_14220_8458"/><feColorMatrix in="SourceAlpha" result="hardAlpha" values="0 0 0 0 0 0 0 0 0 0 0 0 0 0 0 0 0 0 127 0"/><feMorphology in="SourceAlpha" radius="2.22" result="effect2_dropShadow_14220_8458"/><feOffset dx="5.551" dy="11.101"/><feGaussianBlur stdDeviation="6.661"/><feComposite in2="hardAlpha" operator="out"/><feColorMatrix values="0 0 0 0 0.0627451 0 0 0 0 0.0941176 0 0 0 0 0.156863 0 0 0 0.24 0"/><feBlend in2="effect1_dropShadow_14220_8458" result="effect2_dropShadow_14220_8458"/><feBlend in="SourceGraphic" in2="effect2_dropShadow_14220_8458" result="shape"/></filter><filter id="o" width="25.438" height="29.11" x="98.734" y="117.376" color-interpolation-filters="sRGB" filterUnits="userSpaceOnUse"><feFlood flood-opacity="0" result="BackgroundImageFix"/><feBlend in="SourceGraphic" in2="BackgroundImageFix" result="shape"/><feColorMatrix in="SourceAlpha" result="hardAlpha" values="0 0 0 0 0 0 0 0 0 0 0 0 0 0 0 0 0 0 127 0"/><feOffset dy="1"/><feGaussianBlur stdDeviation="1"/><feComposite in2="hardAlpha" k2="-1" k3="1" operator="arithmetic"/><feColorMatrix values="0 0 0 0 0 0 0 0 0 0 0 0 0 0 0 0 0 0 0.3 0"/><feBlend in2="shape" result="effect1_innerShadow_14220_8458"/></filter><linearGradient id="c" x1="111" x2="111" y1="101" y2="136" gradientUnits="userSpaceOnUse"><stop stop-color="#2E90FA"/><stop offset=".853" stop-color="#2E90FA" stop-opacity="0"/></linearGradient><linearGradient id="e" x1="74" x2="74" y1="80" y2="115" gradientUnits="userSpaceOnUse"><stop stop-color="#2E90FA"/><stop offset=".853" stop-color="#2E90FA" stop-opacity="0"/></linearGradient><linearGradient id="g" x1="146" x2="146" y1="93" y2="128" gradientUnits="userSpaceOnUse"><stop stop-color="#2E90FA"/><stop offset=".853" stop-color="#2E90FA" stop-opacity="0"/></linearGradient><linearGradient id="m" x1="66.062" x2="151.185" y1="103.916" y2="192.451" gradientUnits="userSpaceOnUse"><stop offset=".364" stop-color="#2E90FA" stop-opacity="0"/><stop offset="1" stop-color="#0098FF"/></linearGradient><radialGradient id="k" cx="0" cy="0" r="1" gradientTransform="matrix(0 30.881 -62.2466 0 111.008 190.013)" gradientUnits="userSpaceOnUse"><stop/><stop offset="1" stop-opacity="0"/></radialGradient><radialGradient id="l" cx="0" cy="0" r="1" gradientTransform="matrix(0 -5.5 40.8774 0 111.008 83.513)" gradientUnits="userSpaceOnUse"><stop/><stop offset="1" stop-opacity="0"/></radialGradient><clipPath id="a"><path fill="#fff" d="M65 100V0h91v100z"/></clipPath><pattern id="n" width="8.439" height="8.439" patternContentUnits="objectBoundingBox"><use xlink:href="#image0_14220_8458" transform="scale(.00824)"/></pattern></defs></svg>