<svg xmlns="http://www.w3.org/2000/svg" width="330" height="364" fill="none"><g filter="url(#a)"><mask id="b" width="286" height="321" x="22" y="0" maskUnits="userSpaceOnUse" style="mask-type:alpha"><path fill="#9FF9FF" d="M156 3c6-3 12-3 18 0l124 69c6 3 10 10 10 16v142c0 6-4 12-9 16l-125 72c-5 3-13 3-18 0L31 246c-5-4-9-10-9-16V88c0-6 4-13 10-16L156 3Z"/></mask><g mask="url(#b)"><path fill="#EAEBEC" d="M6 1h319v319H6z"/><path fill="#F4F4F4" fill-rule="evenodd" d="M179 63c18-11 43 0 59 21 19 25 33 33 45 34 9-3 18-7 23-15l2-9v146l-143 83-143-83v-40c0-33 7-51 20-59l137-78Z" clip-rule="evenodd"/><path fill="url(#c)" fill-rule="evenodd" d="M179 63c18-11 43 0 59 21 19 25 33 33 45 34 9-3 18-7 23-15l2-9v146l-143 83-143-83v-40c0-33 7-51 20-59l137-78Z" clip-rule="evenodd"/><path d="M179 63c18-11 43 0 59 21 19 25 33 33 45 34 9-3 18-7 23-15l2-9v146l-143 83-143-83v-40c0-33 7-51 20-59l137-78Z" clip-rule="evenodd"/><path fill="url(#d)" d="M95 164c-26-35-73-43-73 36v40l143 83 143-83-123-94-12 7c-5 2-8 8-8 14 0 17-2 27-16 30-14 2-30-2-54-33Z"/><path d="M95 164c-26-35-73-43-73 36v40l143 83 143-83-123-94-12 7c-5 2-8 8-8 14 0 17-2 27-16 30-14 2-30-2-54-33Z"/><g style="mix-blend-mode:soft-light"><path fill="#EAEBEC" d="m30 82 127 71c5 2 8 8 8 13v148c0 4 4 7 8 5l135-79V77L165-2 30 73c-3 2-3 7 0 9Z"/><path fill="#fff" fill-opacity=".2" d="m30 82 127 71c5 2 8 8 8 13v148c0 4 4 7 8 5l135-79V77L165-2 30 73c-3 2-3 7 0 9Z"/></g><path fill="#EAEBEC" d="m298 83-125 70c-5 2-8 8-8 13v148c0 4 4 7 8 5l135-79V89c0-5-5-9-10-6Z"/><path fill="url(#e)" d="m298 83-125 70c-5 2-8 8-8 13v148c0 4 4 7 8 5l135-79V89c0-5-5-9-10-6Z"/><path d="m298 83-125 70c-5 2-8 8-8 13v148c0 4 4 7 8 5l135-79V89c0-5-5-9-10-6Z"/></g></g><defs><linearGradient id="c" x1="118.5" x2="168.4" y1="97.4" y2="183.8" gradientUnits="userSpaceOnUse"><stop stop-color="#fff"/><stop offset="0" stop-color="#fff"/><stop offset="1" stop-color="#fff" stop-opacity="0"/></linearGradient><linearGradient id="d" x1="24.8" x2="165" y1="154.3" y2="323.3" gradientUnits="userSpaceOnUse"><stop stop-color="#DFDFDF"/><stop offset="1" stop-color="#fff" stop-opacity="0"/></linearGradient><linearGradient id="e" x1="208.2" x2="272.9" y1="134" y2="262.7" gradientUnits="userSpaceOnUse"><stop offset=".3" stop-color="#fff"/><stop offset="1" stop-color="#fff" stop-opacity="0"/></linearGradient><filter id="a" width="361.6" height="362.6" x="-15.8" y=".4" color-interpolation-filters="sRGB" filterUnits="userSpaceOnUse"><feFlood flood-opacity="0" result="BackgroundImageFix"/><feColorMatrix in="SourceAlpha" result="hardAlpha" values="0 0 0 0 0 0 0 0 0 0 0 0 0 0 0 0 0 0 127 0"/><feMorphology in="SourceAlpha" radius="4.3" result="effect1_dropShadow_14232_3979"/><feOffset dy="8.5"/><feGaussianBlur stdDeviation="4.3"/><feComposite in2="hardAlpha" operator="out"/><feColorMatrix values="0 0 0 0 0.0627451 0 0 0 0 0.0941176 0 0 0 0 0.156863 0 0 0 0.03 0"/><feBlend in2="BackgroundImageFix" result="effect1_dropShadow_14232_3979"/><feColorMatrix in="SourceAlpha" result="hardAlpha" values="0 0 0 0 0 0 0 0 0 0 0 0 0 0 0 0 0 0 127 0"/><feMorphology in="SourceAlpha" radius="4.3" result="effect2_dropShadow_14232_3979"/><feOffset dy="21.3"/><feGaussianBlur stdDeviation="12.8"/><feComposite in2="hardAlpha" operator="out"/><feColorMatrix values="0 0 0 0 0.0627451 0 0 0 0 0.0941176 0 0 0 0 0.156863 0 0 0 0.08 0"/><feBlend in2="effect1_dropShadow_14232_3979" result="effect2_dropShadow_14232_3979"/><feBlend in="SourceGraphic" in2="effect2_dropShadow_14232_3979" result="shape"/></filter></defs></svg>