<svg xmlns="http://www.w3.org/2000/svg" width="1242" height="281" fill="none"><g filter="url(#a)"><mask id="b" width="215" height="237" x="21" y="2" maskUnits="userSpaceOnUse" style="mask-type:alpha"><path fill="#9FF9FF" d="M119 5c6-3 13-3 18 0l89 49c5 3 9 9 9 16v99c0 7-3 13-9 16l-88 51c-6 3-13 3-19 0l-88-51c-6-3-9-9-9-16V70c0-7 3-13 9-16l88-49Z"/></mask><g mask="url(#b)"><path fill="#EAEBEC" d="M9 2h239v237H9z"/><path fill="#F4F4F4" fill-rule="evenodd" d="M139 48c13-8 32 0 44 16 14 18 25 24 34 25 7-2 13-6 17-11l1-7v109l-107 61-106-61v-30c0-25 4-38 14-44l103-58Z" clip-rule="evenodd"/><path fill="url(#c)" fill-rule="evenodd" d="M139 48c13-8 32 0 44 16 14 18 25 24 34 25 7-2 13-6 17-11l1-7v109l-107 61-106-61v-30c0-25 4-38 14-44l103-58Z" clip-rule="evenodd"/><path d="M139 48c13-8 32 0 44 16 14 18 25 24 34 25 7-2 13-6 17-11l1-7v109l-107 61-106-61v-30c0-25 4-38 14-44l103-58Z" clip-rule="evenodd"/><path fill="url(#d)" d="M76 123c-20-26-54-32-54 27v30l106 61 107-61-92-70-7 4c-5 2-8 8-8 13 0 12-2 19-12 20-10 2-22-1-40-24Z"/><path d="M76 123c-20-26-54-32-54 27v30l106 61 107-61-92-70-7 4c-5 2-8 8-8 13 0 12-2 19-12 20-10 2-22-1-40-24Z"/><g style="mix-blend-mode:soft-light"><path fill="#EAEBEC" d="m30 64 90 50c5 2 8 8 8 13v105c0 4 5 7 8 5l99-57V59L128 0 30 54c-4 2-4 8 0 10Z"/><path fill="#fff" fill-opacity=".2" d="m30 64 90 50c5 2 8 8 8 13v105c0 4 5 7 8 5l99-57V59L128 0 30 54c-4 2-4 8 0 10Z"/></g><path fill="#EAEBEC" d="m225 64-89 50c-5 2-8 8-8 13v105c0 4 5 7 8 5l99-57V70c0-5-5-8-10-6Z"/><path fill="url(#e)" d="m225 64-89 50c-5 2-8 8-8 13v105c0 4 5 7 8 5l99-57V70c0-5-5-8-10-6Z"/><path d="m225 64-89 50c-5 2-8 8-8 13v105c0 4 5 7 8 5l99-57V70c0-5-5-8-10-6Z"/></g></g><g filter="url(#f)"><path fill="url(#g)" d="M347 195c-13 0-24-3-35-9s-19-15-25-27c-7-12-10-27-10-44s3-31 10-43a66 66 0 0 1 60-36 65 65 0 0 1 61 36c6 12 9 26 9 43s-3 32-9 44a67 67 0 0 1-61 36Zm0-26c7 0 13-2 18-5 6-4 11-10 14-18 3-7 5-18 5-31s-2-23-5-31c-4-8-8-13-14-17a35 35 0 0 0-36 0c-6 4-10 9-13 17-4 8-5 18-5 31s1 24 5 31c3 8 7 14 13 18 6 3 12 5 18 5Z"/><path d="M347 195c-13 0-24-3-35-9s-19-15-25-27c-7-12-10-27-10-44s3-31 10-43a66 66 0 0 1 60-36 65 65 0 0 1 61 36c6 12 9 26 9 43s-3 32-9 44a67 67 0 0 1-61 36Zm0-26c7 0 13-2 18-5 6-4 11-10 14-18 3-7 5-18 5-31s-2-23-5-31c-4-8-8-13-14-17a35 35 0 0 0-36 0c-6 4-10 9-13 17-4 8-5 18-5 31s1 24 5 31c3 8 7 14 13 18 6 3 12 5 18 5Z"/><path fill="url(#h)" d="M491 195c-12 0-23-2-32-7-10-5-17-12-22-21a61 61 0 0 1 0-61c5-8 12-15 22-20 9-4 20-7 32-7 9 0 17 2 24 4 7 3 13 7 18 11s9 9 11 14c3 6 4 11 4 16v1h-33v-3c-1-4-3-8-7-11-4-4-10-6-17-6-8 0-15 3-21 8-5 6-8 13-8 24 0 10 3 18 8 23 6 6 13 9 21 9s14-2 18-6c4-3 6-8 6-13h33a45 45 0 0 1-14 30c-5 5-11 8-18 11-8 3-16 4-25 4Z"/><path d="M491 195c-12 0-23-2-32-7-10-5-17-12-22-21a61 61 0 0 1 0-61c5-8 12-15 22-20 9-4 20-7 32-7 9 0 17 2 24 4 7 3 13 7 18 11s9 9 11 14c3 6 4 11 4 16v1h-33v-3c-1-4-3-8-7-11-4-4-10-6-17-6-8 0-15 3-21 8-5 6-8 13-8 24 0 10 3 18 8 23 6 6 13 9 21 9s14-2 18-6c4-3 6-8 6-13h33a45 45 0 0 1-14 30c-5 5-11 8-18 11-8 3-16 4-25 4Z"/><path fill="url(#i)" d="M679 157c0 7-3 13-8 18-4 6-11 11-20 15-8 3-19 5-31 5s-23-2-32-7-17-12-22-21c-5-8-7-19-7-30s2-21 8-30c5-9 12-16 21-20 9-5 20-8 32-8 13 0 24 3 33 8s16 11 21 20 7 19 7 31v9h-89c1 7 5 13 10 17 4 4 11 6 20 6 8 0 15-1 19-4s6-6 6-9h32Zm-58-53c-8 0-14 1-19 5s-8 9-10 16h56c-1-5-3-10-8-15-4-4-11-6-19-6Z"/><path d="M679 157c0 7-3 13-8 18-4 6-11 11-20 15-8 3-19 5-31 5s-23-2-32-7-17-12-22-21c-5-8-7-19-7-30s2-21 8-30c5-9 12-16 21-20 9-5 20-8 32-8 13 0 24 3 33 8s16 11 21 20 7 19 7 31v9h-89c1 7 5 13 10 17 4 4 11 6 20 6 8 0 15-1 19-4s6-6 6-9h32Zm-58-53c-8 0-14 1-19 5s-8 9-10 16h56c-1-5-3-10-8-15-4-4-11-6-19-6Z"/><path fill="url(#j)" d="M735 195c-12 0-22-3-30-9s-12-14-12-24c0-8 2-14 7-19 4-5 10-9 17-12l23-5 26-3c5-1 7-3 7-5 0-5-2-8-6-10-4-3-10-4-17-4-15 0-23 6-23 17h-32c0-9 2-17 7-23s12-11 20-14a81 81 0 0 1 56 0c8 3 15 7 20 13s8 14 8 23v48a156 156 0 0 0 1 15 22 22 0 0 0 5 9h-32l-2-3-3-5-1-3c-4 4-9 8-16 10-7 3-15 4-23 4Zm9-25c5 0 10 0 14-2 5-2 8-5 11-9s4-9 4-16v-1a129 129 0 0 1-26 5c-7 0-12 2-16 3-3 2-5 5-5 9 0 8 6 11 18 11Z"/><path d="M735 195c-12 0-22-3-30-9s-12-14-12-24c0-8 2-14 7-19 4-5 10-9 17-12l23-5 26-3c5-1 7-3 7-5 0-5-2-8-6-10-4-3-10-4-17-4-15 0-23 6-23 17h-32c0-9 2-17 7-23s12-11 20-14a81 81 0 0 1 56 0c8 3 15 7 20 13s8 14 8 23v48a156 156 0 0 0 1 15 22 22 0 0 0 5 9h-32l-2-3-3-5-1-3c-4 4-9 8-16 10-7 3-15 4-23 4Zm9-25c5 0 10 0 14-2 5-2 8-5 11-9s4-9 4-16v-1a129 129 0 0 1-26 5c-7 0-12 2-16 3-3 2-5 5-5 9 0 8 6 11 18 11Z"/><path fill="url(#k)" d="M825 192V81h33v17a47 47 0 0 1 39-19c13 0 23 4 30 12s10 19 10 32v69h-33v-60l-1-12-7-10c-3-2-8-3-13-3-8 0-14 3-18 8-5 5-7 11-7 19v58h-33Z"/><path d="M825 192V81h33v17a47 47 0 0 1 39-19c13 0 23 4 30 12s10 19 10 32v69h-33v-60l-1-12-7-10c-3-2-8-3-13-3-8 0-14 3-18 8-5 5-7 11-7 19v58h-33Z"/><path fill="url(#l)" d="M1019 38c16 0 28 3 36 10 7 7 11 16 11 27 0 8-1 14-4 20-3 5-7 9-12 12-4 3-9 5-14 5 5 0 10 1 16 4 5 2 9 6 13 11a51 51 0 0 1 0 44c-3 7-9 12-16 16-8 4-18 5-31 5h-61V38h62Zm-9 25h-21v37h20c8 0 14-1 18-5 5-3 7-8 7-14 0-12-8-18-24-18Zm2 104c8 0 14-2 19-5 4-4 6-9 6-15 0-7-3-13-7-16-5-4-11-6-19-6h-22v42h23Z"/><path d="M1019 38c16 0 28 3 36 10 7 7 11 16 11 27 0 8-1 14-4 20-3 5-7 9-12 12-4 3-9 5-14 5 5 0 10 1 16 4 5 2 9 6 13 11a51 51 0 0 1 0 44c-3 7-9 12-16 16-8 4-18 5-31 5h-61V38h62Zm-9 25h-21v37h20c8 0 14-1 18-5 5-3 7-8 7-14 0-12-8-18-24-18Zm2 104c8 0 14-2 19-5 4-4 6-9 6-15 0-7-3-13-7-16-5-4-11-6-19-6h-22v42h23Z"/><path fill="url(#m)" d="M1103 63c-5 0-9-1-13-4-4-2-6-6-6-11s2-9 6-11c4-3 8-4 13-4s10 1 13 4c4 2 6 6 6 11s-2 9-6 11c-3 3-8 4-13 4Zm-16 129V81h32v111h-32Z"/><path d="M1103 63c-5 0-9-1-13-4-4-2-6-6-6-11s2-9 6-11c4-3 8-4 13-4s10 1 13 4c4 2 6 6 6 11s-2 9-6 11c-3 3-8 4-13 4Zm-16 129V81h32v111h-32Z"/><path fill="url(#n)" d="m1194 195-13-1-13-5c-4-2-7-5-9-9-3-5-4-10-4-17v-57h-26V81h8l12-1c3-1 5-3 5-6l1-15V45h33v36h33v25h-33v48l2 11c1 3 4 5 9 5a32 32 0 0 0 11-2v24l-6 2-10 1Z"/><path d="m1194 195-13-1-13-5c-4-2-7-5-9-9-3-5-4-10-4-17v-57h-26V81h8l12-1c3-1 5-3 5-6l1-15V45h33v36h33v25h-33v48l2 11c1 3 4 5 9 5a32 32 0 0 0 11-2v24l-6 2-10 1Z"/></g><defs><linearGradient id="c" x1="93.5" x2="130.3" y1="73.7" y2="138" gradientUnits="userSpaceOnUse"><stop stop-color="#fff"/><stop offset="0" stop-color="#fff"/><stop offset="1" stop-color="#fff" stop-opacity="0"/></linearGradient><linearGradient id="d" x1="23.5" x2="127.3" y1="115.9" y2="242.1" gradientUnits="userSpaceOnUse"><stop stop-color="#DFDFDF"/><stop offset="1" stop-color="#fff" stop-opacity="0"/></linearGradient><linearGradient id="e" x1="160.6" x2="208.3" y1="100.8" y2="196.6" gradientUnits="userSpaceOnUse"><stop offset=".3" stop-color="#fff"/><stop offset="1" stop-color="#fff" stop-opacity="0"/></linearGradient><linearGradient id="g" x1="748.9" x2="748.9" y1="32.8" y2="194.9" gradientUnits="userSpaceOnUse"><stop offset=".6" stop-color="#fff"/><stop offset="1" stop-color="#EAEAEB"/></linearGradient><linearGradient id="h" x1="748.9" x2="748.9" y1="32.8" y2="194.9" gradientUnits="userSpaceOnUse"><stop offset=".6" stop-color="#fff"/><stop offset="1" stop-color="#EAEAEB"/></linearGradient><linearGradient id="i" x1="748.9" x2="748.9" y1="32.8" y2="194.9" gradientUnits="userSpaceOnUse"><stop offset=".6" stop-color="#fff"/><stop offset="1" stop-color="#EAEAEB"/></linearGradient><linearGradient id="j" x1="748.9" x2="748.9" y1="32.8" y2="194.9" gradientUnits="userSpaceOnUse"><stop offset=".6" stop-color="#fff"/><stop offset="1" stop-color="#EAEAEB"/></linearGradient><linearGradient id="k" x1="748.9" x2="748.9" y1="32.8" y2="194.9" gradientUnits="userSpaceOnUse"><stop offset=".6" stop-color="#fff"/><stop offset="1" stop-color="#EAEAEB"/></linearGradient><linearGradient id="l" x1="748.9" x2="748.9" y1="32.8" y2="194.9" gradientUnits="userSpaceOnUse"><stop offset=".6" stop-color="#fff"/><stop offset="1" stop-color="#EAEAEB"/></linearGradient><linearGradient id="m" x1="748.9" x2="748.9" y1="32.8" y2="194.9" gradientUnits="userSpaceOnUse"><stop offset=".6" stop-color="#fff"/><stop offset="1" stop-color="#EAEAEB"/></linearGradient><linearGradient id="n" x1="748.9" x2="748.9" y1="32.8" y2="194.9" gradientUnits="userSpaceOnUse"><stop offset=".6" stop-color="#fff"/><stop offset="1" stop-color="#EAEAEB"/></linearGradient><filter id="a" width="281.1" height="279.1" x="-12.2" y="2.3" color-interpolation-filters="sRGB" filterUnits="userSpaceOnUse"><feFlood flood-opacity="0" result="BackgroundImageFix"/><feColorMatrix in="SourceAlpha" result="hardAlpha" values="0 0 0 0 0 0 0 0 0 0 0 0 0 0 0 0 0 0 127 0"/><feMorphology in="SourceAlpha" radius="4.3" result="effect1_dropShadow_14238_8104"/><feOffset dy="8.5"/><feGaussianBlur stdDeviation="4.3"/><feComposite in2="hardAlpha" operator="out"/><feColorMatrix values="0 0 0 0 0.0627451 0 0 0 0 0.0941176 0 0 0 0 0.156863 0 0 0 0.03 0"/><feBlend in2="BackgroundImageFix" result="effect1_dropShadow_14238_8104"/><feColorMatrix in="SourceAlpha" result="hardAlpha" values="0 0 0 0 0 0 0 0 0 0 0 0 0 0 0 0 0 0 127 0"/><feMorphology in="SourceAlpha" radius="4.3" result="effect2_dropShadow_14238_8104"/><feOffset dy="21.3"/><feGaussianBlur stdDeviation="12.8"/><feComposite in2="hardAlpha" operator="out"/><feColorMatrix values="0 0 0 0 0.0627451 0 0 0 0 0.0941176 0 0 0 0 0.156863 0 0 0 0.08 0"/><feBlend in2="effect1_dropShadow_14238_8104" result="effect2_dropShadow_14238_8104"/><feBlend in="SourceGraphic" in2="effect2_dropShadow_14238_8104" result="shape"/></filter><filter id="f" width="986.1" height="204.8" x="255.9" y="32.8" color-interpolation-filters="sRGB" filterUnits="userSpaceOnUse"><feFlood flood-opacity="0" result="BackgroundImageFix"/><feColorMatrix in="SourceAlpha" result="hardAlpha" values="0 0 0 0 0 0 0 0 0 0 0 0 0 0 0 0 0 0 127 0"/><feMorphology in="SourceAlpha" radius="4.3" result="effect1_dropShadow_14238_8104"/><feOffset dy="8.5"/><feGaussianBlur stdDeviation="4.3"/><feComposite in2="hardAlpha" operator="out"/><feColorMatrix values="0 0 0 0 0.0627451 0 0 0 0 0.0941176 0 0 0 0 0.156863 0 0 0 0.03 0"/><feBlend in2="BackgroundImageFix" result="effect1_dropShadow_14238_8104"/><feColorMatrix in="SourceAlpha" result="hardAlpha" values="0 0 0 0 0 0 0 0 0 0 0 0 0 0 0 0 0 0 127 0"/><feMorphology in="SourceAlpha" radius="4.3" result="effect2_dropShadow_14238_8104"/><feOffset dy="21.3"/><feGaussianBlur stdDeviation="12.8"/><feComposite in2="hardAlpha" operator="out"/><feColorMatrix values="0 0 0 0 0.0627451 0 0 0 0 0.0941176 0 0 0 0 0.156863 0 0 0 0.08 0"/><feBlend in2="effect1_dropShadow_14238_8104" result="effect2_dropShadow_14238_8104"/><feBlend in="SourceGraphic" in2="effect2_dropShadow_14238_8104" result="shape"/><feColorMatrix in="SourceAlpha" result="hardAlpha" values="0 0 0 0 0 0 0 0 0 0 0 0 0 0 0 0 0 0 127 0"/><feOffset dy="4"/><feGaussianBlur stdDeviation="3.5"/><feComposite in2="hardAlpha" k2="-1" k3="1" operator="arithmetic"/><feColorMatrix values="0 0 0 0 0 0 0 0 0 0 0 0 0 0 0 0 0 0 0.02 0"/><feBlend in2="shape" result="effect3_innerShadow_14238_8104"/><feColorMatrix in="SourceAlpha" result="hardAlpha" values="0 0 0 0 0 0 0 0 0 0 0 0 0 0 0 0 0 0 127 0"/><feOffset dx="-4" dy="4"/><feGaussianBlur stdDeviation="5"/><feComposite in2="hardAlpha" k2="-1" k3="1" operator="arithmetic"/><feColorMatrix values="0 0 0 0 0 0 0 0 0 0.94 0 0 0 0 1 0 0 0 0.02 0"/><feBlend in2="effect3_innerShadow_14238_8104" result="effect4_innerShadow_14238_8104"/></filter></defs></svg>