<svg width="36" height="36" viewBox="0 0 36 36" fill="none" xmlns="http://www.w3.org/2000/svg">
<mask id="mask0_1548_3710" style="mask-type:alpha" maskUnits="userSpaceOnUse" x="1" y="0" width="34" height="36">
<path d="M16.7024 0.349249C17.5089 -0.1009 18.4911 -0.100899 19.2976 0.349249L32.7601 7.8632C33.6028 8.33354 34.125 9.22304 34.125 10.1881V25.4682C34.125 26.4165 33.6206 27.2933 32.8007 27.7699L19.3382 35.597C18.5109 36.078 17.4891 36.078 16.6618 35.597L3.19927 27.7699C2.37943 27.2933 1.875 26.4165 1.875 25.4682V10.1881C1.875 9.22304 2.39721 8.33354 3.23989 7.8632L16.7024 0.349249Z" fill="#B3D2FF"/>
</mask>
<g mask="url(#mask0_1548_3710)">
<rect width="36" height="36" fill="#9ECCFA"/>
<path fill-rule="evenodd" clip-rule="evenodd" d="M19.6289 6.9752C21.646 5.74464 24.4849 7.02155 26.25 9.37496C28.3589 12.1868 29.9786 13.0497 31.3191 13.1427C32.3772 12.9026 33.3194 12.3595 33.9526 11.5033C34.125 10.9648 34.125 10.5 34.125 10.5L34.125 11.25L34.125 26.25L34.125 27L18 36.3749L1.875 27V22.5C1.875 18.75 2.625 16.6875 4.13585 15.75L19.6275 6.97496C19.6275 6.97496 19.628 6.97504 19.6289 6.9752Z" fill="#0659FF"/>
<path fill-rule="evenodd" clip-rule="evenodd" d="M19.6289 6.9752C21.646 5.74464 24.4849 7.02155 26.25 9.37496C28.3589 12.1868 29.9786 13.0497 31.3191 13.1427C32.3772 12.9026 33.3194 12.3595 33.9526 11.5033C34.125 10.9648 34.125 10.5 34.125 10.5L34.125 11.25L34.125 26.25L34.125 27L18 36.3749L1.875 27V22.5C1.875 18.75 2.625 16.6875 4.13585 15.75L19.6275 6.97496C19.6275 6.97496 19.628 6.97504 19.6289 6.9752Z" fill="url(#paint0_linear_1548_3710)"/>
<path d="M10.125 18.375C7.15018 14.4085 1.875 13.5 1.875 22.5V27L18 36.375L34.125 27L20.25 16.3875L19.1657 16.9838C18.4467 17.3793 18.0116 18.1354 17.9887 18.9556C17.9383 20.7599 17.664 21.8079 16.1684 22.0832C14.6478 22.363 12.7716 21.9037 10.125 18.375Z" fill="#0F2CBD"/>
<g style="mix-blend-mode:soft-light">
<path d="M3.04836 9.2799L16.8466 16.9812C17.5587 17.3787 18 18.1304 18 18.9459V35.0714C18 35.6498 18.627 36.0105 19.127 35.7198L34.125 27V8.625L18 -0.375L3.04836 7.9701C2.53573 8.25622 2.53572 8.99378 3.04836 9.2799Z" fill="white"/>
<path d="M3.04836 9.2799L16.8466 16.9812C17.5587 17.3787 18 18.1304 18 18.9459V35.0714C18 35.6498 18.627 36.0105 19.127 35.7198L34.125 27V8.625L18 -0.375L3.04836 7.9701C2.53573 8.25622 2.53572 8.99378 3.04836 9.2799Z" fill="#002BFF" fill-opacity="0.2"/>
</g>
<path d="M32.7306 9.40327L19.1534 16.9812C18.4413 17.3787 18 18.1304 18 18.9459V35.0714C18 35.6498 18.627 36.0105 19.127 35.7198L34.125 27V10.2219C34.125 9.50625 33.3555 9.05449 32.7306 9.40327Z" fill="#0F2CBD"/>
<path d="M32.7306 9.40327L19.1534 16.9812C18.4413 17.3787 18 18.1304 18 18.9459V35.0714C18 35.6498 18.627 36.0105 19.127 35.7198L34.125 27V10.2219C34.125 9.50625 33.3555 9.05449 32.7306 9.40327Z" fill="url(#paint1_linear_1548_3710)"/>
</g>
<defs>
<linearGradient id="paint0_linear_1548_3710" x1="12.75" y1="10.875" x2="18.375" y2="20.625" gradientUnits="userSpaceOnUse">
<stop stop-color="#33BBFF"/>
<stop offset="0.0001" stop-color="#32B9FE" stop-opacity="0.984375"/>
<stop offset="1" stop-color="#33BBFF" stop-opacity="0"/>
</linearGradient>
<linearGradient id="paint1_linear_1548_3710" x1="22.875" y1="15" x2="30.1776" y2="29.5375" gradientUnits="userSpaceOnUse">
<stop stop-color="#33BBFF"/>
<stop offset="0.9999" stop-color="#3355FF" stop-opacity="0.01"/>
<stop offset="1" stop-color="#3377FF" stop-opacity="0"/>
</linearGradient>
</defs>
</svg>
