<svg width="555" height="556" viewBox="0 0 555 556" fill="none" xmlns="http://www.w3.org/2000/svg">
<mask id="mask0_13223_7705" style="mask-type:alpha" maskUnits="userSpaceOnUse" x="0" y="0" width="555" height="556">
<rect width="555" height="556" fill="#D9D9D9"/>
</mask>
<g mask="url(#mask0_13223_7705)">
<path d="M-1403 1122L166 -90" stroke="#CBDFFF" stroke-width="8"/>
<path d="M-1292 1103L278 -109" stroke="#CBDFFF" stroke-width="8"/>
<path d="M-1218 1104L354 -108" stroke="#CBDFFF" stroke-width="8"/>
<path d="M-1138 1112L432 -100" stroke="#CBDFFF" stroke-width="8"/>
<path d="M-1042 1098L526 -114" stroke="#CBDFFF" stroke-width="8"/>
<path d="M-964 1105L606 -107" stroke="#CBDFFF" stroke-width="8"/>
<path d="M-901 1115L669 -97" stroke="#CBDFFF" stroke-width="8"/>
<path d="M-817 1098L753 -114" stroke="#CBDFFF" stroke-width="8"/>
<path d="M-717 1088L852 -124" stroke="#CBDFFF" stroke-width="8"/>
<path d="M-643.5 1091L925.5 -121" stroke="#CBDFFF" stroke-width="8"/>
<path d="M-553 1088L1018 -124" stroke="#CBDFFF" stroke-width="8"/>
<path d="M-479 1091L1090 -121" stroke="#CBDFFF" stroke-width="8"/>
<path d="M-384 1086L1185 -126" stroke="#CBDFFF" stroke-width="8"/>
<path d="M-306 1084L1265 -128" stroke="#CBDFFF" stroke-width="8"/>
<path d="M-238 1079L1333 -133" stroke="#CBDFFF" stroke-width="8"/>
<path d="M-147 1076L1423 -136" stroke="#CBDFFF" stroke-width="8"/>
</g>
</svg>
