<svg width="132" height="38" viewBox="0 0 132 38" fill="none" xmlns="http://www.w3.org/2000/svg">
<g opacity="0.8">
<path d="M19.6916 32.8022C18.4032 31.6235 18.0271 29.1471 18.5639 27.353C19.4946 28.4841 20.7842 28.8425 22.12 29.0446C24.1822 29.3568 26.2074 29.2401 28.123 28.2969C28.3421 28.189 28.5447 28.0451 28.7841 27.8999C28.9639 28.4216 29.0106 28.9484 28.9479 29.4847C28.7952 30.7907 28.1458 31.7996 27.1129 32.5642C26.6998 32.8701 26.2628 33.1435 25.8362 33.4321C24.5256 34.3183 24.1711 35.3577 24.6635 36.8698C24.6752 36.9066 24.6857 36.9434 24.7122 37.0333C24.043 36.7336 23.5543 36.2972 23.1819 35.7236C22.7885 35.118 22.6014 34.4481 22.5915 33.7235C22.5866 33.3707 22.5866 33.0148 22.5392 32.6672C22.4235 31.8196 22.0258 31.44 21.2767 31.418C20.5078 31.3957 19.8997 31.8712 19.7384 32.6204C19.7261 32.6778 19.7082 32.7346 19.6904 32.8013L19.6916 32.8022Z" fill="#98A2B3"/>
<path d="M12.3389 27.0535C12.3389 27.0535 16.154 25.1937 19.9797 25.1937L22.8642 16.26C22.9722 15.828 23.2875 15.5344 23.6435 15.5344C23.9995 15.5344 24.3148 15.828 24.4228 16.26L27.3073 25.1937C31.8383 25.1937 34.9483 27.0535 34.9483 27.0535C34.9483 27.0535 28.4679 9.38684 28.4552 9.35139C28.2692 8.82908 27.9553 8.49268 27.532 8.49268H19.7558C19.3324 8.49268 19.0311 8.82908 18.8325 9.35139C18.8185 9.38618 12.3389 27.0535 12.3389 27.0535Z" fill="#667085"/>
<path d="M52.5633 21.3703C52.5633 22.9357 50.6175 23.8707 47.9233 23.8707C46.1697 23.8707 45.5497 23.4358 45.5497 22.5226C45.5497 21.5659 46.3194 21.1093 48.0727 21.1093C49.6552 21.1093 51.0022 21.1311 52.5633 21.3268V21.3703ZM52.5847 19.4351C51.6225 19.2177 50.1683 19.0872 48.4363 19.0872C43.3899 19.0872 41.0166 20.2831 41.0166 23.0662C41.0166 25.958 42.6416 27.067 46.4049 27.067C49.5911 27.067 51.7505 26.2624 52.5419 24.2838H52.67C52.6486 24.7622 52.6272 25.2405 52.6272 25.6101C52.6272 26.6321 52.7983 26.719 53.6322 26.719H57.5666C57.3528 26.1102 57.2244 24.3925 57.2244 22.914C57.2244 21.3268 57.2886 20.1309 57.2886 18.5219C57.2886 15.2387 55.3216 13.1514 49.1633 13.1514C46.5119 13.1514 43.5611 13.608 41.316 14.282C41.5297 15.1735 41.8291 16.9781 41.9788 18.1523C43.9247 17.2391 46.683 16.8477 48.8213 16.8477C51.7719 16.8477 52.5847 17.5217 52.5847 18.8915V19.4351Z" fill="#667085"/>
<path d="M63.3793 22.2832C62.8448 22.3484 62.1176 22.3484 61.3693 22.3484C60.5782 22.3484 59.8512 22.3267 59.3593 22.2614C59.3593 22.4354 59.3379 22.6311 59.3379 22.805C59.3379 25.5229 61.1126 27.1101 67.3565 27.1101C73.2365 27.1101 75.1396 25.5447 75.1396 22.7833C75.1396 20.1741 73.8782 18.8913 68.2974 18.6086C63.9565 18.4129 63.5718 17.9346 63.5718 17.391C63.5718 16.7605 64.1276 16.4343 67.0357 16.4343C70.0507 16.4343 70.8632 16.8474 70.8632 17.7172V17.9128C71.2907 17.8911 72.0607 17.8694 72.8518 17.8694C73.6002 17.8694 74.4126 17.8911 74.8832 17.9346C74.8832 17.7389 74.9046 17.565 74.9046 17.4128C74.9046 14.2165 72.2529 13.1729 67.1212 13.1729C61.3479 13.1729 59.4021 14.5862 59.4021 17.3475C59.4021 19.8262 60.9632 21.37 66.5012 21.6092C70.5851 21.7396 71.0343 22.1962 71.0343 22.8268C71.0343 23.5008 70.3712 23.8052 67.5062 23.8052C64.2132 23.8052 63.3793 23.3486 63.3793 22.4137V22.2832Z" fill="#667085"/>
<path d="M82.1972 10.8252C80.6364 12.282 77.8352 13.7388 76.2744 14.1301C76.2958 14.9346 76.2958 16.4132 76.2958 17.2177L77.7283 17.2394C77.7069 18.7832 77.6855 20.6531 77.6855 21.8924C77.6855 24.7842 79.2036 26.9586 83.9291 26.9586C85.9178 26.9586 87.2436 26.7411 88.89 26.3932C88.7189 25.3278 88.5264 23.6971 88.4622 22.4577C87.4786 22.7839 86.2386 22.9578 84.87 22.9578C82.9669 22.9578 82.1972 22.436 82.1972 20.9357C82.1972 19.6312 82.1972 18.4135 82.2186 17.2829C84.6564 17.3046 87.0939 17.3481 88.5264 17.3916C88.505 16.261 88.5478 14.6302 88.6119 13.5431C86.5378 13.5866 84.2072 13.6083 82.2828 13.6083C82.3041 12.6516 82.3255 11.7384 82.3469 10.8252H82.1972Z" fill="#667085"/>
<path d="M94.9683 16.5647C94.9897 15.4341 95.0111 14.4774 95.0324 13.5424H90.7344C90.7985 15.4124 90.7985 17.3258 90.7985 20.1306C90.7985 22.9355 90.7772 24.8706 90.7344 26.7187H95.6524C95.5669 25.4142 95.5455 23.2181 95.5455 21.3482C95.5455 18.3912 96.743 17.5432 99.4586 17.5432C100.72 17.5432 101.618 17.6954 102.409 17.9781C102.431 16.8692 102.645 14.7166 102.773 13.7599C101.96 13.5207 101.062 13.3685 99.9716 13.3685C97.6411 13.3468 95.9305 14.3035 95.1394 16.5865L94.9683 16.5647Z" fill="#667085"/>
<path d="M116.378 20.0449C116.378 22.4149 114.667 23.5238 111.973 23.5238C109.3 23.5238 107.59 22.4801 107.59 20.0449C107.59 17.6097 109.322 16.6965 111.973 16.6965C114.646 16.6965 116.378 17.6749 116.378 20.0449ZM120.847 19.9362C120.847 15.2179 117.169 13.1089 111.973 13.1089C106.756 13.1089 103.206 15.2179 103.206 19.9362C103.206 24.6327 106.521 27.155 111.952 27.155C117.426 27.155 120.847 24.6327 120.847 19.9362Z" fill="#667085"/>
</g>
</svg>
