<svg width="92" height="28" viewBox="0 0 92 28" fill="none" xmlns="http://www.w3.org/2000/svg">
<g opacity="0.8" clip-path="url(#clip0_11802_32300)">
<path d="M13.8857 18.1021C16.1593 18.1021 18.0024 16.2657 18.0024 14.0005C18.0024 11.7353 16.1593 9.89893 13.8857 9.89893C11.6121 9.89893 9.76904 11.7353 9.76904 14.0005C9.76904 16.2657 11.6121 18.1021 13.8857 18.1021Z" fill="#667085"/>
<path d="M21.3032 23.7112C21.6534 24.0602 21.6183 24.6378 21.2067 24.9126C19.1129 26.31 16.5944 27.1249 13.8849 27.1249C11.1754 27.1249 8.65697 26.31 6.56307 24.9126C6.15155 24.6378 6.11637 24.0602 6.46663 23.7112L9.47503 20.7137C9.74695 20.4429 10.1687 20.4001 10.511 20.5748C11.5229 21.0913 12.6698 21.3827 13.8849 21.3827C15.1001 21.3827 16.2469 21.0913 17.2589 20.5748C17.6011 20.4001 18.0228 20.4429 18.2948 20.7137L21.3032 23.7112Z" fill="#667085"/>
<path d="M21.2076 3.08738C21.6192 3.36203 21.6543 3.93976 21.304 4.28873L18.2957 7.28611C18.0237 7.55701 17.6019 7.5998 17.2597 7.42512C16.2476 6.90861 15.1009 6.61719 13.8857 6.61719C9.79331 6.61719 6.47573 9.92259 6.47573 14C6.47573 15.2107 6.76823 16.3533 7.28664 17.3616C7.46197 17.7026 7.41902 18.1227 7.14712 18.3937L4.1387 21.3911C3.78845 21.74 3.20859 21.705 2.93292 21.295C1.53041 19.2087 0.712402 16.6995 0.712402 14C0.712402 6.75127 6.61031 0.875 13.8857 0.875C16.5953 0.875 19.1137 1.69 21.2076 3.08738Z" fill="#98A2B3"/>
<path fill-rule="evenodd" clip-rule="evenodd" d="M43.7316 3.54102C43.7316 3.42775 43.8237 3.33594 43.9374 3.33594H47.025C47.1386 3.33594 47.2308 3.42775 47.2308 3.54102V24.459C47.2308 24.5722 47.1386 24.6641 47.025 24.6641H43.9374C43.8237 24.6641 43.7316 24.5722 43.7316 24.459V3.54102ZM39.3743 20.2272C39.2923 20.1566 39.1697 20.1619 39.0909 20.236C38.6097 20.6885 38.0461 21.0506 37.4284 21.303C36.751 21.5803 36.0227 21.7198 35.2881 21.7133C34.6677 21.7315 34.0501 21.6258 33.4732 21.4025C32.8964 21.1792 32.3724 20.8432 31.9337 20.4151C31.1368 19.6045 30.6783 18.4473 30.6783 17.0679C30.6783 14.3064 32.5222 12.4176 35.2881 12.4176C36.03 12.4074 36.7649 12.5571 37.4406 12.8558C38.0532 13.1268 38.6032 13.5141 39.0589 13.9946C39.1367 14.0768 39.2661 14.0863 39.3521 14.0123L41.4364 12.2153C41.5216 12.1419 41.5318 12.0137 41.4567 11.9301C39.8889 10.1845 37.4327 9.28321 35.0969 9.28321C30.3939 9.28321 27.0591 12.4439 27.0591 17.0941C27.0591 19.3941 27.8878 21.3307 29.2855 22.6982C30.6832 24.0658 32.6743 24.8691 34.9718 24.8691C37.8526 24.8691 40.1713 23.7685 41.5306 22.3565C41.6104 22.2737 41.6016 22.1419 41.5144 22.0668L39.3743 20.2272ZM64.2388 18.0915C64.2272 18.1942 64.1396 18.271 64.0358 18.271H53.2201C53.0887 18.271 52.9908 18.3925 53.025 18.5188C53.5631 20.5062 55.1675 21.7087 57.3572 21.7087C58.0953 21.7242 58.827 21.5728 59.4956 21.2664C60.1187 20.981 60.6716 20.568 61.117 20.0562C61.1709 19.9943 61.2647 19.9851 61.3278 20.0376L63.5023 21.9239C63.5855 21.996 63.5971 22.121 63.5257 22.2049C62.2129 23.7479 60.0858 24.8691 57.1669 24.8691C52.6764 24.8691 49.289 21.7709 49.289 17.0638C49.289 14.7544 50.0871 12.8179 51.417 11.4505C52.1191 10.7474 52.9608 10.1925 53.8899 9.81995C54.8192 9.44746 55.8165 9.26526 56.8203 9.28459C61.3717 9.28459 64.3149 12.4737 64.3149 16.8773C64.3092 17.283 64.2837 17.6883 64.2388 18.0915ZM53.09 15.2336C53.0518 15.3602 53.1499 15.4834 53.2826 15.4834H60.4741C60.607 15.4834 60.7053 15.3594 60.6684 15.2322C60.1782 13.542 58.9346 12.414 57.0032 12.414C56.4352 12.396 55.8699 12.4985 55.3459 12.7142C54.822 12.9301 54.3517 13.2541 53.9674 13.6642C53.5632 14.1208 53.2645 14.6561 53.09 15.2336ZM75.016 9.28545C75.1306 9.28422 75.2241 9.37638 75.2241 9.49053V12.9347C75.2241 13.0541 75.1222 13.1481 75.0026 13.1393C74.6691 13.1147 74.3536 13.0937 74.1468 13.0937C71.4536 13.0937 69.8725 14.9823 69.8725 17.4614V24.459C69.8725 24.5722 69.7803 24.6641 69.6665 24.6641H66.5791C66.4654 24.6641 66.3732 24.5722 66.3732 24.459V9.70344C66.3732 9.59019 66.4654 9.49837 66.5791 9.49837H69.6665C69.7803 9.49837 69.8725 9.59019 69.8725 9.70344V11.7745C69.8725 11.7862 69.8818 11.7957 69.8937 11.7957C69.9003 11.7957 69.9067 11.7925 69.9107 11.7871C71.1177 10.1813 72.899 9.28801 74.7809 9.28801L75.016 9.28545ZM83.3794 18.3057C83.392 18.2922 83.4097 18.2846 83.4283 18.2846C83.4513 18.2846 83.4727 18.2964 83.4848 18.3159L87.3888 24.5674C87.4263 24.6275 87.4925 24.6641 87.5636 24.6641H91.0733C91.2347 24.6641 91.3333 24.4876 91.2484 24.351L85.8925 15.7411C85.844 15.6634 85.8533 15.5632 85.9149 15.4954L91.0752 9.82294C91.1951 9.69112 91.1013 9.48013 90.9227 9.48013H87.2612C87.2035 9.48013 87.1485 9.50423 87.1094 9.54657L81.1391 16.0307C81.0122 16.1685 80.7815 16.0791 80.7815 15.892V3.54101C80.7815 3.42775 80.6894 3.33594 80.5757 3.33594H77.4883C77.3746 3.33594 77.2824 3.42775 77.2824 3.54101V24.459C77.2824 24.5722 77.3746 24.6641 77.4883 24.6641H80.5757C80.6894 24.6641 80.7815 24.5722 80.7815 24.459V21.1673C80.7815 21.1155 80.8013 21.0655 80.8367 21.0276L83.3794 18.3057Z" fill="#667085"/>
</g>
<defs>
<clipPath id="clip0_11802_32300">
<rect width="90.75" height="26.25" fill="white" transform="translate(0.712402 0.875)"/>
</clipPath>
</defs>
</svg>
