<svg width="121" height="42" viewBox="0 0 121 42" fill="none" xmlns="http://www.w3.org/2000/svg">
<g opacity="0.8">
<rect width="120" height="36" transform="translate(0.774902 3)" fill="white"/>
<path fill-rule="evenodd" clip-rule="evenodd" d="M17.941 12.187L13.515 4.59424V16.276H5.36963L5.6862 16.9092C5.73713 17.011 5.79009 17.1187 5.84534 17.2312C6.36256 18.2835 7.08286 19.7491 8.24989 20.6764C8.91248 21.2028 9.7247 21.5637 10.7221 21.5928C11.5459 21.6168 12.4703 21.4138 13.515 20.9271V32.5533L13.5504 32.6358C14.2659 34.3053 16.7073 37.2759 21.8275 37.2759C22.9652 37.2759 24.5619 37.0725 26.0553 36.3948C27.5561 35.7136 28.9699 34.5435 29.6758 32.6139L29.7469 32.4199L28.2806 29.924C28.612 29.6129 28.8275 29.1699 28.8275 28.6519V25.7959C28.8275 24.9498 28.2526 24.3038 27.5365 24.1061C27.6762 23.9711 27.814 23.8285 27.9497 23.678C28.8282 22.7017 29.956 22.3692 31.1896 22.304C31.8091 22.2712 32.4452 22.3069 33.0805 22.3594C33.2775 22.3758 33.4768 22.3939 33.6757 22.4121C34.1053 22.4512 34.533 22.4906 34.9313 22.5099C35.6409 22.5442 36.2073 22.4379 36.6542 22.2132C37.1063 21.9862 37.4058 21.6531 37.6018 21.2886C37.9155 20.7049 37.9658 20.0099 37.9966 19.5847C38.0021 19.5077 38.0071 19.4394 38.0128 19.3824L38.0557 18.9574L29.8465 17.9312C29.5144 17.8897 29.265 17.6073 29.265 17.2726C29.265 16.9316 29.5234 16.6461 29.8626 16.6122L38.015 15.7969V15.401C38.015 13.97 37.6543 13.0391 36.9442 12.4967C36.2626 11.9759 35.3607 11.901 34.515 11.901H20.0775C19.2951 11.901 18.5998 11.9967 17.941 12.187ZM20.8738 26.2743L18.77 25.041C18.1867 24.6991 17.4525 25.1198 17.4525 25.7959V28.6519C17.4525 29.3281 18.1867 29.7487 18.77 29.4068L20.6725 28.2914C20.5709 28.0392 20.515 27.7638 20.515 27.475C20.515 27.0316 20.647 26.6191 20.8738 26.2743ZM24.7325 28.2916L26.635 29.4068C27.2184 29.7487 27.9525 29.3281 27.9525 28.6519V25.7959C27.9525 25.1198 27.2184 24.6991 26.635 25.041L24.5313 26.2743C24.7581 26.6191 24.89 27.0316 24.89 27.475C24.89 27.7638 24.8342 28.0392 24.7325 28.2916ZM22.7025 16.7135C22.4153 16.7135 22.1308 16.7701 21.8654 16.88C21.6 16.9899 21.3589 17.1511 21.1557 17.3542C20.9526 17.5573 20.7915 17.7985 20.6815 18.0639C20.5716 18.3293 20.515 18.6137 20.515 18.901H21.39C21.39 18.7286 21.424 18.558 21.4899 18.3987C21.5559 18.2395 21.6526 18.0948 21.7744 17.9729C21.8963 17.8511 22.041 17.7544 22.2003 17.6884C22.3595 17.6224 22.5302 17.5885 22.7025 17.5885C22.8749 17.5885 23.0455 17.6224 23.2048 17.6884C23.364 17.7544 23.5088 17.8511 23.6307 17.9729C23.7525 18.0948 23.8492 18.2395 23.915 18.3987C23.9811 18.558 24.015 18.7286 24.015 18.901H24.89C24.89 18.6137 24.8334 18.3293 24.7235 18.0639C24.6135 17.7985 24.4525 17.5573 24.2493 17.3542C24.0463 17.1511 23.805 16.9899 23.5397 16.88C23.2743 16.7701 22.9897 16.7135 22.7025 16.7135ZM21.39 27.475C21.39 26.7503 21.9777 26.1625 22.7025 26.1625C23.4275 26.1625 24.015 26.7503 24.015 27.475C24.015 28.2 23.4275 28.7876 22.7025 28.7876C21.9777 28.7876 21.39 28.2 21.39 27.475Z" fill="#667085"/>
<path d="M12.6397 28.3229V22.2939L7.22021 27.1714L7.49216 27.4952C8.48525 28.6773 9.53328 29.073 10.4576 29.073C11.3582 29.073 12.0773 28.6976 12.4448 28.4526L12.6397 28.3229Z" fill="#667085"/>
<path d="M46.6869 17.9746V9.5746H49.8069C50.3989 9.5746 50.9229 9.6946 51.3789 9.9346C51.8349 10.1666 52.1909 10.4946 52.4469 10.9186C52.7029 11.3346 52.8309 11.8186 52.8309 12.3706C52.8309 12.9146 52.7069 13.3986 52.4589 13.8226C52.2109 14.2466 51.8709 14.5826 51.4389 14.8306C51.0069 15.0706 50.5069 15.1906 49.9389 15.1906H48.3309V17.9746H46.6869ZM48.3309 13.6786H49.9029C50.2709 13.6786 50.5709 13.5586 50.8029 13.3186C51.0429 13.0706 51.1629 12.7546 51.1629 12.3706C51.1629 11.9866 51.0309 11.6746 50.7669 11.4346C50.5109 11.1946 50.1789 11.0746 49.7709 11.0746H48.3309V13.6786ZM53.6894 17.9746V9.5746H55.2734V17.9746H53.6894ZM60.2665 17.9746L60.2185 16.7626V14.9386C60.2185 14.5786 60.1785 14.2706 60.0985 14.0146C60.0265 13.7586 59.9065 13.5626 59.7385 13.4266C59.5785 13.2826 59.3585 13.2106 59.0785 13.2106C58.8225 13.2106 58.5905 13.2666 58.3825 13.3786C58.1745 13.4906 57.9985 13.6626 57.8545 13.8946L56.4625 13.4146C56.5745 13.1586 56.7385 12.9106 56.9545 12.6706C57.1705 12.4226 57.4505 12.2226 57.7945 12.0706C58.1465 11.9106 58.5745 11.8306 59.0785 11.8306C59.6865 11.8306 60.1905 11.9466 60.5905 12.1786C60.9985 12.4106 61.2985 12.7386 61.4905 13.1626C61.6905 13.5786 61.7865 14.0746 61.7785 14.6506L61.7425 17.9746H60.2665ZM58.5865 18.1186C57.8665 18.1186 57.3065 17.9586 56.9065 17.6386C56.5145 17.3186 56.3185 16.8666 56.3185 16.2826C56.3185 15.6426 56.5305 15.1626 56.9545 14.8426C57.3865 14.5146 57.9905 14.3506 58.7665 14.3506H60.2905V15.5266H59.3185C58.7985 15.5266 58.4385 15.5906 58.2385 15.7186C58.0385 15.8386 57.9385 16.0106 57.9385 16.2346C57.9385 16.4106 58.0185 16.5506 58.1785 16.6546C58.3385 16.7506 58.5625 16.7986 58.8505 16.7986C59.1145 16.7986 59.3465 16.7386 59.5465 16.6186C59.7545 16.4906 59.9185 16.3306 60.0385 16.1386C60.1585 15.9386 60.2185 15.7346 60.2185 15.5266H60.6025C60.6025 16.3426 60.4465 16.9786 60.1345 17.4346C59.8305 17.8906 59.3145 18.1186 58.5865 18.1186ZM64.0769 20.5186C63.8609 20.5186 63.6209 20.4746 63.3569 20.3866C63.1009 20.3066 62.8729 20.2106 62.6729 20.0986L63.2609 18.8146C63.3969 18.8866 63.5209 18.9426 63.6329 18.9826C63.7529 19.0306 63.8569 19.0546 63.9449 19.0546C64.1129 19.0546 64.2609 19.0066 64.3889 18.9106C64.5169 18.8226 64.6209 18.6906 64.7009 18.5146L65.4089 16.8466L67.3169 11.9746H69.0569L66.3329 18.4906C66.1649 18.8906 65.9889 19.2426 65.8049 19.5466C65.6209 19.8586 65.3929 20.0986 65.1209 20.2666C64.8569 20.4346 64.5089 20.5186 64.0769 20.5186ZM64.9889 17.9746L62.2409 11.9746H63.9809L65.9849 16.8466L66.5009 17.9746H64.9889ZM70.3909 17.9746V11.3746C70.3909 10.7346 70.5549 10.2386 70.8829 9.8866C71.2109 9.5266 71.7109 9.3466 72.3829 9.3466C72.6149 9.3466 72.8589 9.3866 73.1149 9.4666C73.3789 9.5466 73.6189 9.6426 73.8349 9.7546L73.2469 10.8946C73.1189 10.8306 73.0029 10.7826 72.8989 10.7506C72.7949 10.7186 72.6989 10.7026 72.6109 10.7026C72.3949 10.7026 72.2349 10.7786 72.1309 10.9306C72.0269 11.0746 71.9749 11.3106 71.9749 11.6386V17.9746H70.3909ZM69.3949 13.2466V11.9746H73.4509V13.2466H69.3949ZM78.4619 17.9746L78.3659 16.8706V11.9746H79.9499V17.9746H78.4619ZM74.3939 15.0466V11.9746H75.9779V15.0466H74.3939ZM75.9779 15.0466C75.9779 15.4466 76.0219 15.7626 76.1099 15.9946C76.2059 16.2186 76.3379 16.3826 76.5059 16.4866C76.6819 16.5826 76.8779 16.6306 77.0939 16.6306C77.5099 16.6386 77.8259 16.5146 78.0419 16.2586C78.2579 15.9946 78.3659 15.6146 78.3659 15.1186H78.9059C78.9059 15.7586 78.8099 16.3026 78.6179 16.7506C78.4259 17.1906 78.1619 17.5306 77.8259 17.7706C77.4899 18.0026 77.0939 18.1186 76.6379 18.1186C76.1579 18.1186 75.7499 18.0226 75.4139 17.8306C75.0779 17.6386 74.8219 17.3426 74.6459 16.9426C74.4779 16.5346 74.3939 16.0106 74.3939 15.3706V15.0466H75.9779ZM81.3222 17.9746V9.5746H82.9062V17.9746H81.3222Z" fill="#667085"/>
<path d="M46.6869 32.0249V23.6249H49.8069C50.3989 23.6249 50.9229 23.7449 51.3789 23.9849C51.8349 24.2169 52.1909 24.5449 52.4469 24.9689C52.7029 25.3849 52.8309 25.8689 52.8309 26.4209C52.8309 26.9649 52.7069 27.4489 52.4589 27.8729C52.2109 28.2969 51.8709 28.6329 51.4389 28.8809C51.0069 29.1209 50.5069 29.2409 49.9389 29.2409H48.3309V32.0249H46.6869ZM48.3309 27.7289H49.9029C50.2709 27.7289 50.5709 27.6089 50.8029 27.3689C51.0429 27.1209 51.1629 26.8049 51.1629 26.4209C51.1629 26.0369 51.0309 25.7249 50.7669 25.4849C50.5109 25.2449 50.1789 25.1249 49.7709 25.1249H48.3309V27.7289ZM54.7819 28.8689C54.7819 28.2209 54.9059 27.6849 55.1539 27.2609C55.4099 26.8369 55.7339 26.5209 56.1259 26.3129C56.5259 26.1049 56.9419 26.0009 57.3739 26.0009V27.5369C57.0059 27.5369 56.6579 27.5809 56.3299 27.6689C56.0099 27.7569 55.7499 27.9009 55.5499 28.1009C55.3499 28.3009 55.2499 28.5569 55.2499 28.8689H54.7819ZM53.6659 32.0249V26.0249H55.2499V32.0249H53.6659ZM61.0328 32.1689C60.4248 32.1689 59.8808 32.0369 59.4008 31.7729C58.9288 31.5009 58.5568 31.1289 58.2848 30.6569C58.0208 30.1849 57.8888 29.6409 57.8888 29.0249C57.8888 28.4089 58.0208 27.8649 58.2848 27.3929C58.5488 26.9209 58.9168 26.5529 59.3888 26.2889C59.8608 26.0169 60.4008 25.8809 61.0088 25.8809C61.6248 25.8809 62.1688 26.0169 62.6408 26.2889C63.1128 26.5529 63.4808 26.9209 63.7448 27.3929C64.0088 27.8649 64.1408 28.4089 64.1408 29.0249C64.1408 29.6409 64.0088 30.1849 63.7448 30.6569C63.4808 31.1289 63.1128 31.5009 62.6408 31.7729C62.1768 32.0369 61.6408 32.1689 61.0328 32.1689ZM61.0328 30.7049C61.3288 30.7049 61.5888 30.6329 61.8128 30.4889C62.0368 30.3449 62.2088 30.1489 62.3288 29.9009C62.4568 29.6449 62.5208 29.3529 62.5208 29.0249C62.5208 28.6969 62.4568 28.4089 62.3288 28.1609C62.2008 27.9049 62.0208 27.7049 61.7888 27.5609C61.5648 27.4169 61.3048 27.3449 61.0088 27.3449C60.7208 27.3449 60.4608 27.4169 60.2288 27.5609C60.0048 27.7049 59.8288 27.9049 59.7008 28.1609C59.5728 28.4089 59.5088 28.6969 59.5088 29.0249C59.5088 29.3529 59.5728 29.6449 59.7008 29.9009C59.8288 30.1489 60.0088 30.3449 60.2408 30.4889C60.4728 30.6329 60.7368 30.7049 61.0328 30.7049ZM67.8855 34.5809C67.4295 34.5809 67.0255 34.5489 66.6735 34.4849C66.3215 34.4209 66.0255 34.3369 65.7855 34.2329C65.5455 34.1289 65.3495 34.0249 65.1975 33.9209L65.8215 32.6489C65.9335 32.7129 66.0815 32.7849 66.2655 32.8649C66.4495 32.9529 66.6695 33.0249 66.9255 33.0809C67.1815 33.1449 67.4775 33.1769 67.8135 33.1769C68.1335 33.1769 68.4135 33.1129 68.6535 32.9849C68.9015 32.8649 69.0935 32.6729 69.2295 32.4089C69.3735 32.1529 69.4455 31.8249 69.4455 31.4249V26.0249H71.0295V31.3769C71.0295 32.0489 70.9015 32.6249 70.6455 33.1049C70.3895 33.5929 70.0255 33.9609 69.5535 34.2089C69.0895 34.4569 68.5335 34.5809 67.8855 34.5809ZM67.5735 31.8569C67.0215 31.8569 66.5415 31.7369 66.1335 31.4969C65.7335 31.2569 65.4215 30.9209 65.1975 30.4889C64.9735 30.0569 64.8615 29.5449 64.8615 28.9529C64.8615 28.3289 64.9735 27.7889 65.1975 27.3329C65.4215 26.8689 65.7335 26.5129 66.1335 26.2649C66.5415 26.0089 67.0215 25.8809 67.5735 25.8809C68.0535 25.8809 68.4695 26.0089 68.8215 26.2649C69.1735 26.5129 69.4455 26.8689 69.6375 27.3329C69.8295 27.7969 69.9255 28.3489 69.9255 28.9889C69.9255 29.5649 69.8295 30.0689 69.6375 30.5009C69.4455 30.9329 69.1735 31.2689 68.8215 31.5089C68.4695 31.7409 68.0535 31.8569 67.5735 31.8569ZM68.0295 30.5249C68.3015 30.5249 68.5375 30.4569 68.7375 30.3209C68.9455 30.1769 69.1055 29.9849 69.2175 29.7449C69.3295 29.4969 69.3855 29.2169 69.3855 28.9049C69.3855 28.5849 69.3255 28.3049 69.2055 28.0649C69.0935 27.8249 68.9335 27.6369 68.7255 27.5009C68.5255 27.3649 68.2895 27.2969 68.0175 27.2969C67.7375 27.2969 67.4895 27.3649 67.2735 27.5009C67.0575 27.6369 66.8895 27.8249 66.7695 28.0649C66.6495 28.3049 66.5855 28.5849 66.5775 28.9049C66.5855 29.2169 66.6495 29.4969 66.7695 29.7449C66.8895 29.9849 67.0575 30.1769 67.2735 30.3209C67.4975 30.4569 67.7495 30.5249 68.0295 30.5249ZM73.5085 28.8689C73.5085 28.2209 73.6325 27.6849 73.8805 27.2609C74.1365 26.8369 74.4605 26.5209 74.8525 26.3129C75.2525 26.1049 75.6685 26.0009 76.1005 26.0009V27.5369C75.7325 27.5369 75.3845 27.5809 75.0565 27.6689C74.7365 27.7569 74.4765 27.9009 74.2765 28.1009C74.0765 28.3009 73.9765 28.5569 73.9765 28.8689H73.5085ZM72.3925 32.0249V26.0249H73.9765V32.0249H72.3925ZM80.5634 32.0249L80.5154 30.8129V28.9889C80.5154 28.6289 80.4754 28.3209 80.3954 28.0649C80.3234 27.8089 80.2034 27.6129 80.0354 27.4769C79.8754 27.3329 79.6554 27.2609 79.3754 27.2609C79.1194 27.2609 78.8874 27.3169 78.6794 27.4289C78.4714 27.5409 78.2954 27.7129 78.1514 27.9449L76.7594 27.4649C76.8714 27.2089 77.0354 26.9609 77.2514 26.7209C77.4674 26.4729 77.7474 26.2729 78.0914 26.1209C78.4434 25.9609 78.8714 25.8809 79.3754 25.8809C79.9834 25.8809 80.4874 25.9969 80.8874 26.2289C81.2954 26.4609 81.5954 26.7889 81.7874 27.2129C81.9874 27.6289 82.0834 28.1249 82.0754 28.7009L82.0394 32.0249H80.5634ZM78.8834 32.1689C78.1634 32.1689 77.6034 32.0089 77.2034 31.6889C76.8114 31.3689 76.6154 30.9169 76.6154 30.3329C76.6154 29.6929 76.8274 29.2129 77.2514 28.8929C77.6834 28.5649 78.2874 28.4009 79.0634 28.4009H80.5874V29.5769H79.6154C79.0954 29.5769 78.7354 29.6409 78.5354 29.7689C78.3354 29.8889 78.2354 30.0609 78.2354 30.2849C78.2354 30.4609 78.3154 30.6009 78.4754 30.7049C78.6354 30.8009 78.8594 30.8489 79.1474 30.8489C79.4114 30.8489 79.6434 30.7889 79.8434 30.6689C80.0514 30.5409 80.2154 30.3809 80.3354 30.1889C80.4554 29.9889 80.5154 29.7849 80.5154 29.5769H80.8994C80.8994 30.3929 80.7434 31.0289 80.4314 31.4849C80.1274 31.9409 79.6114 32.1689 78.8834 32.1689ZM83.3378 32.0249V26.0249H84.8258L84.8978 26.8049C85.0818 26.5009 85.3178 26.2729 85.6058 26.1209C85.8938 25.9609 86.2138 25.8809 86.5658 25.8809C87.0538 25.8809 87.4618 25.9849 87.7898 26.1929C88.1258 26.4009 88.3698 26.7209 88.5218 27.1529C88.6978 26.7449 88.9458 26.4329 89.2658 26.2169C89.5858 25.9929 89.9578 25.8809 90.3818 25.8809C91.0858 25.8809 91.6218 26.1049 91.9898 26.5529C92.3578 26.9929 92.5418 27.6729 92.5418 28.5929V32.0249H90.9578V28.9529C90.9578 28.5449 90.9138 28.2289 90.8258 28.0049C90.7378 27.7809 90.6178 27.6209 90.4658 27.5249C90.3138 27.4209 90.1338 27.3689 89.9258 27.3689C89.5418 27.3609 89.2458 27.4849 89.0378 27.7409C88.8298 27.9969 88.7258 28.3769 88.7258 28.8809V32.0249H87.1418V28.9529C87.1418 28.5449 87.0978 28.2289 87.0098 28.0049C86.9298 27.7809 86.8098 27.6209 86.6498 27.5249C86.4978 27.4209 86.3178 27.3689 86.1098 27.3689C85.7258 27.3609 85.4298 27.4849 85.2218 27.7409C85.0218 27.9969 84.9218 28.3769 84.9218 28.8809V32.0249H83.3378ZM93.8027 32.0249V26.0249H95.2907L95.3627 26.8049C95.5467 26.5009 95.7827 26.2729 96.0707 26.1209C96.3587 25.9609 96.6787 25.8809 97.0307 25.8809C97.5187 25.8809 97.9267 25.9849 98.2547 26.1929C98.5907 26.4009 98.8347 26.7209 98.9867 27.1529C99.1627 26.7449 99.4107 26.4329 99.7307 26.2169C100.051 25.9929 100.423 25.8809 100.847 25.8809C101.551 25.8809 102.087 26.1049 102.455 26.5529C102.823 26.9929 103.007 27.6729 103.007 28.5929V32.0249H101.423V28.9529C101.423 28.5449 101.379 28.2289 101.291 28.0049C101.203 27.7809 101.083 27.6209 100.931 27.5249C100.779 27.4209 100.599 27.3689 100.391 27.3689C100.007 27.3609 99.7107 27.4849 99.5027 27.7409C99.2947 27.9969 99.1907 28.3769 99.1907 28.8809V32.0249H97.6067V28.9529C97.6067 28.5449 97.5627 28.2289 97.4747 28.0049C97.3947 27.7809 97.2747 27.6209 97.1147 27.5249C96.9627 27.4209 96.7827 27.3689 96.5747 27.3689C96.1907 27.3609 95.8947 27.4849 95.6867 27.7409C95.4867 27.9969 95.3867 28.3769 95.3867 28.8809V32.0249H93.8027ZM104.364 32.0249V26.0249H105.948V32.0249H104.364ZM105.156 25.0529C104.916 25.0529 104.704 24.9649 104.52 24.7889C104.336 24.6049 104.244 24.3889 104.244 24.1409C104.244 23.8929 104.336 23.6809 104.52 23.5049C104.704 23.3209 104.916 23.2289 105.156 23.2289C105.404 23.2289 105.616 23.3209 105.792 23.5049C105.976 23.6809 106.068 23.8929 106.068 24.1409C106.068 24.3889 105.976 24.6049 105.792 24.7889C105.616 24.9649 105.404 25.0529 105.156 25.0529ZM107.408 32.0249V26.0249H108.896L108.992 27.1289V32.0249H107.408ZM111.38 32.0249V28.9529H112.964V32.0249H111.38ZM111.38 28.9529C111.38 28.5449 111.332 28.2289 111.236 28.0049C111.148 27.7809 111.02 27.6209 110.852 27.5249C110.684 27.4209 110.488 27.3689 110.264 27.3689C109.856 27.3609 109.54 27.4849 109.316 27.7409C109.1 27.9969 108.992 28.3769 108.992 28.8809H108.464C108.464 28.2409 108.556 27.7009 108.74 27.2609C108.932 26.8129 109.196 26.4729 109.532 26.2409C109.876 26.0009 110.276 25.8809 110.732 25.8809C111.204 25.8809 111.608 25.9769 111.944 26.1689C112.28 26.3609 112.536 26.6609 112.712 27.0689C112.888 27.4689 112.972 27.9889 112.964 28.6289V28.9529H111.38ZM116.928 34.5809C116.472 34.5809 116.068 34.5489 115.716 34.4849C115.364 34.4209 115.068 34.3369 114.828 34.2329C114.588 34.1289 114.392 34.0249 114.24 33.9209L114.864 32.6489C114.976 32.7129 115.124 32.7849 115.308 32.8649C115.492 32.9529 115.712 33.0249 115.968 33.0809C116.224 33.1449 116.52 33.1769 116.856 33.1769C117.176 33.1769 117.456 33.1129 117.696 32.9849C117.944 32.8649 118.136 32.6729 118.272 32.4089C118.416 32.1529 118.488 31.8249 118.488 31.4249V26.0249H120.072V31.3769C120.072 32.0489 119.944 32.6249 119.688 33.1049C119.432 33.5929 119.068 33.9609 118.596 34.2089C118.132 34.4569 117.576 34.5809 116.928 34.5809ZM116.616 31.8569C116.064 31.8569 115.584 31.7369 115.176 31.4969C114.776 31.2569 114.464 30.9209 114.24 30.4889C114.016 30.0569 113.904 29.5449 113.904 28.9529C113.904 28.3289 114.016 27.7889 114.24 27.3329C114.464 26.8689 114.776 26.5129 115.176 26.2649C115.584 26.0089 116.064 25.8809 116.616 25.8809C117.096 25.8809 117.512 26.0089 117.864 26.2649C118.216 26.5129 118.488 26.8689 118.68 27.3329C118.872 27.7969 118.968 28.3489 118.968 28.9889C118.968 29.5649 118.872 30.0689 118.68 30.5009C118.488 30.9329 118.216 31.2689 117.864 31.5089C117.512 31.7409 117.096 31.8569 116.616 31.8569ZM117.072 30.5249C117.344 30.5249 117.58 30.4569 117.78 30.3209C117.988 30.1769 118.148 29.9849 118.26 29.7449C118.372 29.4969 118.428 29.2169 118.428 28.9049C118.428 28.5849 118.368 28.3049 118.248 28.0649C118.136 27.8249 117.976 27.6369 117.768 27.5009C117.568 27.3649 117.332 27.2969 117.06 27.2969C116.78 27.2969 116.532 27.3649 116.316 27.5009C116.1 27.6369 115.932 27.8249 115.812 28.0649C115.692 28.3049 115.628 28.5849 115.62 28.9049C115.628 29.2169 115.692 29.4969 115.812 29.7449C115.932 29.9849 116.1 30.1769 116.316 30.3209C116.54 30.4569 116.792 30.5249 117.072 30.5249Z" fill="#667085"/>
</g>
</svg>
