<svg width="96" height="30" viewBox="0 0 96 30" fill="none" xmlns="http://www.w3.org/2000/svg">
<g opacity="0.8" clip-path="url(#clip0_11802_32359)">
<path d="M69.7442 12.981C69.7697 12.9623 69.7959 12.9454 69.8233 12.9301C69.9596 12.8438 70.0992 12.8005 70.2419 12.8005C70.3907 12.8005 70.5425 12.8622 70.6977 12.9856C70.9271 13.1707 71.0419 13.4112 71.0419 13.7073V13.8091C71.0315 13.912 71.013 14.0292 70.9861 14.1608C70.9323 14.428 70.8454 14.7548 70.7256 15.1416L70.2977 16.4556C69.8264 18.1706 69.5723 19.5369 69.5349 20.5547V20.7676C69.5349 21.3596 69.603 21.813 69.7396 22.1278C69.7678 22.1965 69.8019 22.2566 69.8419 22.3082C69.9591 22.4642 70.1265 22.549 70.3442 22.5627H70.4C70.5987 22.5627 70.8019 22.5088 71.0093 22.4008C71.1727 22.3145 71.3386 22.1959 71.507 22.0445C71.6372 21.9213 71.7922 21.7516 71.9721 21.5356L72.3535 21.0267C72.6575 20.6195 72.9706 20.1384 73.2932 19.5832L74.1675 18.0841C74.1799 18.0654 74.1924 18.0471 74.2047 18.0284C74.248 17.8743 74.2977 17.7233 74.3535 17.5752C74.7444 16.5142 75.2806 15.595 75.9628 14.8177C76.4011 14.3249 76.8756 13.9192 77.3861 13.6009C77.763 13.3668 78.16 13.1803 78.5766 13.0411C79.0417 12.8992 79.4791 12.8283 79.8882 12.8283C80.4155 12.8283 80.9115 12.9425 81.3766 13.1707C82.2698 13.6148 82.7751 14.3582 82.8929 15.4007V15.5117V15.5349C82.888 15.7151 82.8227 15.8617 82.6975 15.9744C82.6385 16.0331 82.5688 16.0778 82.4882 16.1086C82.3976 16.1426 82.2936 16.1595 82.1766 16.1595C81.9533 16.1595 81.7611 16.0947 81.5997 15.9651C81.4197 15.8232 81.3174 15.6352 81.2929 15.4007C81.2495 14.9689 81.017 14.6789 80.5952 14.5309C80.3904 14.4569 80.1671 14.4198 79.9252 14.4198C79.7641 14.4198 79.5842 14.4384 79.3859 14.4754C78.9827 14.5603 78.595 14.7208 78.2231 14.9565C77.8101 15.2188 77.4164 15.5734 77.0415 16.0207C76.4586 16.7115 76.0276 17.4858 75.7485 18.3432C75.5624 18.9106 75.4694 19.4505 75.4694 19.9625C75.4694 20.3081 75.5128 20.6443 75.5996 20.9711C75.645 21.1436 75.704 21.3024 75.7764 21.4477C76.0467 21.9744 76.5057 22.3153 77.1531 22.47C77.395 22.5318 77.646 22.5625 77.9066 22.5625C78.4151 22.5625 78.9237 22.4424 79.4322 22.2018C79.5892 22.1274 79.7444 22.0456 79.8973 21.9566C81.2246 21.1938 82.4246 19.9028 83.4973 18.0841C83.5096 18.0593 83.5252 18.0379 83.5438 18.0192C83.55 17.9885 83.5593 17.9575 83.5717 17.9266C84.0616 16.44 84.8369 15.2154 85.8973 14.2531C86.2024 13.9749 86.5126 13.7375 86.8276 13.5406C87.5792 13.0718 88.3576 12.8374 89.1624 12.8374L89.5717 12.8559C90.291 12.9114 90.8864 13.2014 91.3578 13.7257C91.8045 14.2176 92.0371 14.8005 92.0555 15.4745V15.5578V15.6041C92.0555 16.5233 91.7113 17.4116 91.0229 18.269C90.6127 18.7848 90.1444 19.1919 89.6183 19.4904C89.0302 19.8204 88.3695 20.0147 87.6369 20.0734L87.1718 20.0919C86.3965 20.0919 85.6183 19.9438 84.8369 19.6477L84.8276 19.8236L84.8181 20.0736C84.8181 20.6499 84.9189 21.1296 85.1204 21.5123C85.2382 21.7305 85.3885 21.9172 85.5717 22.0721C85.9128 22.3436 86.3345 22.507 86.8369 22.5623L87.1902 22.5718C87.5437 22.5718 87.8817 22.5192 88.2041 22.4143C88.5647 22.3053 88.9213 22.1495 89.2739 21.9472C89.8173 21.6368 90.3505 21.2158 90.8741 20.6841C91.5811 19.9746 92.229 19.1142 92.8181 18.1025C92.8369 18.0777 92.8553 18.053 92.8741 18.0284C93.8043 16.3691 94.2787 14.5738 94.2971 12.643V12.5413C94.2971 10.4809 93.7483 8.74742 92.6506 7.34093C91.5466 5.94054 89.9623 5.07703 87.8971 4.75002C87.2397 4.66359 86.5141 4.62047 85.7204 4.62047L83.525 4.6945C82.0676 4.75613 80.601 4.87642 79.125 5.05538C77.0724 5.28985 74.5855 5.73697 71.6646 6.3971L64.2878 8.17372C62.7745 8.51924 61.3422 8.79979 59.9902 9.01577C59.9777 9.04445 59.9652 9.07369 59.9529 9.10367C59.8622 9.30891 59.7598 9.53561 59.646 9.78378L58.9762 11.181C57.9529 13.2908 56.5918 15.8169 54.8925 18.7594C54.9262 19.7975 55.0687 20.6658 55.3204 21.3642C55.3474 21.4392 55.3753 21.5117 55.4041 21.5817C55.5652 21.9396 55.7483 22.2079 55.9529 22.3869C56.021 22.4424 56.0956 22.4855 56.1762 22.5163C56.2629 22.5533 56.3435 22.572 56.4181 22.572L56.5111 22.5625C56.6499 22.5409 56.7862 22.4961 56.9204 22.4283C57.1276 22.3217 57.3291 22.1598 57.525 21.9426L58.0925 21.193L58.2506 20.943C58.5049 20.5544 58.781 20.0826 59.0785 19.5275L59.8785 18.0839C59.9035 18.0408 59.9343 18.0007 59.9715 17.9637C60.4058 16.7607 61.0847 15.6844 62.0088 14.7343C62.4553 14.2746 62.9142 13.8981 63.3855 13.6054C64.2179 13.0872 65.0891 12.8281 65.9995 12.8281H66.0646C67.3461 12.8398 68.2793 13.4305 68.8646 14.6001C68.8929 14.6588 68.921 14.7189 68.9483 14.7805L69.3576 13.5961L69.4692 13.3463C69.545 13.1869 69.6365 13.065 69.7442 12.981ZM64.693 22.1879C65.2188 21.8954 65.7228 21.431 66.2047 20.7953C66.5956 20.2772 66.9799 19.6418 67.3582 18.8892C67.5319 18.5129 67.6744 18.192 67.7861 17.9268L68.1489 17.0478C68.2605 16.7889 68.3721 16.4833 68.4837 16.1317L68.3535 16.1504C68.2419 16.1504 68.1273 16.1256 68.0093 16.0764C67.7983 15.9899 67.6527 15.8328 67.5721 15.6044C67.3611 15.0061 66.9829 14.6329 66.437 14.4848C66.2882 14.4417 66.1146 14.42 65.9161 14.42C65.5626 14.42 65.1842 14.5065 64.7812 14.6791C64.5546 14.7754 64.336 14.8894 64.1254 15.0215C63.3061 15.5367 62.6008 16.3262 62.0091 17.3903C61.7673 17.8099 61.5751 18.257 61.4324 18.732C61.2525 19.2933 61.1565 19.8176 61.1438 20.3051V20.4345C61.1438 20.9482 61.2432 21.3694 61.4417 21.6975C61.6971 22.1195 62.1157 22.3893 62.6975 22.5072C62.8958 22.5442 63.0943 22.5627 63.2929 22.5627C63.7755 22.5625 64.2423 22.4378 64.693 22.1879ZM73.921 21.6603C73.8854 21.7112 73.8497 21.7623 73.814 21.813C73.179 22.7182 72.5156 23.3644 71.8233 23.7517C71.6579 23.8456 71.4904 23.9244 71.321 23.9875C71.0233 24.0987 70.7319 24.1541 70.4465 24.1541C70.1799 24.1541 69.904 24.1047 69.6188 24.006C69.0419 23.8023 68.6171 23.4353 68.3442 22.9049C68.1023 22.4235 67.966 21.853 67.9349 21.193V21.0172C67.8733 21.1116 67.8114 21.2041 67.7489 21.2948C67.1459 22.1656 66.507 22.8442 65.8326 23.3305C65.7031 23.4208 65.5714 23.5041 65.4372 23.5804C64.7623 23.9629 64.0413 24.1543 63.2744 24.1543C63.1007 24.1543 62.8962 24.1387 62.6605 24.108C61.4078 23.9475 60.5178 23.3709 59.9907 22.3775C59.8789 22.1678 59.789 21.9518 59.7209 21.7297C59.6705 21.8076 59.621 21.8817 59.5721 21.9518C59.5122 22.0404 59.453 22.1239 59.3954 22.2018C58.8709 22.9611 58.3219 23.4993 57.7487 23.8165C57.3396 24.0417 56.9178 24.1543 56.4836 24.1543H56.4093C55.2867 24.1172 54.4527 23.4355 53.907 22.1093C53.7396 21.6774 53.603 21.2115 53.4977 20.7119C53.4428 20.7811 53.387 20.8488 53.3302 20.9156C52.7714 21.5939 52.176 22.18 51.5442 22.6737C51.2192 22.9273 50.8936 23.1479 50.5675 23.3353C49.6238 23.8811 48.6748 24.1543 47.7209 24.1543C47.5102 24.1543 47.259 24.1326 46.9675 24.0893C45.4668 23.8548 44.4806 23.1085 44.0093 21.85C43.8729 21.4921 43.7861 21.1129 43.7489 20.7119L43.9256 19.1851L42.3535 18.6669C42.3377 18.7189 42.3206 18.7713 42.3023 18.8244C42.1827 19.1973 42.0385 19.5704 41.8698 19.944L40.8465 21.7392C40.2426 22.5877 39.5745 23.2201 38.8419 23.6361C38.7544 23.6851 38.6661 23.7314 38.5768 23.7749C38.0497 24.0277 37.5038 24.1543 36.9395 24.1543C36.6791 24.1543 36.3875 24.1234 36.0651 24.0617C35.1535 23.8706 34.4341 23.4416 33.907 22.7755C33.6093 22.4115 33.389 21.9983 33.2465 21.5356C33.2342 21.5478 33.2218 21.5634 33.2093 21.5819C33.1714 21.6413 33.1341 21.6999 33.0977 21.7577C32.5991 22.5133 32.1276 23.0746 31.6837 23.4418C31.5003 23.5913 31.3157 23.7177 31.1302 23.8213C30.7271 24.0432 30.3193 24.1544 29.907 24.1544C29.7706 24.1544 29.6155 24.1389 29.4419 24.1082C28.462 23.9231 27.9101 23.2476 27.7861 22.0817C27.7675 21.9152 27.7581 21.7393 27.7581 21.5543C27.7581 20.7831 27.9038 19.8609 28.1954 18.7876L28.6605 17.1496C28.8465 16.5142 28.9768 15.9775 29.0512 15.5397C29.0884 15.3113 29.107 15.08 29.107 14.8457V14.7161C29.107 14.5248 29.0884 14.42 29.0512 14.4015C29.0264 14.3891 29.0015 14.383 28.9768 14.383C28.9209 14.383 28.8309 14.4232 28.707 14.5033L28.6837 14.5218L28.3442 14.8179C28.0218 15.0831 27.6528 15.4871 27.2372 16.0301C26.5736 16.8751 25.8419 17.9733 25.0419 19.3243C24.7256 19.8672 24.4032 20.4409 24.0744 21.0455L22.8651 23.2663C22.7721 23.4327 22.6666 23.5933 22.5488 23.7475C22.4182 23.9063 22.2787 24.019 22.1302 24.0852C22.0264 24.1315 21.918 24.1546 21.8047 24.1546C21.7241 24.1546 21.6465 24.1424 21.5721 24.1176C21.2744 24.0436 21.0482 23.8461 20.893 23.5254C20.7814 23.2909 20.6977 22.9889 20.6419 22.6188C20.5674 22.1004 20.5302 21.5269 20.5302 20.8975V20.8327C20.4687 20.8799 20.4067 20.9247 20.3442 20.9669C20.2404 21.0389 20.1349 21.1051 20.0279 21.1658C19.6035 21.4066 19.157 21.5576 18.6884 21.6192C18.685 21.647 18.6819 21.6749 18.6791 21.7025C18.5206 22.9167 18.0958 24.0362 17.4047 25.0613C16.7036 26.088 15.7998 26.9225 14.693 27.5643C14.3907 27.741 14.0729 27.9029 13.7395 28.0501C12.1954 28.7348 10.5241 29.0772 8.72558 29.0772C6.24503 29.0526 4.23256 28.4974 2.68837 27.4116C0.896 26.153 0 24.4781 0 22.3869V22.0999C0.0619535 20.675 0.483721 19.3239 1.26512 18.0471C1.74307 17.261 2.35851 16.6332 3.11163 16.1641C3.57098 15.8787 4.08093 15.6518 4.64186 15.4838C5.40465 15.2617 6.17061 15.1507 6.93954 15.1507C7.7334 15.1507 8.552 15.2958 9.39535 15.5858C10.2387 15.8756 11.1907 16.3754 12.2512 17.0848L15.014 18.9262C15.7003 19.3722 16.333 19.6899 16.9116 19.8791C16.9801 19.9031 17.0484 19.9248 17.1163 19.944C16.9861 18.6671 16.5209 17.5752 15.7209 16.6684C14.9209 15.7492 13.9007 15.0768 12.6605 14.6512L11.4698 14.244C10.3782 13.8617 9.56596 13.4853 9.03256 13.1151C7.59386 12.1467 6.79386 10.8172 6.63256 9.12699L6.60465 8.62731C6.60465 6.99874 7.2681 5.63537 8.59535 4.53738C8.82661 4.34584 9.06698 4.17317 9.31628 4.0192C10.3386 3.38387 11.5061 3.06611 12.8186 3.06611C14.0465 3.06611 15.1474 3.41774 16.1209 4.12098C17.0711 4.80887 17.6216 5.77583 17.7721 7.02188C17.7775 7.05981 17.7821 7.09831 17.7861 7.13754L17.814 7.64647C17.814 8.5903 17.5689 9.39848 17.0791 10.0708C16.7319 10.5355 16.4125 10.8392 16.1209 10.9823C15.9916 11.047 15.8677 11.0794 15.7488 11.0794C15.6681 11.0733 15.5939 11.0641 15.5256 11.0517L15.3954 11.172L15.2558 11.3061L13.7861 12.671C13.7388 12.6971 13.6938 12.7187 13.6512 12.7358C13.4452 12.8113 13.301 12.7619 13.2186 12.5877C13.1194 12.4767 13.1287 12.3379 13.2465 12.1713L13.2558 12.1621C13.2806 12.125 13.3146 12.0849 13.3581 12.0418L14.9767 10.5242C14.9581 10.4441 14.9457 10.3608 14.9395 10.2744C14.9395 10.0647 15.0233 9.8889 15.1907 9.74696C15.8977 9.11774 16.2512 8.39284 16.2512 7.57244C16.2512 6.75816 15.941 6.07342 15.3209 5.51822C14.7008 4.96303 13.8543 4.67932 12.7814 4.66692C11.7544 4.66692 10.8675 4.90288 10.1209 5.3748C9.89414 5.51767 9.68019 5.68275 9.47907 5.86985C8.61712 6.67173 8.18605 7.63407 8.18605 8.75686C8.18605 9.24414 8.28689 9.70532 8.48837 10.1402C8.66326 10.5159 8.91293 10.8722 9.23721 11.209C9.93172 11.9307 11.0047 12.4983 12.4558 12.9116C12.8517 13.0256 13.23 13.1551 13.5907 13.3002C13.8458 13.4027 14.0923 13.5123 14.3302 13.6287C15.4718 14.1985 16.4004 14.9464 17.1163 15.8726C17.9207 16.9066 18.4261 18.0479 18.6326 19.2963C18.6707 19.53 18.6986 19.7675 18.7163 20.0088C18.7528 19.9975 18.7885 19.9853 18.8233 19.9718C18.9416 19.9292 19.0579 19.8767 19.1721 19.8145C19.7241 19.5102 20.2387 18.9706 20.7163 18.1952C20.7226 18.1335 20.7288 18.0686 20.7349 18.0009L20.9209 16.4648C21.3302 13.4235 21.8977 10.777 22.6233 8.52553L23.0698 7.13754C23.2744 6.59475 23.4791 6.11358 23.6837 5.69404C24.1888 4.65341 24.7905 3.91019 25.4884 3.464C25.5196 3.44531 25.5505 3.4268 25.5814 3.40848C25.9472 3.18641 26.3256 3.07537 26.7163 3.07537L26.9023 3.09387C27.4047 3.14329 27.7924 3.35926 28.0651 3.7416C28.307 4.08712 28.4279 4.51591 28.4279 5.0278L28.4186 5.38868C28.3875 5.67867 28.3379 5.97163 28.2698 6.26774L28.0372 7.08202C27.6154 8.4391 26.8404 10.225 25.7116 12.4397C24.8621 14.1422 23.7148 16.2398 22.2698 18.7319L22.2326 19.3426C22.1829 19.9163 22.1581 20.4744 22.1581 21.0174V21.2487C22.8651 19.9411 23.4357 18.9293 23.8698 18.2137C24.6573 16.906 25.3829 15.8265 26.0465 14.975C26.4372 14.4878 26.766 14.1145 27.0326 13.8554C27.2735 13.6159 27.5154 13.4185 27.7581 13.2632C27.9221 13.1575 28.0865 13.0711 28.2512 13.0041C28.5055 12.887 28.7691 12.8283 29.0419 12.8283C29.1907 12.8283 29.3334 12.8468 29.4698 12.8838C29.9038 12.9887 30.2294 13.2262 30.4465 13.5963C30.6309 13.902 30.7239 14.286 30.7256 14.7483V14.7622V14.8362C30.7256 15.0459 30.7038 15.2619 30.6605 15.484L29.6093 19.9163C29.5535 20.1322 29.5038 20.3636 29.4605 20.6103C29.3922 21.0052 29.3581 21.3474 29.3581 21.6374C29.3581 21.8039 29.3643 21.9244 29.3768 21.9983C29.3959 22.217 29.4934 22.368 29.6698 22.4517C29.7239 22.4759 29.7844 22.4944 29.8512 22.5072L30.1861 22.4887C30.2521 22.4765 30.3096 22.4594 30.3582 22.4378C30.384 22.4285 30.4073 22.4178 30.4279 22.4054C30.7131 22.2325 31.0108 21.9488 31.3209 21.5541L31.9814 20.4992C32.2171 20.1043 32.4465 19.7034 32.6698 19.2963L33.3209 18.1397C33.4387 17.7201 33.5939 17.2976 33.7861 16.8718C34.2945 15.7492 34.9954 14.8207 35.8884 14.0865C36.0947 13.9196 36.3057 13.7699 36.5209 13.6378C37.1689 13.2325 37.8543 12.981 38.5768 12.8836L38.9395 12.8281C39.1008 12.8157 39.2186 12.8096 39.293 12.8096C39.8573 12.8096 40.4125 12.9452 40.9582 13.2167C41.9948 13.7242 42.573 14.6032 42.693 15.8539C42.7085 16.0171 42.7163 16.1868 42.7163 16.3628L42.6977 16.6961C42.6914 16.8194 42.6822 16.9428 42.6698 17.0663L43 17.1773L44.1023 17.5521L44.2326 17.5937C44.7163 16.2612 45.448 15.1477 46.4279 14.2533C46.7323 13.9775 47.0408 13.7414 47.3535 13.5454C48.1118 13.0735 48.8947 12.8375 49.7023 12.8375L50.1023 12.856C50.8216 12.9116 51.4169 13.2016 51.8884 13.7259C52.3353 14.2178 52.5678 14.8007 52.5861 15.4747V15.558V15.6043C52.5861 16.5235 52.2419 17.4118 51.5535 18.2692C51.1474 18.7872 50.6809 19.1943 50.1537 19.4906C49.5689 19.8208 48.9102 20.0153 48.1769 20.0736L47.7118 20.0921C47.0607 20.0921 46.4063 19.9873 45.749 19.7775C45.7243 19.7714 45.7025 19.7653 45.6839 19.759L45.5723 19.722C45.504 19.6972 45.4389 19.6725 45.3769 19.6479V19.6574C45.3686 19.6988 45.3624 19.7542 45.3583 19.8237V19.935V20.0738C45.3583 20.6501 45.4592 21.1297 45.6607 21.5125C45.7784 21.7307 45.9288 21.9174 46.1118 22.0723C46.4529 22.3438 46.8746 22.5072 47.3769 22.5625L47.7211 22.572C48.0809 22.572 48.422 22.5194 48.7444 22.4145C49.1049 22.3055 49.4614 22.1496 49.8142 21.9474C50.3574 21.637 50.8908 21.216 51.4142 20.6843C52.0653 20.0305 52.6856 19.216 53.2746 18.2414V17.8991C53.3057 16.8072 53.4638 15.3759 53.749 13.6056C54.0034 12.0941 54.3103 10.7278 54.67 9.50637H54.2607C52.512 9.50637 51.0793 9.3276 49.963 8.96968C48.704 8.57494 47.5848 7.96423 46.6049 7.13754C45.5196 6.22462 44.7784 5.19751 44.3816 4.05621C44.3444 3.96368 44.3258 3.87429 44.3258 3.78787C44.3258 3.66443 44.3598 3.55339 44.4281 3.45475C44.4406 3.43014 44.456 3.40848 44.4746 3.38998L44.3816 3.18178L43.9769 2.27496L43.8793 2.05751L43.5351 1.28024C43.5267 1.23267 43.5219 1.18789 43.5211 1.14606C43.5154 1.0354 43.534 0.949155 43.5769 0.886974C43.6222 0.82072 43.6949 0.782227 43.7955 0.771308C43.9382 0.715789 44.0685 0.771308 44.1862 0.937867L44.1955 0.94712C44.2203 0.984133 44.2452 1.0304 44.27 1.08592L45.1723 3.09387C45.2964 3.09998 45.4017 3.12478 45.4886 3.1679C45.6869 3.24822 45.8328 3.40552 45.9258 3.63981L45.9351 3.68608C46.0964 4.0068 46.1955 4.19816 46.2328 4.25978C46.5429 4.79647 46.9522 5.29929 47.4607 5.76806C49.0173 7.21157 51.1755 7.93332 53.9351 7.93332H54.0004C54.35 7.93332 54.7049 7.92555 55.0655 7.91019C55.1129 7.90945 55.1609 7.90778 55.2097 7.90556C55.6251 6.80757 56.0966 5.85449 56.6236 5.04631C56.9399 4.55274 57.2594 4.16096 57.5818 3.87115C57.7433 3.72235 57.9061 3.59429 58.0702 3.48714C58.3349 3.31669 58.603 3.20103 58.8748 3.14014C59.0421 3.09702 59.2065 3.07537 59.3676 3.07537C59.8328 3.07537 60.2205 3.24507 60.5304 3.5843C60.8778 3.96682 61.0514 4.44799 61.0514 5.0278V5.06481L61.0421 5.25913C60.9924 5.88835 60.856 6.56384 60.6328 7.28559C60.8188 7.25469 61.008 7.22082 61.2004 7.18381C61.2158 7.18066 61.2313 7.1777 61.2469 7.17455C62.3613 6.9547 63.5273 6.70486 64.7446 6.42504L68.2516 5.56449C74.4964 4.01605 79.9818 3.18641 84.7074 3.07537L85.3864 3.06611C88.0469 3.06611 90.1089 3.49491 91.5725 4.35231C93.1786 5.27764 94.3537 6.64397 95.0979 8.4515C95.3708 9.10145 95.574 9.77842 95.7072 10.4826C95.8345 11.1566 95.8979 11.8552 95.8979 12.5785C95.8979 12.9671 95.8791 13.3589 95.8419 13.7536C95.6622 15.5795 95.1256 17.2821 94.2328 18.8614C94.2078 18.9045 94.1831 18.9447 94.1584 18.9817C93.2343 20.5299 92.1833 21.7608 91.0049 22.6737C90.6787 22.9282 90.3517 23.1503 90.0237 23.34C89.0834 23.883 88.1392 24.1543 87.1909 24.1543C86.9863 24.1543 86.7321 24.1326 86.4281 24.0893C84.9275 23.8548 83.9414 23.1085 83.47 21.85C83.3833 21.6279 83.3182 21.3966 83.2746 21.156C83.2181 21.2214 83.161 21.2859 83.1025 21.3503C82.3656 22.1668 81.5796 22.8177 80.7444 23.3028C80.4529 23.4704 80.155 23.6185 79.8514 23.7469C79.2002 24.0184 78.549 24.1541 77.8979 24.1541C77.6374 24.1541 77.3645 24.1293 77.0793 24.08C76.056 23.9137 75.2622 23.454 74.6979 22.7013C74.4127 22.3312 74.2049 21.9087 74.0744 21.4336C74.0235 21.5099 73.9723 21.5854 73.921 21.6603ZM85.8791 18.3247C86.3038 18.4419 86.7318 18.5005 87.1628 18.5005L87.5535 18.4911C88.0225 18.445 88.4426 18.3201 88.814 18.1165C89.2886 17.8574 89.6839 17.4703 90 16.9552C90.1922 16.653 90.3256 16.3538 90.3998 16.0577C90.4432 15.9033 90.4651 15.7399 90.4651 15.5672C90.4651 15.4007 90.4372 15.2434 90.3814 15.0953C90.2077 14.6636 89.8512 14.4384 89.3117 14.4198H89.2465C88.8372 14.4198 88.4125 14.5246 87.9719 14.7345C87.8129 14.8111 87.6577 14.8958 87.5068 14.9889C86.8002 15.4351 86.1987 16.0782 85.7022 16.9182C85.4852 17.2946 85.3024 17.6772 85.1535 18.0656C85.3939 18.1707 85.6357 18.257 85.8791 18.3247ZM57.907 7.68811C58.1576 7.65905 58.4119 7.62667 58.6698 7.59095C58.7187 7.58558 58.7682 7.57948 58.8186 7.57244C58.8558 7.47991 58.8901 7.38738 58.9211 7.29485L59.1072 6.7489C59.1814 6.50832 59.2342 6.32029 59.2653 6.18446C59.3769 5.80193 59.4421 5.42254 59.4607 5.04631C59.4607 4.84884 59.3833 4.7502 59.2281 4.7502L59.0793 4.76871C58.9844 4.79388 58.8852 4.84477 58.7816 4.92139C58.5809 5.06759 58.3637 5.30984 58.1304 5.64777C57.8514 6.05491 57.5877 6.51757 57.3397 7.03576C57.2218 7.27634 57.1072 7.52618 56.9954 7.78527C57.2945 7.75695 57.5985 7.72475 57.907 7.68811ZM46.414 18.3247C46.8383 18.4419 47.2648 18.5005 47.693 18.5005L48.0839 18.4911C48.558 18.4476 48.9827 18.3227 49.3583 18.1165C49.8309 17.8587 50.2248 17.4718 50.5397 16.9552C50.7382 16.6469 50.8685 16.3477 50.9306 16.0577C50.9803 15.9096 51.0049 15.746 51.0049 15.5672C51.0049 15.4007 50.9771 15.2434 50.9213 15.0953C50.7476 14.6636 50.3879 14.4384 49.8421 14.4198H49.7863C49.3769 14.4198 48.9522 14.5246 48.5118 14.7345C48.3526 14.8111 48.1976 14.8958 48.0467 14.9889C47.3401 15.4351 46.7384 16.0782 46.2421 16.9182C46.0188 17.2946 45.8359 17.6772 45.6932 18.0656C45.8173 18.1211 45.9412 18.1704 46.0653 18.2137C46.181 18.2548 46.2973 18.2918 46.414 18.3247ZM56.3396 9.52951C55.8346 11.0672 55.4517 12.8022 55.1905 14.7345L55.1861 14.7715L55.144 15.0768C56.1364 13.2756 56.9332 11.7457 57.5349 10.4872C57.7396 10.0677 57.9286 9.66368 58.1023 9.27504C57.8666 9.29965 57.6311 9.32445 57.3954 9.34907C57.0419 9.37997 56.7009 9.40755 56.3721 9.43235C56.3609 9.46529 56.3502 9.49767 56.3396 9.52951ZM38.8558 15.7893C38.9187 15.8123 38.987 15.8339 39.0605 15.8541L40.9302 16.4833L41.1163 16.5481V16.4556C41.1163 15.3515 40.6822 14.6913 39.814 14.4754C39.6032 14.426 39.4233 14.4013 39.2744 14.4013C38.9781 14.4013 38.7269 14.4768 38.5209 14.628C38.4162 14.7061 38.3232 14.8035 38.2419 14.9195C38.086 15.3015 38.2906 15.5915 38.8558 15.7893ZM44.0512 1.96035L44.1395 2.16392L44.5489 3.09387C44.5682 3.07296 44.59 3.05445 44.614 3.03835C44.6703 2.99967 44.7386 2.97802 44.8186 2.97358L43.9256 0.993386C43.8512 0.97488 43.7954 0.97488 43.7582 0.993386C43.7198 1.00967 43.6934 1.04372 43.6791 1.09517C43.6774 1.10035 43.6759 1.10646 43.6744 1.11368L44.0512 1.96035ZM44.0186 0.97488L44.7721 2.66822L44.8837 2.60345L44.0744 0.956373L44.0186 0.97488ZM26.307 4.8333C25.9983 5.06574 25.6791 5.46659 25.3488 6.03622C24.5922 7.38719 23.9007 9.46917 23.2744 12.2822C23.1721 12.7589 23.0482 13.3759 22.9023 14.1328C22.8819 14.2463 22.8601 14.3634 22.8372 14.4844C23.8852 12.5722 24.7317 10.9034 25.3768 9.47843L26.2698 7.45197C26.5674 6.65619 26.7442 5.94369 26.8 5.31447L26.8279 4.99986C26.8279 4.90732 26.8186 4.82404 26.8 4.75002L26.7907 4.71301L26.7628 4.66674H26.6605L26.6419 4.68525L26.5861 4.71301L26.5116 4.72226H26.493V4.71301C26.4314 4.74632 26.3695 4.78648 26.307 4.8333ZM14.9488 11.4588C14.9488 11.3169 14.8651 11.3169 14.6977 11.4588C14.6169 11.5328 14.5148 11.6378 14.3907 11.7734C14.3474 11.8043 14.2575 11.8876 14.1209 12.0233C13.9782 12.1713 13.907 12.2607 13.907 12.2916L13.9163 12.3564C13.9535 12.3686 13.9782 12.3749 13.9907 12.3749C13.9968 12.3749 14.1581 12.2268 14.4744 11.9307C14.7907 11.6346 14.9488 11.4773 14.9488 11.4588ZM14.9488 10.8759C14.9488 10.7524 14.6884 10.9221 14.1674 11.3848C13.6465 11.8536 13.3861 12.1065 13.3861 12.1435C13.3861 12.1991 13.4171 12.2268 13.4791 12.2268C13.4852 12.2268 13.9753 11.7766 14.9488 10.8759ZM13.7954 12.4672C13.7954 12.4178 13.7706 12.3932 13.7209 12.3932C13.6651 12.3932 13.6154 12.421 13.5721 12.4765C13.4729 12.4704 13.4015 12.4826 13.3581 12.5135C13.3395 12.5259 13.3302 12.5381 13.3302 12.5505C13.3302 12.5875 13.355 12.6153 13.4047 12.6338H13.5721C13.7209 12.5784 13.7954 12.5229 13.7954 12.4672ZM1.90698 24.1263C2.22214 24.9047 2.76168 25.5617 3.52558 26.0973C4.82177 27.0165 6.59851 27.476 8.85582 27.476C10.6296 27.476 12.1241 27.1614 13.3395 26.532C13.4605 26.4691 13.5784 26.4043 13.693 26.3377C14.7338 25.7342 15.5554 24.9663 16.1581 24.0336C16.6605 23.2439 16.9706 22.4174 17.0884 21.5539C16.6791 21.449 16.3008 21.3226 15.9535 21.1743C15.1721 20.8599 14.2015 20.3108 13.0419 19.5275L11.1349 18.2413C10.3287 17.7292 9.59386 17.3468 8.93023 17.0938C8.26047 16.8472 7.60317 16.7237 6.95814 16.7237H6.67907C5.65154 16.7778 4.76614 17.0383 4.02326 17.5058C3.58028 17.7843 3.18809 18.1376 2.84651 18.5653C1.99684 19.6202 1.57209 20.8664 1.57209 22.3036C1.57209 22.9717 1.68372 23.5793 1.90698 24.1263ZM34.9488 21.4801C35.1948 21.9505 35.5855 22.2683 36.1209 22.4332C36.3753 22.507 36.6233 22.5442 36.8651 22.5442C37.2767 22.5442 37.6815 22.4346 38.0791 22.2157C38.3347 22.0741 38.5874 21.8876 38.8372 21.6561L39.1163 21.3785L40.0465 20.0368C40.1457 19.8517 40.2326 19.6788 40.307 19.5186C40.3875 19.3581 40.4558 19.2132 40.5116 19.0835C40.6357 18.7628 40.741 18.4574 40.8279 18.1674L37.0605 16.9369C36.6512 16.69 36.3814 16.3508 36.2512 15.9191C36.1967 15.9816 36.1438 16.0449 36.093 16.1086C35.5591 16.7694 35.1622 17.5299 34.9023 18.3895C34.7288 18.9634 34.6419 19.5121 34.6419 20.0366C34.6419 20.2772 34.6605 20.5114 34.6977 20.7398C34.7503 21.0193 34.8341 21.266 34.9488 21.4801Z" fill="#667085"/>
</g>
<defs>
<clipPath id="clip0_11802_32359">
<rect width="96" height="28.5" fill="white" transform="translate(0 0.75)"/>
</clipPath>
</defs>
</svg>
