<svg width="139" height="32" viewBox="0 0 139 32" fill="none" xmlns="http://www.w3.org/2000/svg">
<g opacity="0.8" clip-path="url(#clip0_11802_32312)">
<path d="M39.7951 25.0496H37.6445V9.87617H32.3159V7.98846H45.0998V9.87617H39.7951V25.0496Z" fill="#667085"/>
<path d="M55.4782 25.0496L53.4232 19.7687H46.6609L44.6298 25.0496H42.4554L49.1221 7.91678H51.0576L57.7004 25.0496H55.4782ZM50.8664 12.6958C50.8186 12.5684 50.739 12.3374 50.6275 12.0028C50.516 11.6683 50.4045 11.3258 50.293 10.9753C50.1974 10.609 50.1177 10.3302 50.054 10.139C49.9743 10.4576 49.8867 10.7842 49.7912 11.1187C49.7115 11.4373 49.6239 11.732 49.5283 12.0028C49.4487 12.2736 49.377 12.5046 49.3133 12.6958L47.3777 17.8571H52.778L50.8664 12.6958Z" fill="#667085"/>
<path d="M72.3398 25.0496H69.8308L60.7029 10.8798H60.6073C60.6232 11.1665 60.6392 11.4851 60.6551 11.8356C60.687 12.186 60.7109 12.5684 60.7268 12.9825C60.7427 13.3808 60.7586 13.795 60.7746 14.2251C60.7905 14.6552 60.7985 15.0853 60.7985 15.5154V25.0496H58.8152V7.98846H61.3003L70.4043 22.1105H70.4999C70.484 21.9193 70.468 21.6565 70.4521 21.3219C70.4362 20.9715 70.4202 20.5891 70.4043 20.175C70.3884 19.7448 70.3724 19.3068 70.3565 18.8607C70.3406 18.4147 70.3326 18.0005 70.3326 17.6182V7.98846H72.3398V25.0496Z" fill="#667085"/>
<path d="M85.4282 20.4856C85.4282 21.5051 85.1813 22.3733 84.6875 23.0902C84.1937 23.7911 83.4848 24.3327 82.5608 24.715C81.6528 25.0974 80.5775 25.2885 79.335 25.2885C78.6978 25.2885 78.0845 25.2567 77.4951 25.1929C76.9216 25.1292 76.3959 25.0416 75.918 24.9301C75.4401 24.8026 75.0179 24.6513 74.6515 24.4761V22.4211C75.225 22.676 75.9339 22.907 76.7782 23.1141C77.6384 23.3211 78.5226 23.4247 79.4306 23.4247C80.2749 23.4247 80.9838 23.3132 81.5572 23.0902C82.1307 22.8671 82.5608 22.5485 82.8476 22.1344C83.1343 21.7202 83.2777 21.2343 83.2777 20.6768C83.2777 20.1192 83.1582 19.6493 82.9193 19.2669C82.6803 18.8846 82.2661 18.5342 81.6767 18.2156C81.1032 17.881 80.2988 17.5306 79.2633 17.1642C78.5305 16.8934 77.8853 16.6066 77.3278 16.304C76.7862 15.9854 76.3322 15.6269 75.9658 15.2287C75.5994 14.8304 75.3206 14.3764 75.1294 13.8667C74.9542 13.3569 74.8666 12.7675 74.8666 12.0984C74.8666 11.1904 75.0976 10.4178 75.5596 9.78059C76.0215 9.12746 76.6587 8.62567 77.4712 8.2752C78.2995 7.92474 79.2474 7.74951 80.3147 7.74951C81.2546 7.74951 82.1148 7.83713 82.8954 8.01236C83.6759 8.18759 84.3848 8.41857 85.022 8.70532L84.353 10.5452C83.7635 10.2904 83.1184 10.0753 82.4175 9.90007C81.7325 9.72484 81.0156 9.63722 80.2669 9.63722C79.55 9.63722 78.9527 9.74077 78.4748 9.94786C77.9969 10.155 77.6384 10.4497 77.3995 10.832C77.1605 11.1984 77.0411 11.6285 77.0411 12.1223C77.0411 12.6958 77.1605 13.1737 77.3995 13.556C77.6384 13.9383 78.0287 14.2808 78.5703 14.5835C79.112 14.8862 79.8447 15.2127 80.7687 15.5632C81.7723 15.9296 82.6166 16.3279 83.3016 16.758C84.0025 17.1721 84.5282 17.6739 84.8787 18.2634C85.245 18.8528 85.4282 19.5935 85.4282 20.4856Z" fill="#667085"/>
<path d="M93.0462 25.0496H90.8956V9.87617H85.567V7.98846H98.3509V9.87617H93.0462V25.0496Z" fill="#667085"/>
<path d="M108.729 25.0496L106.674 19.7687H99.912L97.8809 25.0496H95.7065L102.373 7.91678H104.309L110.952 25.0496H108.729ZM104.118 12.6958C104.07 12.5684 103.99 12.3374 103.879 12.0028C103.767 11.6683 103.656 11.3258 103.544 10.9753C103.448 10.609 103.369 10.3302 103.305 10.139C103.225 10.4576 103.138 10.7842 103.042 11.1187C102.963 11.4373 102.875 11.732 102.779 12.0028C102.7 12.2736 102.628 12.5046 102.564 12.6958L100.629 17.8571H106.029L104.118 12.6958Z" fill="#667085"/>
<path d="M118.911 9.63722C118.003 9.63722 117.183 9.79653 116.45 10.1151C115.717 10.4178 115.096 10.8718 114.586 11.4771C114.077 12.0666 113.686 12.7914 113.416 13.6516C113.145 14.4959 113.009 15.4517 113.009 16.519C113.009 17.9209 113.224 19.1395 113.655 20.175C114.101 21.2104 114.754 22.0069 115.614 22.5645C116.49 23.122 117.581 23.4008 118.888 23.4008C119.636 23.4008 120.345 23.3371 121.014 23.2096C121.683 23.0822 122.336 22.9229 122.974 22.7317V24.5956C122.336 24.8345 121.675 25.0097 120.99 25.1212C120.321 25.2328 119.517 25.2885 118.577 25.2885C116.841 25.2885 115.391 24.9301 114.228 24.2132C113.065 23.4964 112.189 22.4769 111.6 21.1547C111.026 19.8325 110.739 18.2793 110.739 16.4951C110.739 15.2048 110.915 14.026 111.265 12.9586C111.631 11.8913 112.157 10.9674 112.842 10.1868C113.543 9.40624 114.403 8.80886 115.423 8.39468C116.442 7.96457 117.613 7.74951 118.935 7.74951C119.812 7.74951 120.656 7.83713 121.468 8.01236C122.281 8.18759 123.005 8.4345 123.643 8.75311L122.782 10.5691C122.257 10.3302 121.667 10.1151 121.014 9.92397C120.377 9.7328 119.676 9.63722 118.911 9.63722Z" fill="#667085"/>
<path d="M137.951 25.0496H135.419L129.373 16.9013L127.629 18.4306V25.0496H125.478V7.98846H127.629V16.3995C128.107 15.8579 128.593 15.3163 129.086 14.7747C129.58 14.233 130.074 13.6914 130.568 13.1498L135.18 7.98846H137.689L130.926 15.4198L137.951 25.0496Z" fill="#667085"/>
<path d="M39.7951 25.0496H37.6445V9.87617H32.3159V7.98846H45.0998V9.87617H39.7951V25.0496Z" stroke="#667085" stroke-width="0.45"/>
<path d="M55.4782 25.0496L53.4232 19.7687H46.6609L44.6298 25.0496H42.4554L49.1221 7.91678H51.0576L57.7004 25.0496H55.4782ZM50.8664 12.6958C50.8186 12.5684 50.739 12.3374 50.6275 12.0028C50.516 11.6683 50.4045 11.3258 50.293 10.9753C50.1974 10.609 50.1177 10.3302 50.054 10.139C49.9743 10.4576 49.8867 10.7842 49.7912 11.1187C49.7115 11.4373 49.6239 11.732 49.5283 12.0028C49.4487 12.2736 49.377 12.5046 49.3133 12.6958L47.3777 17.8571H52.778L50.8664 12.6958Z" stroke="#667085" stroke-width="0.45"/>
<path d="M72.3398 25.0496H69.8308L60.7029 10.8798H60.6073C60.6232 11.1665 60.6392 11.4851 60.6551 11.8356C60.687 12.186 60.7109 12.5684 60.7268 12.9825C60.7427 13.3808 60.7586 13.795 60.7746 14.2251C60.7905 14.6552 60.7985 15.0853 60.7985 15.5154V25.0496H58.8152V7.98846H61.3003L70.4043 22.1105H70.4999C70.484 21.9193 70.468 21.6565 70.4521 21.3219C70.4362 20.9715 70.4202 20.5891 70.4043 20.175C70.3884 19.7448 70.3724 19.3068 70.3565 18.8607C70.3406 18.4147 70.3326 18.0005 70.3326 17.6182V7.98846H72.3398V25.0496Z" stroke="#667085" stroke-width="0.45"/>
<path d="M85.4282 20.4856C85.4282 21.5051 85.1813 22.3733 84.6875 23.0902C84.1937 23.7911 83.4848 24.3327 82.5608 24.715C81.6528 25.0974 80.5775 25.2885 79.335 25.2885C78.6978 25.2885 78.0845 25.2567 77.4951 25.1929C76.9216 25.1292 76.3959 25.0416 75.918 24.9301C75.4401 24.8026 75.0179 24.6513 74.6515 24.4761V22.4211C75.225 22.676 75.9339 22.907 76.7782 23.1141C77.6384 23.3211 78.5226 23.4247 79.4306 23.4247C80.2749 23.4247 80.9838 23.3132 81.5572 23.0902C82.1307 22.8671 82.5608 22.5485 82.8476 22.1344C83.1343 21.7202 83.2777 21.2343 83.2777 20.6768C83.2777 20.1192 83.1582 19.6493 82.9193 19.2669C82.6803 18.8846 82.2661 18.5342 81.6767 18.2156C81.1032 17.881 80.2988 17.5306 79.2633 17.1642C78.5305 16.8934 77.8853 16.6066 77.3278 16.304C76.7862 15.9854 76.3322 15.6269 75.9658 15.2287C75.5994 14.8304 75.3206 14.3764 75.1294 13.8667C74.9542 13.3569 74.8666 12.7675 74.8666 12.0984C74.8666 11.1904 75.0976 10.4178 75.5596 9.78059C76.0215 9.12746 76.6587 8.62567 77.4712 8.2752C78.2995 7.92474 79.2474 7.74951 80.3147 7.74951C81.2546 7.74951 82.1148 7.83713 82.8954 8.01236C83.6759 8.18759 84.3848 8.41857 85.022 8.70532L84.353 10.5452C83.7635 10.2904 83.1184 10.0753 82.4175 9.90007C81.7325 9.72484 81.0156 9.63722 80.2669 9.63722C79.55 9.63722 78.9527 9.74077 78.4748 9.94786C77.9969 10.155 77.6384 10.4497 77.3995 10.832C77.1605 11.1984 77.0411 11.6285 77.0411 12.1223C77.0411 12.6958 77.1605 13.1737 77.3995 13.556C77.6384 13.9383 78.0287 14.2808 78.5703 14.5835C79.112 14.8862 79.8447 15.2127 80.7687 15.5632C81.7723 15.9296 82.6166 16.3279 83.3016 16.758C84.0025 17.1721 84.5282 17.6739 84.8787 18.2634C85.245 18.8528 85.4282 19.5935 85.4282 20.4856Z" stroke="#667085" stroke-width="0.45"/>
<path d="M93.0462 25.0496H90.8956V9.87617H85.567V7.98846H98.3509V9.87617H93.0462V25.0496Z" stroke="#667085" stroke-width="0.45"/>
<path d="M108.729 25.0496L106.674 19.7687H99.912L97.8809 25.0496H95.7065L102.373 7.91678H104.309L110.952 25.0496H108.729ZM104.118 12.6958C104.07 12.5684 103.99 12.3374 103.879 12.0028C103.767 11.6683 103.656 11.3258 103.544 10.9753C103.448 10.609 103.369 10.3302 103.305 10.139C103.225 10.4576 103.138 10.7842 103.042 11.1187C102.963 11.4373 102.875 11.732 102.779 12.0028C102.7 12.2736 102.628 12.5046 102.564 12.6958L100.629 17.8571H106.029L104.118 12.6958Z" stroke="#667085" stroke-width="0.45"/>
<path d="M118.911 9.63722C118.003 9.63722 117.183 9.79653 116.45 10.1151C115.717 10.4178 115.096 10.8718 114.586 11.4771C114.077 12.0666 113.686 12.7914 113.416 13.6516C113.145 14.4959 113.009 15.4517 113.009 16.519C113.009 17.9209 113.224 19.1395 113.655 20.175C114.101 21.2104 114.754 22.0069 115.614 22.5645C116.49 23.122 117.581 23.4008 118.888 23.4008C119.636 23.4008 120.345 23.3371 121.014 23.2096C121.683 23.0822 122.336 22.9229 122.974 22.7317V24.5956C122.336 24.8345 121.675 25.0097 120.99 25.1212C120.321 25.2328 119.517 25.2885 118.577 25.2885C116.841 25.2885 115.391 24.9301 114.228 24.2132C113.065 23.4964 112.189 22.4769 111.6 21.1547C111.026 19.8325 110.739 18.2793 110.739 16.4951C110.739 15.2048 110.915 14.026 111.265 12.9586C111.631 11.8913 112.157 10.9674 112.842 10.1868C113.543 9.40624 114.403 8.80886 115.423 8.39468C116.442 7.96457 117.613 7.74951 118.935 7.74951C119.812 7.74951 120.656 7.83713 121.468 8.01236C122.281 8.18759 123.005 8.4345 123.643 8.75311L122.782 10.5691C122.257 10.3302 121.667 10.1151 121.014 9.92397C120.377 9.7328 119.676 9.63722 118.911 9.63722Z" stroke="#667085" stroke-width="0.45"/>
<path d="M137.951 25.0496H135.419L129.373 16.9013L127.629 18.4306V25.0496H125.478V7.98846H127.629V16.3995C128.107 15.8579 128.593 15.3163 129.086 14.7747C129.58 14.233 130.074 13.6914 130.568 13.1498L135.18 7.98846H137.689L130.926 15.4198L137.951 25.0496Z" stroke="#667085" stroke-width="0.45"/>
<ellipse cx="13.3161" cy="16.298" rx="13.0002" ry="13.0001" fill="white"/>
<mask id="mask0_11802_32312" style="mask-type:luminance" maskUnits="userSpaceOnUse" x="0" y="3" width="27" height="27">
<ellipse cx="13.3161" cy="16.298" rx="13.0002" ry="13.0001" fill="white"/>
</mask>
<g mask="url(#mask0_11802_32312)">
<path d="M12.801 28.3737C12.801 32.5298 8.92333 36.0123 3.99047 36.0123C-0.942402 36.0123 -4.82006 32.5298 -4.82006 28.3737C-4.82006 24.2176 -0.942402 20.7351 3.99047 20.7351C8.92333 20.7351 12.801 24.2176 12.801 28.3737Z" stroke="#667085" stroke-width="1.02687"/>
<path d="M31.4494 28.3737C31.4494 32.5298 27.5718 36.0123 22.6389 36.0123C17.706 36.0123 13.8284 32.5298 13.8284 28.3737C13.8284 24.2176 17.706 20.7351 22.6389 20.7351C27.5718 20.7351 31.4494 24.2176 31.4494 28.3737Z" stroke="#667085" stroke-width="1.02687"/>
<path d="M12.801 29.9352C12.801 34.0913 8.92333 37.5738 3.99047 37.5738C-0.942402 37.5738 -4.82006 34.0913 -4.82006 29.9352C-4.82006 25.7792 -0.942402 22.2966 3.99047 22.2966C8.92333 22.2966 12.801 25.7792 12.801 29.9352Z" stroke="#667085" stroke-width="1.02687"/>
<path d="M31.4494 29.9352C31.4494 34.0913 27.5718 37.5738 22.6389 37.5738C17.706 37.5738 13.8284 34.0913 13.8284 29.9352C13.8284 25.7792 17.706 22.2966 22.6389 22.2966C27.5718 22.2966 31.4494 25.7792 31.4494 29.9352Z" stroke="#667085" stroke-width="1.02687"/>
<path d="M12.801 31.4137C12.801 35.5698 8.92333 39.0523 3.99047 39.0523C-0.942402 39.0523 -4.82006 35.5698 -4.82006 31.4137C-4.82006 27.2577 -0.942402 23.7752 3.99047 23.7752C8.92333 23.7752 12.801 27.2577 12.801 31.4137Z" stroke="#667085" stroke-width="1.02687"/>
<path d="M31.4494 31.4137C31.4494 35.5698 27.5718 39.0523 22.6389 39.0523C17.706 39.0523 13.8284 35.5698 13.8284 31.4137C13.8284 27.2577 17.706 23.7752 22.6389 23.7752C27.5718 23.7752 31.4494 27.2577 31.4494 31.4137Z" stroke="#667085" stroke-width="1.02687"/>
<path d="M23.7285 32.6876C23.7285 39.6711 18.9866 45.1744 13.316 45.1744C7.64538 45.1744 2.90357 39.6711 2.90357 32.6876C2.90357 25.7042 7.64538 20.2009 13.316 20.2009C18.9866 20.2009 23.7285 25.7042 23.7285 32.6876Z" fill="white" stroke="#667085" stroke-width="1.02687"/>
<path d="M27.732 6.97399C27.732 9.28785 25.8562 11.1636 23.5424 11.1636C21.2285 11.1636 19.3527 9.28785 19.3527 6.97399C19.3527 4.66013 21.2285 2.78437 23.5424 2.78437C25.8562 2.78437 27.732 4.66013 27.732 6.97399Z" fill="white" stroke="#667085" stroke-width="0.944719"/>
<path d="M17.8958 6.99371H16.6636" stroke="#667085" stroke-width="0.492897" stroke-linecap="round" stroke-linejoin="bevel"/>
<path d="M18.0392 5.61947L16.9507 5.39355" stroke="#667085" stroke-width="0.492897" stroke-linecap="round" stroke-linejoin="bevel"/>
<path d="M18.0579 8.3501L16.8667 8.6787" stroke="#667085" stroke-width="0.492897" stroke-linecap="round" stroke-linejoin="bevel"/>
<path d="M18.5117 9.62354L17.5259 10.1575" stroke="#667085" stroke-width="0.492897" stroke-linecap="round" stroke-linejoin="bevel"/>
<path d="M19.4138 10.7319L18.5923 11.5124" stroke="#667085" stroke-width="0.492897" stroke-linecap="round" stroke-linejoin="bevel"/>
<path d="M20.5404 11.6772L19.9722 12.6157" stroke="#667085" stroke-width="0.492897" stroke-linecap="round" stroke-linejoin="bevel"/>
<path d="M21.9013 12.3565L21.5933 13.3628" stroke="#667085" stroke-width="0.492897" stroke-linecap="round" stroke-linejoin="bevel"/>
<path d="M23.5435 12.7256L23.564 13.7319" stroke="#667085" stroke-width="0.492897" stroke-linecap="round" stroke-linejoin="bevel"/>
</g>
<path d="M25.5662 16.298C25.5662 23.0636 20.0816 28.5481 13.3161 28.5481C6.5505 28.5481 1.06592 23.0636 1.06592 16.298C1.06592 9.53243 6.5505 4.04785 13.3161 4.04785C20.0816 4.04785 25.5662 9.53243 25.5662 16.298Z" stroke="#667085" stroke-width="1.5"/>
<mask id="mask1_11802_32312" style="mask-type:luminance" maskUnits="userSpaceOnUse" x="0" y="3" width="27" height="27">
<path d="M25.9412 16.298C25.9412 23.2707 20.2887 28.9231 13.3161 28.9231C6.34339 28.9231 0.690918 23.2707 0.690918 16.298C0.690918 9.32532 6.34339 3.67285 13.3161 3.67285C20.2887 3.67285 25.9412 9.32532 25.9412 16.298Z" fill="white" stroke="white" stroke-width="0.75"/>
</mask>
<g mask="url(#mask1_11802_32312)">
<path fill-rule="evenodd" clip-rule="evenodd" d="M8.25413 11.6349C8.58558 13.1661 8.82904 14.6593 8.98451 16.1145C9.13998 17.5697 9.09964 19.2013 8.86347 21.0093L11.3786 20.3249C10.7368 17.8996 10.3451 16.3037 10.2036 15.5372C10.062 14.7708 9.75865 13.4077 9.29357 11.448L8.25413 11.6349Z" fill="#667085"/>
<path fill-rule="evenodd" clip-rule="evenodd" d="M8.36426 10.8517C8.36426 10.8517 7.84671 9.94325 6.86691 9.62382C5.8871 9.3044 4.58719 10.079 4.58719 10.079C4.58719 10.079 5.56694 10.9574 6.25839 11.1029C6.94983 11.2483 8.36426 10.8517 8.36426 10.8517Z" fill="white" stroke="#667085" stroke-width="0.533971"/>
<path fill-rule="evenodd" clip-rule="evenodd" d="M8.36192 10.8758C8.36192 10.8758 6.4108 10.5255 4.94409 11.5213C3.47738 12.5171 3.64652 15.602 3.64652 15.602C3.64652 15.602 5.51566 13.8869 6.32641 13.0601C7.13716 12.2333 8.36192 10.8758 8.36192 10.8758Z" fill="white" stroke="#667085" stroke-width="0.533971"/>
<path fill-rule="evenodd" clip-rule="evenodd" d="M8.36304 10.8501C8.36304 10.8501 8.31101 9.50063 9.21054 8.87007C10.1101 8.23952 11.0776 8.24001 11.0776 8.24001C11.0776 8.24001 10.704 9.5561 10.0441 10.0208C9.38423 10.4856 8.36304 10.8501 8.36304 10.8501Z" fill="white" stroke="#667085" stroke-width="0.533971"/>
<path fill-rule="evenodd" clip-rule="evenodd" d="M8.3623 10.8771C8.3623 10.8771 10.3274 9.02642 12.3344 9.68426C14.3413 10.3421 14.5774 12.111 14.5774 12.111C14.5774 12.111 12.4103 11.7706 11.4635 11.6145C10.5167 11.4585 8.3623 10.8771 8.3623 10.8771Z" fill="white" stroke="#667085" stroke-width="0.533971"/>
<path fill-rule="evenodd" clip-rule="evenodd" d="M8.36213 10.8766C8.36213 10.8766 10.5696 10.4101 12.0256 11.7788C13.4816 13.1474 13.7627 15.0785 13.7627 15.0785C13.7627 15.0785 11.3131 14.4802 10.251 13.3382C9.18878 12.1962 8.36213 10.8766 8.36213 10.8766Z" fill="white" stroke="#667085" stroke-width="0.533971"/>
<path fill-rule="evenodd" clip-rule="evenodd" d="M8.36195 10.8763C8.36195 10.8763 6.29278 11.7272 5.89195 13.572C5.49113 15.4167 6.24926 17.6635 6.24926 17.6635C6.24926 17.6635 7.9365 15.1821 8.19568 14.049C8.45485 12.9159 8.36195 10.8763 8.36195 10.8763Z" fill="white" stroke="#667085" stroke-width="0.533971"/>
<path d="M8.42396 10.7844C8.42396 10.7844 7.51123 12.1158 7.15806 13.2238C6.80489 14.3318 6.70014 15.0767 6.70014 15.0767" stroke="#667085" stroke-width="0.328598" stroke-linecap="round"/>
<path d="M8.35798 10.9244C8.35798 10.9244 6.85399 11.0306 5.97336 11.8209C5.09272 12.6112 4.68758 13.3744 4.68758 13.3744" stroke="#667085" stroke-width="0.328598" stroke-linecap="round"/>
<path d="M8.75651 10.5421C8.75651 10.5421 10.5869 10.1274 11.5093 10.3348C12.4317 10.5421 12.9815 10.9861 12.9815 10.9861" stroke="#667085" stroke-width="0.328598" stroke-linecap="round"/>
<path d="M8.42529 10.75C8.42529 10.75 9.67349 11.3584 10.6396 12.061C11.6057 12.7635 12.0804 13.377 12.0804 13.377" stroke="#667085" stroke-width="0.328598" stroke-linecap="round"/>
<path fill-rule="evenodd" clip-rule="evenodd" d="M14.4906 18.2078L18.5022 18.9152C18.5022 18.9152 18.8586 19.0462 18.7942 19.4115C18.7298 19.7767 18.3433 19.8163 18.3433 19.8163L13.9905 19.0488L11.6297 16.6167C11.6297 16.6167 11.433 16.3184 11.661 16.0906C11.8891 15.8627 12.2227 16.0035 12.2227 16.0035L14.4906 18.2078Z" stroke="#667085" stroke-width="0.451822" stroke-linecap="round" stroke-linejoin="bevel"/>
<path d="M18.2664 19.8607L18.0596 21.0338" stroke="#667085" stroke-width="0.451822" stroke-linecap="round" stroke-linejoin="bevel"/>
<path d="M12.3094 17.3246L11.86 19.873" stroke="#667085" stroke-width="0.451822" stroke-linecap="round" stroke-linejoin="bevel"/>
<path d="M14.0316 19.0767L13.8536 20.189" stroke="#667085" stroke-width="0.451822" stroke-linecap="round" stroke-linejoin="bevel"/>
<path d="M17.9474 19.0891L17.9828 18.8223" stroke="#667085" stroke-width="0.451822" stroke-linecap="round" stroke-linejoin="bevel"/>
<path d="M16.5929 18.885L16.6283 18.6182" stroke="#667085" stroke-width="0.451822" stroke-linecap="round" stroke-linejoin="bevel"/>
<path d="M15.2362 18.6414L15.2722 18.3905" stroke="#667085" stroke-width="0.451822" stroke-linecap="round" stroke-linejoin="bevel"/>
<path d="M13.6751 17.7271L13.8462 17.5669" stroke="#667085" stroke-width="0.451822" stroke-linecap="round" stroke-linejoin="bevel"/>
<path d="M12.8128 16.9044L12.9839 16.7441" stroke="#667085" stroke-width="0.451822" stroke-linecap="round" stroke-linejoin="bevel"/>
</g>
</g>
<defs>
<clipPath id="clip0_11802_32312">
<rect width="138.6" height="30.6" fill="white" transform="translate(0.0874023 0.700195)"/>
</clipPath>
</defs>
</svg>
