<svg width="76" height="84" viewBox="0 0 76 84" fill="none" xmlns="http://www.w3.org/2000/svg">
<g filter="url(#filter0_dddd_11900_2306)">
<g clip-path="url(#clip0_11900_2306)">
<rect x="6" y="1" width="64" height="64" rx="14.6286" fill="white"/>
<rect x="6" y="1" width="64" height="64" rx="14.6286" fill="url(#paint0_linear_11900_2306)" fill-opacity="0.32"/>
<g filter="url(#filter1_ddddd_11900_2306)">
<g clip-path="url(#clip1_11900_2306)">
<rect x="18.2588" y="21.3069" width="38.9774" height="28.1504" rx="3.89777" fill="white"/>
<rect x="18.2588" y="21.3069" width="38.9774" height="28.1504" rx="3.89777" fill="url(#paint1_linear_11900_2306)" fill-opacity="0.12"/>
<g opacity="0.8" filter="url(#filter2_ddd_11900_2306)">
<path fill-rule="evenodd" clip-rule="evenodd" d="M47.4398 30.8189C48.0765 31.5195 48.0248 32.6037 47.3242 33.2404L41.8385 38.2261C41.248 38.7628 40.3653 38.8211 39.7094 38.3667L35.3442 35.3428L30.8673 39.4118C30.1666 40.0485 29.0825 39.9968 28.4457 39.2962C27.8089 38.5955 27.8607 37.5114 28.5613 36.8746L34.0469 31.8889C34.6374 31.3522 35.5201 31.2939 36.1761 31.7483L40.5413 34.7722L45.0182 30.7032C45.7188 30.0665 46.803 30.1182 47.4398 30.8189Z" fill="#0098FF"/>
<path fill-rule="evenodd" clip-rule="evenodd" d="M47.4398 30.8189C48.0765 31.5195 48.0248 32.6037 47.3242 33.2404L41.8385 38.2261C41.248 38.7628 40.3653 38.8211 39.7094 38.3667L35.3442 35.3428L30.8673 39.4118C30.1666 40.0485 29.0825 39.9968 28.4457 39.2962C27.8089 38.5955 27.8607 37.5114 28.5613 36.8746L34.0469 31.8889C34.6374 31.3522 35.5201 31.2939 36.1761 31.7483L40.5413 34.7722L45.0182 30.7032C45.7188 30.0665 46.803 30.1182 47.4398 30.8189Z" fill="url(#paint2_radial_11900_2306)" fill-opacity="0.32"/>
</g>
</g>
</g>
<g filter="url(#filter3_dddd_11900_2306)">
<path fill-rule="evenodd" clip-rule="evenodd" d="M52.3179 12.5044C52.6502 11.8966 53.2876 11.5187 53.9803 11.5187C54.673 11.5187 55.3104 11.8966 55.6427 12.5044L57.1196 15.205C57.2935 15.523 57.5549 15.7844 57.8729 15.9583L60.5735 17.4352C61.1813 17.7675 61.5593 18.405 61.5593 19.0976C61.5593 19.7903 61.1813 20.4277 60.5735 20.7601L57.8729 22.2369C57.5549 22.4108 57.2935 22.6722 57.1196 22.9902L55.6427 25.6908C55.3104 26.2986 54.673 26.6766 53.9803 26.6766C53.2876 26.6766 52.6502 26.2986 52.3179 25.6908L50.841 22.9902C50.6671 22.6722 50.4057 22.4108 50.0877 22.2369L47.3871 20.7601C46.7793 20.4277 46.4014 19.7903 46.4014 19.0976C46.4014 18.405 46.7793 17.7675 47.3871 17.4352L50.0877 15.9583C50.4057 15.7844 50.6671 15.523 50.841 15.205L52.3179 12.5044Z" fill="#0098FF"/>
<path fill-rule="evenodd" clip-rule="evenodd" d="M52.3179 12.5044C52.6502 11.8966 53.2876 11.5187 53.9803 11.5187C54.673 11.5187 55.3104 11.8966 55.6427 12.5044L57.1196 15.205C57.2935 15.523 57.5549 15.7844 57.8729 15.9583L60.5735 17.4352C61.1813 17.7675 61.5593 18.405 61.5593 19.0976C61.5593 19.7903 61.1813 20.4277 60.5735 20.7601L57.8729 22.2369C57.5549 22.4108 57.2935 22.6722 57.1196 22.9902L55.6427 25.6908C55.3104 26.2986 54.673 26.6766 53.9803 26.6766C53.2876 26.6766 52.6502 26.2986 52.3179 25.6908L50.841 22.9902C50.6671 22.6722 50.4057 22.4108 50.0877 22.2369L47.3871 20.7601C46.7793 20.4277 46.4014 19.7903 46.4014 19.0976C46.4014 18.405 46.7793 17.7675 47.3871 17.4352L50.0877 15.9583C50.4057 15.7844 50.6671 15.523 50.841 15.205L52.3179 12.5044Z" fill="url(#paint3_linear_11900_2306)" fill-opacity="0.24"/>
<path d="M52.719 12.7237L52.719 12.7237C52.9711 12.2626 53.4548 11.9758 53.9803 11.9758C54.5059 11.9758 54.9895 12.2626 55.2416 12.7237L55.2417 12.7237L56.7185 15.4243C56.7185 15.4243 56.7185 15.4243 56.7185 15.4244C56.9344 15.819 57.2589 16.1436 57.6536 16.3594C57.6536 16.3594 57.6536 16.3594 57.6536 16.3594L60.3542 17.8363L60.3542 17.8363C60.8153 18.0884 61.1021 18.5721 61.1021 19.0976C61.1021 19.6232 60.8153 20.1068 60.3542 20.359L60.3542 20.359L57.6536 21.8358C57.6536 21.8358 57.6536 21.8358 57.6536 21.8358C57.2589 22.0517 56.9344 22.3762 56.7185 22.7709C56.7185 22.7709 56.7185 22.7709 56.7185 22.7709L55.2417 25.4715L55.2416 25.4715C54.9895 25.9326 54.5059 26.2194 53.9803 26.2194C53.4548 26.2194 52.9711 25.9326 52.719 25.4715L52.719 25.4715L51.2421 22.7709C51.2421 22.7709 51.2421 22.7709 51.2421 22.7709C51.0262 22.3762 50.7017 22.0517 50.307 21.8358C50.307 21.8358 50.307 21.8358 50.307 21.8358L47.6064 20.359L47.6064 20.359C47.1453 20.1068 46.8585 19.6232 46.8585 19.0976C46.8585 18.5721 47.1453 18.0884 47.6064 17.8363L47.6064 17.8363L50.307 16.3594C50.7017 16.1436 51.0263 15.819 51.2421 15.4243L52.719 12.7237Z" stroke="url(#paint4_linear_11900_2306)" stroke-opacity="0.48" stroke-width="0.914286" stroke-linecap="round" stroke-linejoin="round"/>
</g>
<g opacity="0.4" filter="url(#filter4_dddd_11900_2306)">
<path fill-rule="evenodd" clip-rule="evenodd" d="M42.2031 8.83377C42.393 8.48649 42.7573 8.27051 43.1531 8.27051C43.5489 8.27051 43.9132 8.48649 44.1031 8.83377L44.947 10.377C45.0463 10.5587 45.1957 10.7081 45.3774 10.8074L46.9206 11.6514C47.2679 11.8413 47.4839 12.2055 47.4839 12.6013C47.4839 12.9971 47.2679 13.3614 46.9206 13.5513L45.3774 14.3952C45.1957 14.4946 45.0463 14.644 44.947 14.8257L44.1031 16.3689C43.9132 16.7162 43.5489 16.9322 43.1531 16.9322C42.7573 16.9322 42.393 16.7162 42.2031 16.3689L41.3592 14.8257C41.2598 14.644 41.1104 14.4946 40.9287 14.3952L39.3855 13.5513C39.0382 13.3614 38.8223 12.9971 38.8223 12.6013C38.8223 12.2055 39.0382 11.8413 39.3855 11.6514L40.9287 10.8074C41.1104 10.7081 41.2598 10.5587 41.3592 10.377L42.2031 8.83377Z" fill="#0098FF"/>
<path fill-rule="evenodd" clip-rule="evenodd" d="M42.2031 8.83377C42.393 8.48649 42.7573 8.27051 43.1531 8.27051C43.5489 8.27051 43.9132 8.48649 44.1031 8.83377L44.947 10.377C45.0463 10.5587 45.1957 10.7081 45.3774 10.8074L46.9206 11.6514C47.2679 11.8413 47.4839 12.2055 47.4839 12.6013C47.4839 12.9971 47.2679 13.3614 46.9206 13.5513L45.3774 14.3952C45.1957 14.4946 45.0463 14.644 44.947 14.8257L44.1031 16.3689C43.9132 16.7162 43.5489 16.9322 43.1531 16.9322C42.7573 16.9322 42.393 16.7162 42.2031 16.3689L41.3592 14.8257C41.2598 14.644 41.1104 14.4946 40.9287 14.3952L39.3855 13.5513C39.0382 13.3614 38.8223 12.9971 38.8223 12.6013C38.8223 12.2055 39.0382 11.8413 39.3855 11.6514L40.9287 10.8074C41.1104 10.7081 41.2598 10.5587 41.3592 10.377L42.2031 8.83377Z" fill="url(#paint5_linear_11900_2306)" fill-opacity="0.24"/>
<path d="M42.4037 8.94344L42.4037 8.94343C42.5535 8.66947 42.8408 8.49908 43.1531 8.49908C43.4653 8.49908 43.7527 8.66947 43.9025 8.94343L43.9025 8.94344L44.7464 10.4866C44.7464 10.4867 44.7464 10.4867 44.7464 10.4867C44.8668 10.7067 45.0477 10.8876 45.2678 11.008C45.2678 11.008 45.2678 11.008 45.2678 11.008L46.811 11.8519L46.811 11.8519C47.085 12.0017 47.2553 12.2891 47.2553 12.6013C47.2553 12.9136 47.085 13.2009 46.811 13.3507L46.811 13.3508L45.2678 14.1947C45.2678 14.1947 45.2678 14.1947 45.2678 14.1947C45.0477 14.315 44.8668 14.4959 44.7464 14.716C44.7464 14.716 44.7464 14.716 44.7464 14.716L43.9025 16.2592L43.9025 16.2592C43.7527 16.5332 43.4653 16.7036 43.1531 16.7036C42.8408 16.7036 42.5535 16.5332 42.4037 16.2592L42.4037 16.2592L41.5597 14.716C41.5597 14.716 41.5597 14.716 41.5597 14.716C41.4394 14.4959 41.2585 14.315 41.0384 14.1947C41.0384 14.1947 41.0384 14.1947 41.0384 14.1947L39.4952 13.3508L39.4952 13.3507C39.2212 13.2009 39.0508 12.9136 39.0508 12.6013C39.0508 12.2891 39.2212 12.0017 39.4952 11.8519L39.4952 11.8519L41.0384 11.008C41.0384 11.008 41.0384 11.008 41.0384 11.008C41.2585 10.8876 41.4394 10.7067 41.5597 10.4867C41.5597 10.4867 41.5597 10.4867 41.5597 10.4866L42.4037 8.94344Z" stroke="url(#paint6_linear_11900_2306)" stroke-opacity="0.5" stroke-width="0.457143" stroke-linecap="round" stroke-linejoin="round"/>
</g>
</g>
<rect x="7.5" y="2.5" width="61" height="61" rx="13.1286" stroke="url(#paint7_linear_11900_2306)" stroke-opacity="0.56" stroke-width="3"/>
</g>
<defs>
<filter id="filter0_dddd_11900_2306" x="0.514286" y="0.0857143" width="74.9714" height="83.2" filterUnits="userSpaceOnUse" color-interpolation-filters="sRGB">
<feFlood flood-opacity="0" result="BackgroundImageFix"/>
<feColorMatrix in="SourceAlpha" type="matrix" values="0 0 0 0 0 0 0 0 0 0 0 0 0 0 0 0 0 0 127 0" result="hardAlpha"/>
<feOffset dy="0.914286"/>
<feGaussianBlur stdDeviation="0.914286"/>
<feColorMatrix type="matrix" values="0 0 0 0 0.0941176 0 0 0 0 0.133333 0 0 0 0 0.188235 0 0 0 0.08 0"/>
<feBlend mode="normal" in2="BackgroundImageFix" result="effect1_dropShadow_11900_2306"/>
<feColorMatrix in="SourceAlpha" type="matrix" values="0 0 0 0 0 0 0 0 0 0 0 0 0 0 0 0 0 0 127 0" result="hardAlpha"/>
<feOffset dy="2.74286"/>
<feGaussianBlur stdDeviation="1.37143"/>
<feColorMatrix type="matrix" values="0 0 0 0 0.0941176 0 0 0 0 0.133333 0 0 0 0 0.188235 0 0 0 0.07 0"/>
<feBlend mode="normal" in2="effect1_dropShadow_11900_2306" result="effect2_dropShadow_11900_2306"/>
<feColorMatrix in="SourceAlpha" type="matrix" values="0 0 0 0 0 0 0 0 0 0 0 0 0 0 0 0 0 0 127 0" result="hardAlpha"/>
<feOffset dy="7.31429"/>
<feGaussianBlur stdDeviation="2.28571"/>
<feColorMatrix type="matrix" values="0 0 0 0 0.0941176 0 0 0 0 0.133333 0 0 0 0 0.188235 0 0 0 0.04 0"/>
<feBlend mode="normal" in2="effect2_dropShadow_11900_2306" result="effect3_dropShadow_11900_2306"/>
<feColorMatrix in="SourceAlpha" type="matrix" values="0 0 0 0 0 0 0 0 0 0 0 0 0 0 0 0 0 0 127 0" result="hardAlpha"/>
<feOffset dy="12.8"/>
<feGaussianBlur stdDeviation="2.74286"/>
<feColorMatrix type="matrix" values="0 0 0 0 0.0941176 0 0 0 0 0.133333 0 0 0 0 0.188235 0 0 0 0.01 0"/>
<feBlend mode="normal" in2="effect3_dropShadow_11900_2306" result="effect4_dropShadow_11900_2306"/>
<feBlend mode="normal" in="SourceGraphic" in2="effect4_dropShadow_11900_2306" result="shape"/>
</filter>
<filter id="filter1_ddddd_11900_2306" x="12.7731" y="20.3926" width="49.949" height="47.3504" filterUnits="userSpaceOnUse" color-interpolation-filters="sRGB">
<feFlood flood-opacity="0" result="BackgroundImageFix"/>
<feColorMatrix in="SourceAlpha" type="matrix" values="0 0 0 0 0 0 0 0 0 0 0 0 0 0 0 0 0 0 127 0" result="hardAlpha"/>
<feOffset dy="0.914286"/>
<feGaussianBlur stdDeviation="0.914286"/>
<feColorMatrix type="matrix" values="0 0 0 0 0 0 0 0 0 0.129412 0 0 0 0 0.301961 0 0 0 0.13 0"/>
<feBlend mode="normal" in2="BackgroundImageFix" result="effect1_dropShadow_11900_2306"/>
<feColorMatrix in="SourceAlpha" type="matrix" values="0 0 0 0 0 0 0 0 0 0 0 0 0 0 0 0 0 0 127 0" result="hardAlpha"/>
<feOffset dy="3.65714"/>
<feGaussianBlur stdDeviation="1.82857"/>
<feColorMatrix type="matrix" values="0 0 0 0 0 0 0 0 0 0.129412 0 0 0 0 0.301961 0 0 0 0.11 0"/>
<feBlend mode="normal" in2="effect1_dropShadow_11900_2306" result="effect2_dropShadow_11900_2306"/>
<feColorMatrix in="SourceAlpha" type="matrix" values="0 0 0 0 0 0 0 0 0 0 0 0 0 0 0 0 0 0 127 0" result="hardAlpha"/>
<feOffset dy="7.31429"/>
<feGaussianBlur stdDeviation="2.28571"/>
<feColorMatrix type="matrix" values="0 0 0 0 0 0 0 0 0 0.129412 0 0 0 0 0.301961 0 0 0 0.07 0"/>
<feBlend mode="normal" in2="effect2_dropShadow_11900_2306" result="effect3_dropShadow_11900_2306"/>
<feColorMatrix in="SourceAlpha" type="matrix" values="0 0 0 0 0 0 0 0 0 0 0 0 0 0 0 0 0 0 127 0" result="hardAlpha"/>
<feOffset dy="12.8"/>
<feGaussianBlur stdDeviation="2.74286"/>
<feColorMatrix type="matrix" values="0 0 0 0 0 0 0 0 0 0.129412 0 0 0 0 0.301961 0 0 0 0.02 0"/>
<feBlend mode="normal" in2="effect3_dropShadow_11900_2306" result="effect4_dropShadow_11900_2306"/>
<feColorMatrix in="SourceAlpha" type="matrix" values="0 0 0 0 0 0 0 0 0 0 0 0 0 0 0 0 0 0 127 0" result="hardAlpha"/>
<feMorphology radius="0.914286" operator="dilate" in="SourceAlpha" result="effect5_dropShadow_11900_2306"/>
<feOffset/>
<feColorMatrix type="matrix" values="0 0 0 0 0 0 0 0 0 0.129412 0 0 0 0 0.301961 0 0 0 0.06 0"/>
<feBlend mode="normal" in2="effect4_dropShadow_11900_2306" result="effect5_dropShadow_11900_2306"/>
<feBlend mode="normal" in="SourceGraphic" in2="effect5_dropShadow_11900_2306" result="shape"/>
</filter>
<filter id="filter2_ddd_11900_2306" x="17.0286" y="19.9719" width="41.8286" height="31.5428" filterUnits="userSpaceOnUse" color-interpolation-filters="sRGB">
<feFlood flood-opacity="0" result="BackgroundImageFix"/>
<feColorMatrix in="SourceAlpha" type="matrix" values="0 0 0 0 0 0 0 0 0 0 0 0 0 0 0 0 0 0 127 0" result="hardAlpha"/>
<feOffset dy="0.723799"/>
<feComposite in2="hardAlpha" operator="out"/>
<feColorMatrix type="matrix" values="0 0 0 0 0.0836999 0 0 0 0 0.43895 0 0 0 0 0.9363 0 0 0 0.24 0"/>
<feBlend mode="normal" in2="BackgroundImageFix" result="effect1_dropShadow_11900_2306"/>
<feColorMatrix in="SourceAlpha" type="matrix" values="0 0 0 0 0 0 0 0 0 0 0 0 0 0 0 0 0 0 127 0" result="hardAlpha"/>
<feOffset dy="0.685714"/>
<feGaussianBlur stdDeviation="5.48571"/>
<feComposite in2="hardAlpha" operator="out"/>
<feColorMatrix type="matrix" values="0 0 0 0 0.0836999 0 0 0 0 0.43895 0 0 0 0 0.9363 0 0 0 0.4 0"/>
<feBlend mode="normal" in2="effect1_dropShadow_11900_2306" result="effect2_dropShadow_11900_2306"/>
<feColorMatrix in="SourceAlpha" type="matrix" values="0 0 0 0 0 0 0 0 0 0 0 0 0 0 0 0 0 0 127 0" result="hardAlpha"/>
<feOffset dy="0.685714"/>
<feGaussianBlur stdDeviation="2.05714"/>
<feComposite in2="hardAlpha" operator="out"/>
<feColorMatrix type="matrix" values="0 0 0 0 0.0836999 0 0 0 0 0.43895 0 0 0 0 0.9363 0 0 0 0.4 0"/>
<feBlend mode="normal" in2="effect2_dropShadow_11900_2306" result="effect3_dropShadow_11900_2306"/>
<feBlend mode="normal" in="SourceGraphic" in2="effect3_dropShadow_11900_2306" result="shape"/>
</filter>
<filter id="filter3_dddd_11900_2306" x="43.6585" y="10.6044" width="20.6439" height="24.3008" filterUnits="userSpaceOnUse" color-interpolation-filters="sRGB">
<feFlood flood-opacity="0" result="BackgroundImageFix"/>
<feColorMatrix in="SourceAlpha" type="matrix" values="0 0 0 0 0 0 0 0 0 0 0 0 0 0 0 0 0 0 127 0" result="hardAlpha"/>
<feOffset/>
<feGaussianBlur stdDeviation="0.457143"/>
<feColorMatrix type="matrix" values="0 0 0 0 0 0 0 0 0 0.215686 0 0 0 0 0.380392 0 0 0 0.14 0"/>
<feBlend mode="normal" in2="BackgroundImageFix" result="effect1_dropShadow_11900_2306"/>
<feColorMatrix in="SourceAlpha" type="matrix" values="0 0 0 0 0 0 0 0 0 0 0 0 0 0 0 0 0 0 127 0" result="hardAlpha"/>
<feOffset dy="1.82857"/>
<feGaussianBlur stdDeviation="0.914286"/>
<feColorMatrix type="matrix" values="0 0 0 0 0 0 0 0 0 0.215686 0 0 0 0 0.380392 0 0 0 0.12 0"/>
<feBlend mode="normal" in2="effect1_dropShadow_11900_2306" result="effect2_dropShadow_11900_2306"/>
<feColorMatrix in="SourceAlpha" type="matrix" values="0 0 0 0 0 0 0 0 0 0 0 0 0 0 0 0 0 0 127 0" result="hardAlpha"/>
<feOffset dy="3.65714"/>
<feGaussianBlur stdDeviation="0.914286"/>
<feColorMatrix type="matrix" values="0 0 0 0 0 0 0 0 0 0.215686 0 0 0 0 0.380392 0 0 0 0.07 0"/>
<feBlend mode="normal" in2="effect2_dropShadow_11900_2306" result="effect3_dropShadow_11900_2306"/>
<feColorMatrix in="SourceAlpha" type="matrix" values="0 0 0 0 0 0 0 0 0 0 0 0 0 0 0 0 0 0 127 0" result="hardAlpha"/>
<feOffset dy="5.48571"/>
<feGaussianBlur stdDeviation="1.37143"/>
<feColorMatrix type="matrix" values="0 0 0 0 0 0 0 0 0 0.215686 0 0 0 0 0.380392 0 0 0 0.02 0"/>
<feBlend mode="normal" in2="effect3_dropShadow_11900_2306" result="effect4_dropShadow_11900_2306"/>
<feBlend mode="normal" in="SourceGraphic" in2="effect4_dropShadow_11900_2306" result="shape"/>
</filter>
<filter id="filter4_dddd_11900_2306" x="36.0794" y="7.35622" width="14.1478" height="17.8045" filterUnits="userSpaceOnUse" color-interpolation-filters="sRGB">
<feFlood flood-opacity="0" result="BackgroundImageFix"/>
<feColorMatrix in="SourceAlpha" type="matrix" values="0 0 0 0 0 0 0 0 0 0 0 0 0 0 0 0 0 0 127 0" result="hardAlpha"/>
<feOffset/>
<feGaussianBlur stdDeviation="0.457143"/>
<feColorMatrix type="matrix" values="0 0 0 0 0 0 0 0 0 0.215686 0 0 0 0 0.380392 0 0 0 0.14 0"/>
<feBlend mode="normal" in2="BackgroundImageFix" result="effect1_dropShadow_11900_2306"/>
<feColorMatrix in="SourceAlpha" type="matrix" values="0 0 0 0 0 0 0 0 0 0 0 0 0 0 0 0 0 0 127 0" result="hardAlpha"/>
<feOffset dy="1.82857"/>
<feGaussianBlur stdDeviation="0.914286"/>
<feColorMatrix type="matrix" values="0 0 0 0 0 0 0 0 0 0.215686 0 0 0 0 0.380392 0 0 0 0.12 0"/>
<feBlend mode="normal" in2="effect1_dropShadow_11900_2306" result="effect2_dropShadow_11900_2306"/>
<feColorMatrix in="SourceAlpha" type="matrix" values="0 0 0 0 0 0 0 0 0 0 0 0 0 0 0 0 0 0 127 0" result="hardAlpha"/>
<feOffset dy="3.65714"/>
<feGaussianBlur stdDeviation="0.914286"/>
<feColorMatrix type="matrix" values="0 0 0 0 0 0 0 0 0 0.215686 0 0 0 0 0.380392 0 0 0 0.07 0"/>
<feBlend mode="normal" in2="effect2_dropShadow_11900_2306" result="effect3_dropShadow_11900_2306"/>
<feColorMatrix in="SourceAlpha" type="matrix" values="0 0 0 0 0 0 0 0 0 0 0 0 0 0 0 0 0 0 127 0" result="hardAlpha"/>
<feOffset dy="5.48571"/>
<feGaussianBlur stdDeviation="1.37143"/>
<feColorMatrix type="matrix" values="0 0 0 0 0 0 0 0 0 0.215686 0 0 0 0 0.380392 0 0 0 0.02 0"/>
<feBlend mode="normal" in2="effect3_dropShadow_11900_2306" result="effect4_dropShadow_11900_2306"/>
<feBlend mode="normal" in="SourceGraphic" in2="effect4_dropShadow_11900_2306" result="shape"/>
</filter>
<linearGradient id="paint0_linear_11900_2306" x1="38" y1="65" x2="38" y2="1" gradientUnits="userSpaceOnUse">
<stop offset="0.336861" stop-color="#0098FF"/>
<stop offset="1" stop-color="#7DD3FC"/>
</linearGradient>
<linearGradient id="paint1_linear_11900_2306" x1="57.2362" y1="35.0851" x2="18.2588" y2="35.0851" gradientUnits="userSpaceOnUse">
<stop stop-color="#0075FF"/>
<stop offset="0.599309" stop-color="#0075FF" stop-opacity="0"/>
</linearGradient>
<radialGradient id="paint2_radial_11900_2306" cx="0" cy="0" r="1" gradientUnits="userSpaceOnUse" gradientTransform="translate(37.9427 42.2574) rotate(-90) scale(10.3383 21.4151)">
<stop offset="0.237778" stop-color="white"/>
<stop offset="1" stop-color="white" stop-opacity="0"/>
</radialGradient>
<linearGradient id="paint3_linear_11900_2306" x1="53.9803" y1="11.5187" x2="53.9803" y2="26.6766" gradientUnits="userSpaceOnUse">
<stop stop-color="white"/>
<stop offset="1" stop-color="white" stop-opacity="0"/>
</linearGradient>
<linearGradient id="paint4_linear_11900_2306" x1="53.9803" y1="11.5187" x2="53.9803" y2="26.6766" gradientUnits="userSpaceOnUse">
<stop stop-color="white"/>
<stop offset="1" stop-color="white" stop-opacity="0"/>
</linearGradient>
<linearGradient id="paint5_linear_11900_2306" x1="43.1531" y1="8.27051" x2="43.1531" y2="16.9322" gradientUnits="userSpaceOnUse">
<stop stop-color="white"/>
<stop offset="1" stop-color="white" stop-opacity="0"/>
</linearGradient>
<linearGradient id="paint6_linear_11900_2306" x1="43.1531" y1="8.27051" x2="43.1531" y2="16.9322" gradientUnits="userSpaceOnUse">
<stop stop-color="white"/>
<stop offset="1" stop-color="white" stop-opacity="0"/>
</linearGradient>
<linearGradient id="paint7_linear_11900_2306" x1="38" y1="1" x2="38" y2="65" gradientUnits="userSpaceOnUse">
<stop stop-color="white"/>
<stop offset="1" stop-color="white" stop-opacity="0.6"/>
</linearGradient>
<clipPath id="clip0_11900_2306">
<rect x="6" y="1" width="64" height="64" rx="14.6286" fill="white"/>
</clipPath>
<clipPath id="clip1_11900_2306">
<rect x="18.2588" y="21.3069" width="38.9774" height="28.1504" rx="3.89777" fill="white"/>
</clipPath>
</defs>
</svg>
