<svg width="76" height="84" viewBox="0 0 76 84" fill="none" xmlns="http://www.w3.org/2000/svg">
<g filter="url(#filter0_dddd_11900_2307)">
<g clip-path="url(#clip0_11900_2307)">
<rect x="6" y="1" width="64" height="64" rx="14.6286" fill="white"/>
<rect x="6" y="1" width="64" height="64" rx="14.6286" fill="url(#paint0_linear_11900_2307)" fill-opacity="0.32"/>
<g filter="url(#filter1_dddddi_11900_2307)">
<g clip-path="url(#clip1_11900_2307)">
<rect x="17.8857" y="22.0286" width="40.2286" height="49.3714" rx="3.65714" fill="white"/>
<rect x="17.8857" y="22.0286" width="40.2286" height="49.3714" rx="3.65714" fill="white"/>
<rect x="17.8857" y="22.0286" width="40.2286" height="49.3714" rx="3.65714" fill="url(#paint1_linear_11900_2307)" fill-opacity="0.12"/>
<path d="M35.9503 62.7486H23.4932" stroke="#ACCDFF" stroke-width="2" stroke-linecap="round" stroke-linejoin="round"/>
<path d="M42.1789 48.2571H23.4932" stroke="#ACCDFF" stroke-width="2" stroke-linecap="round" stroke-linejoin="round"/>
<path d="M53.4073 62.7486H40.9502" stroke="#ACCDFF" stroke-width="2" stroke-linecap="round" stroke-linejoin="round"/>
<path d="M53.4073 48.2574H47.1787" stroke="#ACCDFF" stroke-width="2" stroke-linecap="round" stroke-linejoin="round"/>
<path d="M38.459 55.5248H54.2463" stroke="#ACCDFF" stroke-width="2" stroke-linecap="round" stroke-linejoin="round"/>
<path d="M23.4932 55.503H33.4589" stroke="#ACCDFF" stroke-width="2" stroke-linecap="round" stroke-linejoin="round"/>
<g opacity="0.8">
<g filter="url(#filter2_ddd_11900_2307)">
<path fill-rule="evenodd" clip-rule="evenodd" d="M26.8115 29.1689C27.1403 29.501 27.153 30.053 26.8398 30.4017L24.5064 33.0003L26.8398 35.599C27.153 35.9477 27.1403 36.4997 26.8115 36.8318C26.4827 37.1639 25.9623 37.1505 25.6491 36.8017L22.7756 33.6017C22.4732 33.265 22.4732 32.7357 22.7756 32.399L25.6491 29.199C25.9623 28.8502 26.4827 28.8368 26.8115 29.1689Z" fill="#0098FF"/>
<path fill-rule="evenodd" clip-rule="evenodd" d="M26.8115 29.1689C27.1403 29.501 27.153 30.053 26.8398 30.4017L24.5064 33.0003L26.8398 35.599C27.153 35.9477 27.1403 36.4997 26.8115 36.8318C26.4827 37.1639 25.9623 37.1505 25.6491 36.8017L22.7756 33.6017C22.4732 33.265 22.4732 32.7357 22.7756 32.399L25.6491 29.199C25.9623 28.8502 26.4827 28.8368 26.8115 29.1689Z" fill="url(#paint2_radial_11900_2307)" fill-opacity="0.32"/>
</g>
<g filter="url(#filter3_ddd_11900_2307)">
<path fill-rule="evenodd" clip-rule="evenodd" d="M30.9934 29.1685C31.3223 28.8363 31.8427 28.8498 32.1558 29.1985L35.0293 32.3985C35.3317 32.7353 35.3317 33.2645 35.0293 33.6013L32.1558 36.8013C31.8427 37.15 31.3223 37.1635 30.9934 36.8314C30.6646 36.4992 30.6519 35.9473 30.9651 35.5985L33.2985 32.9999L30.9651 30.4013C30.6519 30.0526 30.6646 29.5006 30.9934 29.1685Z" fill="#0098FF"/>
<path fill-rule="evenodd" clip-rule="evenodd" d="M30.9934 29.1685C31.3223 28.8363 31.8427 28.8498 32.1558 29.1985L35.0293 32.3985C35.3317 32.7353 35.3317 33.2645 35.0293 33.6013L32.1558 36.8013C31.8427 37.15 31.3223 37.1635 30.9934 36.8314C30.6646 36.4992 30.6519 35.9473 30.9651 35.5985L33.2985 32.9999L30.9651 30.4013C30.6519 30.0526 30.6646 29.5006 30.9934 29.1685Z" fill="url(#paint3_radial_11900_2307)" fill-opacity="0.32"/>
</g>
</g>
</g>
</g>
<g filter="url(#filter4_dddd_11900_2307)">
<path fill-rule="evenodd" clip-rule="evenodd" d="M51.2122 12.8169C51.5151 12.263 52.096 11.9186 52.7272 11.9186C53.3585 11.9186 53.9394 12.263 54.2423 12.8169L55.5882 15.2781C55.7467 15.5678 55.9849 15.8061 56.2747 15.9646L58.7359 17.3105C59.2897 17.6133 59.6342 18.1943 59.6342 18.8255C59.6342 19.4568 59.2897 20.0377 58.7359 20.3405L56.2747 21.6865C55.9849 21.8449 55.7467 22.0832 55.5882 22.373L54.2423 24.8341C53.9394 25.388 53.3585 25.7324 52.7272 25.7324C52.096 25.7324 51.5151 25.388 51.2122 24.8341L49.8663 22.373C49.7078 22.0832 49.4696 21.8449 49.1798 21.6865L46.7186 20.3405C46.1648 20.0377 45.8203 19.4568 45.8203 18.8255C45.8203 18.1943 46.1648 17.6133 46.7186 17.3105L49.1798 15.9646C49.4696 15.8061 49.7078 15.5678 49.8663 15.2781L51.2122 12.8169Z" fill="#0098FF"/>
<path fill-rule="evenodd" clip-rule="evenodd" d="M51.2122 12.8169C51.5151 12.263 52.096 11.9186 52.7272 11.9186C53.3585 11.9186 53.9394 12.263 54.2423 12.8169L55.5882 15.2781C55.7467 15.5678 55.9849 15.8061 56.2747 15.9646L58.7359 17.3105C59.2897 17.6133 59.6342 18.1943 59.6342 18.8255C59.6342 19.4568 59.2897 20.0377 58.7359 20.3405L56.2747 21.6865C55.9849 21.8449 55.7467 22.0832 55.5882 22.373L54.2423 24.8341C53.9394 25.388 53.3585 25.7324 52.7272 25.7324C52.096 25.7324 51.5151 25.388 51.2122 24.8341L49.8663 22.373C49.7078 22.0832 49.4696 21.8449 49.1798 21.6865L46.7186 20.3405C46.1648 20.0377 45.8203 19.4568 45.8203 18.8255C45.8203 18.1943 46.1648 17.6133 46.7186 17.3105L49.1798 15.9646C49.4696 15.8061 49.7078 15.5678 49.8663 15.2781L51.2122 12.8169Z" fill="url(#paint4_linear_11900_2307)" fill-opacity="0.24"/>
<path d="M51.6133 13.0362L51.6133 13.0362C51.836 12.629 52.2631 12.3757 52.7272 12.3757C53.1914 12.3757 53.6185 12.629 53.8412 13.0362L53.8412 13.0362L55.1871 15.4974C55.1871 15.4974 55.1871 15.4974 55.1871 15.4974C55.3875 15.8639 55.6889 16.1652 56.0554 16.3656C56.0554 16.3656 56.0554 16.3656 56.0554 16.3656L58.5165 17.7116L58.5165 17.7116C58.9238 17.9342 59.177 18.3614 59.177 18.8255C59.177 19.2896 58.9238 19.7168 58.5165 19.9394L58.5165 19.9395L56.0554 21.2854C56.0554 21.2854 56.0554 21.2854 56.0554 21.2854C55.6889 21.4858 55.3875 21.7871 55.1871 22.1536C55.1871 22.1536 55.1871 22.1536 55.1871 22.1536L53.8412 24.6148L53.8412 24.6148C53.6185 25.022 53.1914 25.2753 52.7272 25.2753C52.2631 25.2753 51.836 25.022 51.6133 24.6148L51.6133 24.6148L50.2674 22.1536C50.2674 22.1536 50.2674 22.1536 50.2674 22.1536C50.067 21.7871 49.7656 21.4858 49.3991 21.2854C49.3991 21.2854 49.3991 21.2854 49.3991 21.2854L46.938 19.9395L46.9379 19.9394C46.5307 19.7168 46.2775 19.2896 46.2775 18.8255C46.2775 18.3614 46.5307 17.9342 46.9379 17.7116L46.938 17.7116L49.3991 16.3656C49.7656 16.1652 50.067 15.8639 50.2674 15.4974L51.6133 13.0362Z" stroke="url(#paint5_linear_11900_2307)" stroke-opacity="0.48" stroke-width="0.914286" stroke-linecap="round" stroke-linejoin="round"/>
</g>
<g opacity="0.4" filter="url(#filter5_dddd_11900_2307)">
<path fill-rule="evenodd" clip-rule="evenodd" d="M41.9942 9.47157C42.1672 9.15509 42.4992 8.95825 42.8599 8.95825C43.2206 8.95825 43.5526 9.15509 43.7256 9.47157L44.4947 10.878C44.5853 11.0435 44.7214 11.1797 44.887 11.2702L46.2934 12.0393C46.6099 12.2124 46.8067 12.5444 46.8067 12.9051C46.8067 13.2658 46.6099 13.5977 46.2934 13.7708L44.887 14.5399C44.7214 14.6305 44.5853 14.7666 44.4947 14.9322L43.7256 16.3386C43.5526 16.6551 43.2206 16.8519 42.8599 16.8519C42.4992 16.8519 42.1672 16.6551 41.9942 16.3386L41.2251 14.9322C41.1345 14.7666 40.9984 14.6305 40.8328 14.5399L39.4264 13.7708C39.1099 13.5977 38.9131 13.2658 38.9131 12.9051C38.9131 12.5444 39.1099 12.2124 39.4264 12.0393L40.8328 11.2702C40.9984 11.1797 41.1345 11.0435 41.2251 10.878L41.9942 9.47157Z" fill="#0098FF"/>
<path fill-rule="evenodd" clip-rule="evenodd" d="M41.9942 9.47157C42.1672 9.15509 42.4992 8.95825 42.8599 8.95825C43.2206 8.95825 43.5526 9.15509 43.7256 9.47157L44.4947 10.878C44.5853 11.0435 44.7214 11.1797 44.887 11.2702L46.2934 12.0393C46.6099 12.2124 46.8067 12.5444 46.8067 12.9051C46.8067 13.2658 46.6099 13.5977 46.2934 13.7708L44.887 14.5399C44.7214 14.6305 44.5853 14.7666 44.4947 14.9322L43.7256 16.3386C43.5526 16.6551 43.2206 16.8519 42.8599 16.8519C42.4992 16.8519 42.1672 16.6551 41.9942 16.3386L41.2251 14.9322C41.1345 14.7666 40.9984 14.6305 40.8328 14.5399L39.4264 13.7708C39.1099 13.5977 38.9131 13.2658 38.9131 12.9051C38.9131 12.5444 39.1099 12.2124 39.4264 12.0393L40.8328 11.2702C40.9984 11.1797 41.1345 11.0435 41.2251 10.878L41.9942 9.47157Z" fill="url(#paint6_linear_11900_2307)" fill-opacity="0.24"/>
<path d="M42.1947 9.58124L42.1947 9.58123C42.3277 9.33806 42.5828 9.18682 42.8599 9.18682C43.1371 9.18682 43.3921 9.33806 43.5251 9.58123L43.5251 9.58124L44.2942 10.9876C44.2942 10.9876 44.2942 10.9876 44.2942 10.9876C44.4057 11.1916 44.5734 11.3593 44.7774 11.4708C44.7774 11.4708 44.7774 11.4708 44.7774 11.4708L46.1837 12.2399L46.1837 12.2399C46.4269 12.3729 46.5781 12.6279 46.5781 12.9051C46.5781 13.1822 46.4269 13.4373 46.1837 13.5703L46.1837 13.5703L44.7774 14.3394C44.7774 14.3394 44.7774 14.3394 44.7774 14.3394C44.5734 14.4509 44.4057 14.6186 44.2942 14.8225C44.2942 14.8225 44.2942 14.8225 44.2942 14.8225L43.5251 16.2289L43.5251 16.2289C43.3921 16.4721 43.1371 16.6233 42.8599 16.6233C42.5828 16.6233 42.3277 16.4721 42.1947 16.2289L42.1947 16.2289L41.4256 14.8225C41.4256 14.8225 41.4256 14.8225 41.4256 14.8225C41.3141 14.6186 41.1464 14.4509 40.9425 14.3394C40.9425 14.3394 40.9425 14.3394 40.9424 14.3394L39.5361 13.5703L39.5361 13.5703C39.2929 13.4373 39.1417 13.1822 39.1417 12.9051C39.1417 12.6279 39.2929 12.3729 39.5361 12.2399L39.5361 12.2399L40.9424 11.4708C40.9425 11.4708 40.9425 11.4708 40.9425 11.4708C41.1464 11.3593 41.3141 11.1916 41.4256 10.9876C41.4256 10.9876 41.4256 10.9876 41.4256 10.9876L42.1947 9.58124Z" stroke="url(#paint7_linear_11900_2307)" stroke-opacity="0.5" stroke-width="0.457143" stroke-linecap="round" stroke-linejoin="round"/>
</g>
</g>
<rect x="7.5" y="2.5" width="61" height="61" rx="13.1286" stroke="url(#paint8_linear_11900_2307)" stroke-opacity="0.56" stroke-width="3"/>
</g>
<defs>
<filter id="filter0_dddd_11900_2307" x="0.514286" y="0.0857143" width="74.9714" height="83.2" filterUnits="userSpaceOnUse" color-interpolation-filters="sRGB">
<feFlood flood-opacity="0" result="BackgroundImageFix"/>
<feColorMatrix in="SourceAlpha" type="matrix" values="0 0 0 0 0 0 0 0 0 0 0 0 0 0 0 0 0 0 127 0" result="hardAlpha"/>
<feOffset dy="0.914286"/>
<feGaussianBlur stdDeviation="0.914286"/>
<feColorMatrix type="matrix" values="0 0 0 0 0.0941176 0 0 0 0 0.133333 0 0 0 0 0.188235 0 0 0 0.08 0"/>
<feBlend mode="normal" in2="BackgroundImageFix" result="effect1_dropShadow_11900_2307"/>
<feColorMatrix in="SourceAlpha" type="matrix" values="0 0 0 0 0 0 0 0 0 0 0 0 0 0 0 0 0 0 127 0" result="hardAlpha"/>
<feOffset dy="2.74286"/>
<feGaussianBlur stdDeviation="1.37143"/>
<feColorMatrix type="matrix" values="0 0 0 0 0.0941176 0 0 0 0 0.133333 0 0 0 0 0.188235 0 0 0 0.07 0"/>
<feBlend mode="normal" in2="effect1_dropShadow_11900_2307" result="effect2_dropShadow_11900_2307"/>
<feColorMatrix in="SourceAlpha" type="matrix" values="0 0 0 0 0 0 0 0 0 0 0 0 0 0 0 0 0 0 127 0" result="hardAlpha"/>
<feOffset dy="7.31429"/>
<feGaussianBlur stdDeviation="2.28571"/>
<feColorMatrix type="matrix" values="0 0 0 0 0.0941176 0 0 0 0 0.133333 0 0 0 0 0.188235 0 0 0 0.04 0"/>
<feBlend mode="normal" in2="effect2_dropShadow_11900_2307" result="effect3_dropShadow_11900_2307"/>
<feColorMatrix in="SourceAlpha" type="matrix" values="0 0 0 0 0 0 0 0 0 0 0 0 0 0 0 0 0 0 127 0" result="hardAlpha"/>
<feOffset dy="12.8"/>
<feGaussianBlur stdDeviation="2.74286"/>
<feColorMatrix type="matrix" values="0 0 0 0 0.0941176 0 0 0 0 0.133333 0 0 0 0 0.188235 0 0 0 0.01 0"/>
<feBlend mode="normal" in2="effect3_dropShadow_11900_2307" result="effect4_dropShadow_11900_2307"/>
<feBlend mode="normal" in="SourceGraphic" in2="effect4_dropShadow_11900_2307" result="shape"/>
</filter>
<filter id="filter1_dddddi_11900_2307" x="12.4" y="9.02856" width="51.1999" height="68.7715" filterUnits="userSpaceOnUse" color-interpolation-filters="sRGB">
<feFlood flood-opacity="0" result="BackgroundImageFix"/>
<feColorMatrix in="SourceAlpha" type="matrix" values="0 0 0 0 0 0 0 0 0 0 0 0 0 0 0 0 0 0 127 0" result="hardAlpha"/>
<feOffset dy="-0.914286"/>
<feGaussianBlur stdDeviation="0.914286"/>
<feColorMatrix type="matrix" values="0 0 0 0 0 0 0 0 0 0.129412 0 0 0 0 0.301961 0 0 0 0.13 0"/>
<feBlend mode="normal" in2="BackgroundImageFix" result="effect1_dropShadow_11900_2307"/>
<feColorMatrix in="SourceAlpha" type="matrix" values="0 0 0 0 0 0 0 0 0 0 0 0 0 0 0 0 0 0 127 0" result="hardAlpha"/>
<feMorphology radius="0.914286" operator="dilate" in="SourceAlpha" result="effect2_dropShadow_11900_2307"/>
<feOffset/>
<feGaussianBlur stdDeviation="1.82857"/>
<feColorMatrix type="matrix" values="0 0 0 0 0 0 0 0 0 0.129412 0 0 0 0 0.301961 0 0 0 0.11 0"/>
<feBlend mode="normal" in2="effect1_dropShadow_11900_2307" result="effect2_dropShadow_11900_2307"/>
<feColorMatrix in="SourceAlpha" type="matrix" values="0 0 0 0 0 0 0 0 0 0 0 0 0 0 0 0 0 0 127 0" result="hardAlpha"/>
<feOffset dy="1.82857"/>
<feGaussianBlur stdDeviation="2.28571"/>
<feColorMatrix type="matrix" values="0 0 0 0 0 0 0 0 0 0.129412 0 0 0 0 0.301961 0 0 0 0.07 0"/>
<feBlend mode="normal" in2="effect2_dropShadow_11900_2307" result="effect3_dropShadow_11900_2307"/>
<feColorMatrix in="SourceAlpha" type="matrix" values="0 0 0 0 0 0 0 0 0 0 0 0 0 0 0 0 0 0 127 0" result="hardAlpha"/>
<feOffset dy="-4.57143"/>
<feGaussianBlur stdDeviation="2.74286"/>
<feColorMatrix type="matrix" values="0 0 0 0 0 0 0 0 0 0.129412 0 0 0 0 0.301961 0 0 0 0.02 0"/>
<feBlend mode="normal" in2="effect3_dropShadow_11900_2307" result="effect4_dropShadow_11900_2307"/>
<feColorMatrix in="SourceAlpha" type="matrix" values="0 0 0 0 0 0 0 0 0 0 0 0 0 0 0 0 0 0 127 0" result="hardAlpha"/>
<feMorphology radius="0.914286" operator="dilate" in="SourceAlpha" result="effect5_dropShadow_11900_2307"/>
<feOffset/>
<feColorMatrix type="matrix" values="0 0 0 0 0 0 0 0 0 0.129412 0 0 0 0 0.301961 0 0 0 0.06 0"/>
<feBlend mode="normal" in2="effect4_dropShadow_11900_2307" result="effect5_dropShadow_11900_2307"/>
<feBlend mode="normal" in="SourceGraphic" in2="effect5_dropShadow_11900_2307" result="shape"/>
<feColorMatrix in="SourceAlpha" type="matrix" values="0 0 0 0 0 0 0 0 0 0 0 0 0 0 0 0 0 0 127 0" result="hardAlpha"/>
<feMorphology radius="20" operator="dilate" in="SourceAlpha" result="effect6_innerShadow_11900_2307"/>
<feOffset dy="-24"/>
<feGaussianBlur stdDeviation="16.5"/>
<feComposite in2="hardAlpha" operator="arithmetic" k2="-1" k3="1"/>
<feColorMatrix type="matrix" values="0 0 0 0 0 0 0 0 0 0.596078 0 0 0 0 1 0 0 0 0.4 0"/>
<feBlend mode="normal" in2="shape" result="effect6_innerShadow_11900_2307"/>
</filter>
<filter id="filter2_ddd_11900_2307" x="11.5774" y="18.6426" width="26.4604" height="30.0868" filterUnits="userSpaceOnUse" color-interpolation-filters="sRGB">
<feFlood flood-opacity="0" result="BackgroundImageFix"/>
<feColorMatrix in="SourceAlpha" type="matrix" values="0 0 0 0 0 0 0 0 0 0 0 0 0 0 0 0 0 0 127 0" result="hardAlpha"/>
<feOffset dy="0.723799"/>
<feComposite in2="hardAlpha" operator="out"/>
<feColorMatrix type="matrix" values="0 0 0 0 0.0836999 0 0 0 0 0.43895 0 0 0 0 0.9363 0 0 0 0.24 0"/>
<feBlend mode="normal" in2="BackgroundImageFix" result="effect1_dropShadow_11900_2307"/>
<feColorMatrix in="SourceAlpha" type="matrix" values="0 0 0 0 0 0 0 0 0 0 0 0 0 0 0 0 0 0 127 0" result="hardAlpha"/>
<feOffset dy="0.685714"/>
<feGaussianBlur stdDeviation="5.48571"/>
<feComposite in2="hardAlpha" operator="out"/>
<feColorMatrix type="matrix" values="0 0 0 0 0.0836999 0 0 0 0 0.43895 0 0 0 0 0.9363 0 0 0 0.4 0"/>
<feBlend mode="normal" in2="effect1_dropShadow_11900_2307" result="effect2_dropShadow_11900_2307"/>
<feColorMatrix in="SourceAlpha" type="matrix" values="0 0 0 0 0 0 0 0 0 0 0 0 0 0 0 0 0 0 127 0" result="hardAlpha"/>
<feOffset dy="0.685714"/>
<feGaussianBlur stdDeviation="2.05714"/>
<feComposite in2="hardAlpha" operator="out"/>
<feColorMatrix type="matrix" values="0 0 0 0 0.0836999 0 0 0 0 0.43895 0 0 0 0 0.9363 0 0 0 0.4 0"/>
<feBlend mode="normal" in2="effect2_dropShadow_11900_2307" result="effect3_dropShadow_11900_2307"/>
<feBlend mode="normal" in="SourceGraphic" in2="effect3_dropShadow_11900_2307" result="shape"/>
</filter>
<filter id="filter3_ddd_11900_2307" x="19.7669" y="18.6422" width="26.4604" height="30.0868" filterUnits="userSpaceOnUse" color-interpolation-filters="sRGB">
<feFlood flood-opacity="0" result="BackgroundImageFix"/>
<feColorMatrix in="SourceAlpha" type="matrix" values="0 0 0 0 0 0 0 0 0 0 0 0 0 0 0 0 0 0 127 0" result="hardAlpha"/>
<feOffset dy="0.723799"/>
<feComposite in2="hardAlpha" operator="out"/>
<feColorMatrix type="matrix" values="0 0 0 0 0.0836999 0 0 0 0 0.43895 0 0 0 0 0.9363 0 0 0 0.24 0"/>
<feBlend mode="normal" in2="BackgroundImageFix" result="effect1_dropShadow_11900_2307"/>
<feColorMatrix in="SourceAlpha" type="matrix" values="0 0 0 0 0 0 0 0 0 0 0 0 0 0 0 0 0 0 127 0" result="hardAlpha"/>
<feOffset dy="0.685714"/>
<feGaussianBlur stdDeviation="5.48571"/>
<feComposite in2="hardAlpha" operator="out"/>
<feColorMatrix type="matrix" values="0 0 0 0 0.0836999 0 0 0 0 0.43895 0 0 0 0 0.9363 0 0 0 0.4 0"/>
<feBlend mode="normal" in2="effect1_dropShadow_11900_2307" result="effect2_dropShadow_11900_2307"/>
<feColorMatrix in="SourceAlpha" type="matrix" values="0 0 0 0 0 0 0 0 0 0 0 0 0 0 0 0 0 0 127 0" result="hardAlpha"/>
<feOffset dy="0.685714"/>
<feGaussianBlur stdDeviation="2.05714"/>
<feComposite in2="hardAlpha" operator="out"/>
<feColorMatrix type="matrix" values="0 0 0 0 0.0836999 0 0 0 0 0.43895 0 0 0 0 0.9363 0 0 0 0.4 0"/>
<feBlend mode="normal" in2="effect2_dropShadow_11900_2307" result="effect3_dropShadow_11900_2307"/>
<feBlend mode="normal" in="SourceGraphic" in2="effect3_dropShadow_11900_2307" result="shape"/>
</filter>
<filter id="filter4_dddd_11900_2307" x="43.0775" y="11.0043" width="19.2992" height="22.9567" filterUnits="userSpaceOnUse" color-interpolation-filters="sRGB">
<feFlood flood-opacity="0" result="BackgroundImageFix"/>
<feColorMatrix in="SourceAlpha" type="matrix" values="0 0 0 0 0 0 0 0 0 0 0 0 0 0 0 0 0 0 127 0" result="hardAlpha"/>
<feOffset/>
<feGaussianBlur stdDeviation="0.457143"/>
<feColorMatrix type="matrix" values="0 0 0 0 0 0 0 0 0 0.215686 0 0 0 0 0.380392 0 0 0 0.14 0"/>
<feBlend mode="normal" in2="BackgroundImageFix" result="effect1_dropShadow_11900_2307"/>
<feColorMatrix in="SourceAlpha" type="matrix" values="0 0 0 0 0 0 0 0 0 0 0 0 0 0 0 0 0 0 127 0" result="hardAlpha"/>
<feOffset dy="1.82857"/>
<feGaussianBlur stdDeviation="0.914286"/>
<feColorMatrix type="matrix" values="0 0 0 0 0 0 0 0 0 0.215686 0 0 0 0 0.380392 0 0 0 0.12 0"/>
<feBlend mode="normal" in2="effect1_dropShadow_11900_2307" result="effect2_dropShadow_11900_2307"/>
<feColorMatrix in="SourceAlpha" type="matrix" values="0 0 0 0 0 0 0 0 0 0 0 0 0 0 0 0 0 0 127 0" result="hardAlpha"/>
<feOffset dy="3.65714"/>
<feGaussianBlur stdDeviation="0.914286"/>
<feColorMatrix type="matrix" values="0 0 0 0 0 0 0 0 0 0.215686 0 0 0 0 0.380392 0 0 0 0.07 0"/>
<feBlend mode="normal" in2="effect2_dropShadow_11900_2307" result="effect3_dropShadow_11900_2307"/>
<feColorMatrix in="SourceAlpha" type="matrix" values="0 0 0 0 0 0 0 0 0 0 0 0 0 0 0 0 0 0 127 0" result="hardAlpha"/>
<feOffset dy="5.48571"/>
<feGaussianBlur stdDeviation="1.37143"/>
<feColorMatrix type="matrix" values="0 0 0 0 0 0 0 0 0 0.215686 0 0 0 0 0.380392 0 0 0 0.02 0"/>
<feBlend mode="normal" in2="effect3_dropShadow_11900_2307" result="effect4_dropShadow_11900_2307"/>
<feBlend mode="normal" in="SourceGraphic" in2="effect4_dropShadow_11900_2307" result="shape"/>
</filter>
<filter id="filter5_dddd_11900_2307" x="36.1702" y="8.04397" width="13.3793" height="17.0365" filterUnits="userSpaceOnUse" color-interpolation-filters="sRGB">
<feFlood flood-opacity="0" result="BackgroundImageFix"/>
<feColorMatrix in="SourceAlpha" type="matrix" values="0 0 0 0 0 0 0 0 0 0 0 0 0 0 0 0 0 0 127 0" result="hardAlpha"/>
<feOffset/>
<feGaussianBlur stdDeviation="0.457143"/>
<feColorMatrix type="matrix" values="0 0 0 0 0 0 0 0 0 0.215686 0 0 0 0 0.380392 0 0 0 0.14 0"/>
<feBlend mode="normal" in2="BackgroundImageFix" result="effect1_dropShadow_11900_2307"/>
<feColorMatrix in="SourceAlpha" type="matrix" values="0 0 0 0 0 0 0 0 0 0 0 0 0 0 0 0 0 0 127 0" result="hardAlpha"/>
<feOffset dy="1.82857"/>
<feGaussianBlur stdDeviation="0.914286"/>
<feColorMatrix type="matrix" values="0 0 0 0 0 0 0 0 0 0.215686 0 0 0 0 0.380392 0 0 0 0.12 0"/>
<feBlend mode="normal" in2="effect1_dropShadow_11900_2307" result="effect2_dropShadow_11900_2307"/>
<feColorMatrix in="SourceAlpha" type="matrix" values="0 0 0 0 0 0 0 0 0 0 0 0 0 0 0 0 0 0 127 0" result="hardAlpha"/>
<feOffset dy="3.65714"/>
<feGaussianBlur stdDeviation="0.914286"/>
<feColorMatrix type="matrix" values="0 0 0 0 0 0 0 0 0 0.215686 0 0 0 0 0.380392 0 0 0 0.07 0"/>
<feBlend mode="normal" in2="effect2_dropShadow_11900_2307" result="effect3_dropShadow_11900_2307"/>
<feColorMatrix in="SourceAlpha" type="matrix" values="0 0 0 0 0 0 0 0 0 0 0 0 0 0 0 0 0 0 127 0" result="hardAlpha"/>
<feOffset dy="5.48571"/>
<feGaussianBlur stdDeviation="1.37143"/>
<feColorMatrix type="matrix" values="0 0 0 0 0 0 0 0 0 0.215686 0 0 0 0 0.380392 0 0 0 0.02 0"/>
<feBlend mode="normal" in2="effect3_dropShadow_11900_2307" result="effect4_dropShadow_11900_2307"/>
<feBlend mode="normal" in="SourceGraphic" in2="effect4_dropShadow_11900_2307" result="shape"/>
</filter>
<linearGradient id="paint0_linear_11900_2307" x1="38" y1="65" x2="38" y2="1" gradientUnits="userSpaceOnUse">
<stop offset="0.336861" stop-color="#0098FF"/>
<stop offset="1" stop-color="#7DD3FC"/>
</linearGradient>
<linearGradient id="paint1_linear_11900_2307" x1="58.1143" y1="46.1935" x2="17.8857" y2="46.1935" gradientUnits="userSpaceOnUse">
<stop stop-color="#0075FF"/>
<stop offset="1" stop-color="#0075FF" stop-opacity="0"/>
</linearGradient>
<radialGradient id="paint2_radial_11900_2307" cx="0" cy="0" r="1" gradientUnits="userSpaceOnUse" gradientTransform="translate(24.8077 39.1083) rotate(-90) scale(8.77047 4.86534)">
<stop offset="0.237778" stop-color="white"/>
<stop offset="1" stop-color="white" stop-opacity="0"/>
</radialGradient>
<radialGradient id="paint3_radial_11900_2307" cx="0" cy="0" r="1" gradientUnits="userSpaceOnUse" gradientTransform="translate(32.9972 39.1079) rotate(-90) scale(8.77047 4.86534)">
<stop offset="0.237778" stop-color="white"/>
<stop offset="1" stop-color="white" stop-opacity="0"/>
</radialGradient>
<linearGradient id="paint4_linear_11900_2307" x1="52.7272" y1="11.9186" x2="52.7272" y2="25.7324" gradientUnits="userSpaceOnUse">
<stop stop-color="white"/>
<stop offset="1" stop-color="white" stop-opacity="0"/>
</linearGradient>
<linearGradient id="paint5_linear_11900_2307" x1="52.7272" y1="11.9186" x2="52.7272" y2="25.7324" gradientUnits="userSpaceOnUse">
<stop stop-color="white"/>
<stop offset="1" stop-color="white" stop-opacity="0"/>
</linearGradient>
<linearGradient id="paint6_linear_11900_2307" x1="42.8599" y1="8.95825" x2="42.8599" y2="16.8519" gradientUnits="userSpaceOnUse">
<stop stop-color="white"/>
<stop offset="1" stop-color="white" stop-opacity="0"/>
</linearGradient>
<linearGradient id="paint7_linear_11900_2307" x1="42.8599" y1="8.95825" x2="42.8599" y2="16.8519" gradientUnits="userSpaceOnUse">
<stop stop-color="white"/>
<stop offset="1" stop-color="white" stop-opacity="0"/>
</linearGradient>
<linearGradient id="paint8_linear_11900_2307" x1="38" y1="1" x2="38" y2="65" gradientUnits="userSpaceOnUse">
<stop stop-color="white"/>
<stop offset="1" stop-color="white" stop-opacity="0.6"/>
</linearGradient>
<clipPath id="clip0_11900_2307">
<rect x="6" y="1" width="64" height="64" rx="14.6286" fill="white"/>
</clipPath>
<clipPath id="clip1_11900_2307">
<rect x="17.8857" y="22.0286" width="40.2286" height="49.3714" rx="3.65714" fill="white"/>
</clipPath>
</defs>
</svg>
