<svg xmlns="http://www.w3.org/2000/svg" viewBox="0 0 600 24" width="600" height="24"><path d="M3 18h18v-2H3v2zM3 13h18v-2H3v2zM3 6v2h18V6H3zM26.873136 17.715914l17.995717.392668.04363-1.999524-17.995717-.392668-.04363 1.999524zM26.980327 12.803428l17.995716.392668.04363-1.999524-17.995716-.392668-.04363 1.999524zM27.131147 5.891418l-.04363 1.999524 17.995717.392668.04363-1.999524-17.995717-.392668zM50.5484 16.768858l17.931505 1.568804.174311-1.99239-17.931504-1.568803-.174312 1.99239zM50.947092 12.211793l17.931505 1.568803.174311-1.992389-17.931505-1.568803-.174311 1.992389zM51.520095 5.662338l-.174311 1.99239L69.277288 9.22353l.174312-1.99239-17.931505-1.568803zM74.23317 14.968692l17.654135 3.511626.39018-1.961571-17.654134-3.511626-.39018 1.96157zM74.977842 11.224972l17.654135 3.511626.39018-1.96157-17.654134-3.511626-.39018 1.96157zM76.112695 5.519682l-.39018 1.961571 17.654134 3.511626.39018-1.96157-17.654134-3.511627zM98.272592 12.411594l16.914467 6.156363.68404-1.879386-16.914467-6.156362-.68404 1.879385zM99.200746 9.861511l16.914467 6.156363.68404-1.879385-16.914466-6.156363-.68404 1.879385zM100.81294 5.432043l-.68404 1.879386 16.914468 6.156362.68404-1.879385-16.914467-6.156363zM122.86943 9.698095l15.388413 9.337918 1.037547-1.709824-15.388414-9.337918-1.037546 1.709824z" fill="#000000"/><path d="M123.78702 8.185953l15.388414 9.337918 1.037546-1.709824-15.388414-9.337918-1.037546 1.709824z" fill="#000000"/><path d="M125.742157 4.963987L124.70461 6.67381l15.388414 9.337918 1.037546-1.709824-15.388413-9.337918zM148.135422 7.136656l12.727922 12.727922 1.414213-1.414213-12.727922-12.727922-1.414213 1.414213z" fill="#000000"/><path d="M148.928932 6.343146l12.727922 12.727922 1.414214-1.414214-12.727922-12.727922-1.414214 1.414214z" fill="#000000"/><path d="M151.136656 4.135422l-1.414213 1.414213 12.727922 12.727922 1.414213-1.414213-12.727922-12.727922zM174.190972 4.921486l8.657798 15.781081 1.753454-.961977-8.657798-15.781082-1.753454.961978z" fill="#000000"/><path d="M174.794374 4.590448l8.657798 15.781082 1.753454-.961978-8.657798-15.781082-1.753454.961978z" fill="#000000"/><path d="M177.15123 3.297433l-1.753454.961977 8.657798 15.781082 1.753454-.961978-8.657798-15.781081zM201.062256 3.379164l3.125667 17.72654 1.969615-.347297-3.125667-17.72654-1.969615.347297z" fill="#000000"/><path d="M201.452359 3.310378l3.125667 17.72654 1.969615-.347296-3.125667-17.72654-1.969615.347296z" fill="#000000"/><path d="M203.812077 2.894296l-1.969615.347297 3.125667 17.72654 1.969615-.347297-3.125667-17.72654z" fill="#000000"/><g><path d="M228.57577 2.938207l-3.511626 17.654135 1.96157.390181 3.511627-17.654135-1.961571-.39018z" fill="#000000"/><path d="M228.775028 2.977842l-3.511626 17.654135 1.96157.39018 3.511626-17.654134-1.96157-.39018z" fill="#000000"/><path d="M230.935856 3.407658l-1.96157-.390181-3.511627 17.654135 1.961571.39018 3.511626-17.654134z" fill="#000000"/></g><g><path d="M256.274877 4.00633L245.9505 18.751066l1.638304 1.147153 10.324376-14.744736-1.638304-1.147153z" fill="#000000"/><path d="M256.343036 4.054055L246.01866 18.798792l1.638304 1.147153L257.98134 5.201208l-1.638304-1.147153z" fill="#000000"/><path d="M258.049499 5.248934l-1.638304-1.147153-10.324376 14.744736 1.638304 1.147153L258.0495 5.248934z" fill="#000000"/></g><g><path d="M283.400254 6.777427l-15.781081 8.657798.961977 1.753453 15.781082-8.657797-.961978-1.753454z" fill="#000000"/><path d="M283.409552 6.794374l-15.781082 8.657798.961978 1.753454 15.781082-8.657798-.961978-1.753454z" fill="#000000"/><path d="M284.380827 8.564775l-.961977-1.753453-15.781082 8.657797.961978 1.753454 15.781081-8.657798z" fill="#000000"/></g><g><path d="M309 11h-18v2h18v-2z" fill="#000000"/><path d="M309 11h-18v2h18v-2z" fill="#000000"/><path d="M309 13v-2h-18v2h18z" fill="#000000"/></g><g><path d="M333.054395 12.133909l-17.858556-2.252102-.250234 1.984284 17.858556 2.252102.250234-1.984284z" fill="#000000"/><path d="M333.054395 12.133909l-17.858556-2.252102-.250234 1.984284 17.858556 2.252102.250234-1.984284z" fill="#000000"/><path d="M332.00264 16.23766l.73503-1.860034-16.74031-6.615287-.73503 1.860035 16.74031 6.615287z" fill="#000000"/></g><g><path d="M356.979765 13.167831l-17.484158-4.278346-.475372 1.942684 17.484158 4.278346.475372-1.942684z" fill="#000000"/><path d="M356.979765 13.167831l-17.484158-4.278346-.475372 1.942684 17.484158 4.278346.475372-1.942684z" fill="#000000"/><path d="M354.107212 18.685952l1.318692-1.50368-13.533116-11.868224-1.318692 1.50368 13.533116 11.868224z" fill="#000000"/></g><g><path d="M380.810786 14.090465l-16.947793-6.064018-.67378 1.883088 16.947794 6.064018.67378-1.883088z" fill="#000000"/><path d="M380.810786 14.090465l-16.947793-6.064018-.67378 1.883088 16.947794 6.064018.67378-1.883088z" fill="#000000"/><path d="M375.769196 20.23366l1.715457-1.028205-9.25385-15.439115-1.715456 1.028205 9.25385 15.439115z" fill="#000000"/></g><g><path d="M404.579388 14.897257l-16.31354-7.60713-.845236 1.812616 16.31354 7.60713.845236-1.812616z" fill="#000000"/><path d="M404.579388 14.897257l-16.31354-7.60713-.845236 1.812616 16.31354 7.60713.845236-1.812616z" fill="#000000"/><path d="M397.363446 20.952151l1.931851-.517638-4.658743-17.386664-1.931851.517638 4.658743 17.386664z" fill="#000000"/></g><g><path d="M428.313925 15.588683l-15.637312-8.914845-.990538 1.73748 15.637312 8.914844.990538-1.73748z" fill="#000000"/><path d="M428.313925 15.588683l-15.637312-8.914845-.990538 1.73748 15.637312 8.914844.990538-1.73748z" fill="#000000"/><path d="M419.14739 21.015157l1.999732-.032723-.294511-17.997591-1.999733.032723.294511 17.997591z" fill="#000000"/></g><g><path d="M452.038797 16.168662L437.072344 6.168398l-1.11114 1.66294 14.966452 10.000264 1.11114-1.66294z" fill="#000000"/><path d="M452.038797 16.168662L437.072344 6.168398l-1.11114 1.66294 14.966452 10.000264 1.11114-1.66294z" fill="#000000"/><path d="M441.263402 20.631977l1.96157.39018 3.511626-17.654134-1.96157-.39018-3.511626 17.654134z" fill="#000000"/></g><g><path d="M475.774382 16.643166L461.434469 5.76351l-1.20885 1.593324L474.56553 18.23649l1.20885-1.593324z" fill="#000000"/><path d="M475.774382 16.643166L461.434469 5.76351l-1.20885 1.593324L474.56553 18.23649l1.20885-1.593324z" fill="#000000"/><path d="M463.76234 20.00264l1.860034.73503 6.615287-16.74031-1.860035-.73503-6.615287 16.74031z" fill="#000000"/></g><g><path d="M499.537188 17.019044l-13.7888-11.570177-1.285576 1.532089 13.7888 11.570177 1.285576-1.532089z" fill="#000000"/><path d="M499.537188 17.019044l-13.7888-11.570177-1.285576 1.532089 13.7888 11.570177 1.285576-1.532089z" fill="#000000"/><path d="M486.633975 19.294229l1.73205 1 9-15.588458-1.73205-1-9 15.588458z" fill="#000000"/></g><g><path d="M523.34012 17.30308L510.002998 5.215017l-1.343118 1.481903L521.997 18.78498l1.343118-1.481902z" fill="#000000"/><path d="M523.34012 17.30308L510.002998 5.215017l-1.343118 1.481903L521.997 18.78498l1.343118-1.481902z" fill="#000000"/><path d="M509.835499 18.633168l1.606415 1.1914L522.1645 5.366831l-1.606415-1.1914L509.8355 18.633169z" fill="#000000"/></g><g><path d="M547.192789 17.501254L534.190237 5.054019l-1.383026 1.444727 13.002552 12.447235 1.383026-1.444727z" fill="#000000"/><path d="M547.192789 17.501254L534.190237 5.054019l-1.383026 1.444727 13.002552 12.447235 1.383026-1.444727z" fill="#000000"/><path d="M533.314048 18.107212l1.50368 1.318692 11.868224-13.533116-1.50368-1.318692-11.868224 13.533116z" fill="#000000"/></g><g><path d="M571.101816 17.618204L558.304663 4.95989l-1.406479 1.421905 12.797153 12.658313 1.406479-1.421905z" fill="#000000"/><path d="M571.101816 17.618204L558.304663 4.95989l-1.406479 1.421905 12.797153 12.658313 1.406479-1.421905z" fill="#000000"/><path d="M557.022435 17.771792l1.437163 1.390885 12.517967-12.934469-1.437163-1.390885-12.517967 12.934469z" fill="#000000"/></g><g><path d="M595.071068 17.656854L582.343146 4.928932l-1.414214 1.414214 12.727922 12.727922 1.414214-1.414214z" fill="#000000"/><path d="M595.071068 17.656854L582.343146 4.928932l-1.414214 1.414214 12.727922 12.727922 1.414214-1.414214z" fill="#000000"/><path d="M580.928932 17.656854l1.414214 1.414214 12.727922-12.727922-1.414214-1.414214-12.727922 12.727922z" fill="#000000"/></g></svg>